<svg width="10" height="10" viewBox="0 0 10 10" fill="none" xmlns="http://www.w3.org/2000/svg">
<g clip-path="url(#clip0_3025_523)">
<path d="M8.82165 4.12927H5.77893V1.08655C5.77893 0.631006 5.40965 0.261719 4.9541 0.261719C4.49856 0.261719 4.12927 0.631006 4.12927 1.08655V4.12927H1.08655C0.631006 4.12927 0.261719 4.49856 0.261719 4.9541C0.261719 5.40965 0.631006 5.77893 1.08655 5.77893H4.12927V8.82165C4.12927 9.2772 4.49856 9.64648 4.9541 9.64648C5.40965 9.64648 5.77893 9.2772 5.77893 8.82165V5.77893H8.82165C9.2772 5.77893 9.64648 5.40965 9.64648 4.9541C9.64648 4.49856 9.2772 4.12927 8.82165 4.12927Z" fill="#F8F9FC"/>
</g>
<defs>
<clipPath id="clip0_3025_523">
<rect width="9.38477" height="9.38477" fill="white" transform="translate(0.261719 0.261719)"/>
</clipPath>
</defs>
</svg>
