<svg width="41" height="41" fill="none" xmlns="http://www.w3.org/2000/svg"><path d="M24.344 0H4.698A4.695 4.695 0 000 4.698v26.48a4.695 4.695 0 004.698 4.697h11.258a14.916 14.916 0 01-1.435-6.406c0-1.965.376-3.844 1.093-5.57.342-.87.769-1.708 1.264-2.477a15.08 15.08 0 014.237-4.339 13.146 13.146 0 012.785-1.469 13.973 13.973 0 015.142-1.076v-9.84A4.695 4.695 0 0024.344 0z" fill="#ECEFF1"/><path d="M23.917 15.374c0 .086 0 .171-.017.24-.991.375-1.914.87-2.785 1.469H6.833c-.94 0-1.708-.77-1.708-1.709 0-.94.769-1.708 1.708-1.708h15.375c.94 0 1.709.769 1.709 1.708zM16.878 21.422a14.077 14.077 0 00-1.264 2.478c-.068.017-.154.017-.239.017H6.833c-.94 0-1.708-.77-1.708-1.709 0-.94.769-1.708 1.708-1.708h8.542c.65 0 1.23.376 1.503.922zM13.667 10.25H6.833a1.709 1.709 0 010-3.417h6.834a1.709 1.709 0 010 3.417z" fill="#90A4AE"/><path d="M29.469 41c-6.359 0-11.532-5.173-11.532-11.531 0-6.359 5.173-11.532 11.532-11.532C35.827 17.938 41 23.11 41 29.47 41 35.827 35.827 41 29.469 41z" fill="#2196F3"/><path d="M29.468 35.875a1.709 1.709 0 01-1.708-1.708V24.77a1.709 1.709 0 013.416 0v9.396c0 .943-.765 1.708-1.708 1.708z" fill="#fff"/><path d="M34.167 31.177H24.77a1.709 1.709 0 010-3.416h9.396a1.709 1.709 0 010 3.416z" fill="#fff"/></svg>