<svg width="23" height="23" viewBox="0 0 23 23" fill="none" xmlns="http://www.w3.org/2000/svg">
<path d="M19.8734 22.2812H14.9859C13.6563 22.2812 12.5781 21.2031 12.5781 19.8734V13.2969C12.5781 12.9016 12.9016 12.5781 13.2969 12.5781H19.8734C21.2031 12.5781 22.2812 13.6563 22.2812 14.9859V19.8734C22.2812 21.2031 21.2031 22.2812 19.8734 22.2812ZM14.0156 14.0156V19.8734C14.0156 20.4125 14.4469 20.8438 14.9859 20.8438H19.8734C20.4125 20.8438 20.8438 20.4125 20.8438 19.8734V14.9859C20.8438 14.4469 20.4125 14.0156 19.8734 14.0156H14.0156Z" fill="#E8ECF4"/>
<path d="M8.01406 22.2812H3.12656C1.79687 22.2812 0.71875 21.2031 0.71875 19.8734V14.9859C0.71875 13.6563 1.79687 12.5781 3.12656 12.5781H9.70312C10.0984 12.5781 10.4219 12.9016 10.4219 13.2969V19.8734C10.4219 21.2031 9.34375 22.2812 8.01406 22.2812ZM3.12656 14.0156C2.5875 14.0156 2.15625 14.4469 2.15625 14.9859V19.8734C2.15625 20.4125 2.5875 20.8438 3.12656 20.8438H8.01406C8.55312 20.8438 8.98438 20.4125 8.98438 19.8734V14.0156H3.12656Z" fill="#E8ECF4"/>
<path d="M19.8734 10.4219H13.2969C12.9016 10.4219 12.5781 10.0984 12.5781 9.70312V3.12656C12.5781 1.79687 13.6563 0.71875 14.9859 0.71875H19.8734C21.2031 0.71875 22.2812 1.79687 22.2812 3.12656V8.01406C22.2812 9.34375 21.2031 10.4219 19.8734 10.4219ZM14.0156 8.98438H19.8734C20.4125 8.98438 20.8438 8.55312 20.8438 8.01406V3.12656C20.8438 2.5875 20.4125 2.15625 19.8734 2.15625H14.9859C14.4469 2.15625 14.0156 2.5875 14.0156 3.12656V8.98438Z" fill="#E8ECF4"/>
<path d="M9.70312 10.4219H3.12656C1.79687 10.4219 0.71875 9.34375 0.71875 8.01406V3.12656C0.71875 1.79687 1.79687 0.71875 3.12656 0.71875H8.01406C9.34375 0.71875 10.4219 1.79687 10.4219 3.12656V9.70312C10.4219 10.0984 10.0984 10.4219 9.70312 10.4219ZM3.12656 2.15625C2.5875 2.15625 2.15625 2.5875 2.15625 3.12656V8.01406C2.15625 8.55312 2.5875 8.98438 3.12656 8.98438H8.98438V3.12656C8.98438 2.5875 8.55312 2.15625 8.01406 2.15625H3.12656Z" fill="#E8ECF4"/>
</svg>
