<svg width="18" height="18" viewBox="0 0 18 18" fill="none" xmlns="http://www.w3.org/2000/svg">
<path d="M1.19026 13.3522L1.1993 13.322L1.18409 13.2944C0.43512 11.9366 0.0531573 10.4066 0.0759647 8.85574C0.0987721 7.30486 0.52556 5.7868 1.31413 4.45163C2.1027 3.11646 3.22574 2.01041 4.57223 1.24284C5.91872 0.475258 7.44202 0.0727212 8.99155 0.0750162L8.99181 0.0750157C10.3528 0.0724589 11.6963 0.381798 12.9194 0.979331C14.1426 1.57687 15.2128 2.44674 16.0481 3.52229C16.8834 4.59785 17.4617 5.85055 17.7386 7.18439C18.0154 8.51824 17.9836 9.89783 17.6454 11.2174C17.3073 12.5371 16.6718 13.7617 15.7877 14.7974C14.9036 15.8332 13.7944 16.6527 12.545 17.193C11.2956 17.7333 9.93924 17.9802 8.57981 17.9147C7.22038 17.8492 5.89396 17.473 4.7022 16.8151L4.67459 16.7998L4.64439 16.8089L1.0317 17.8937C1.03168 17.8937 1.03167 17.8937 1.03165 17.8937C0.962128 17.9144 0.890007 17.9249 0.817497 17.925C0.701829 17.925 0.587761 17.8979 0.484389 17.846C0.380984 17.794 0.291144 17.7185 0.222043 17.6256C0.152941 17.5327 0.106493 17.4249 0.0864112 17.3108C0.0663289 17.1967 0.0731696 17.0795 0.106386 16.9685L1.19026 13.3522ZM8.99157 16.4386H8.99161C10.6325 16.4399 12.2277 15.897 13.5277 14.8948C14.8278 13.8926 15.7595 12.4876 16.1775 10.8994C16.5954 9.31108 16.4759 7.62897 15.8376 6.11585C15.1994 4.60274 14.0784 3.34384 12.6497 2.53588C11.2211 1.72792 9.56527 1.41641 7.94102 1.65004C6.31677 1.88367 4.8156 2.64927 3.67206 3.82721C2.52852 5.00514 1.80703 6.52905 1.62031 8.16082C1.43358 9.79254 1.79211 11.4402 2.63988 12.8464C2.69276 12.9349 2.72667 13.0335 2.73945 13.1358C2.75224 13.2381 2.74359 13.3421 2.71406 13.4409L1.96533 15.9404L1.92536 16.0738L2.05877 16.0337L4.55512 15.2835L4.55535 15.2834C4.62422 15.2625 4.69584 15.252 4.76781 15.2523H4.76812C4.9039 15.2523 5.03713 15.2893 5.15355 15.3593C6.31022 16.0635 7.63769 16.4369 8.99157 16.4386Z" fill="#585C73" stroke="white" stroke-width="0.15"/>
</svg>
