<svg width="22" height="22" fill="none" xmlns="http://www.w3.org/2000/svg"><circle cx="10.793" cy="10.793" r="10.793" fill="#E8190C"/><g clip-path="url(#clip0_3025_660)"><path d="M10.79 15.698c-.05 0-.099-.014-.143-.04a17.18 17.18 0 01-2.36-1.767c-.69-.619-1.24-1.233-1.636-1.825-.513-.766-.77-1.502-.766-2.19.005-.799.28-1.55.775-2.116.503-.576 1.174-.892 1.89-.892.918 0 1.757.535 2.24 1.382.483-.847 1.323-1.382 2.24-1.382.677 0 1.322.286 1.818.805.544.57.853 1.374.848 2.207-.004.686-.267 1.422-.78 2.187-.398.591-.948 1.205-1.635 1.824a17.234 17.234 0 01-2.346 1.766.279.279 0 01-.145.04z" fill="#fff"/></g><defs><clipPath id="clip0_3025_660"><path fill="#fff" transform="translate(4.904 5.887)" d="M0 0h10.793v10.793H0z"/></clipPath></defs></svg>