<svg xmlns="http://www.w3.org/2000/svg" width="19.298" height="20.359" viewBox="0 0 19.298 20.359">
  <g id="Vector" transform="translate(0.1 -0.844)" fill="#585c73">
    <path d="M 10.38623428344727 21.15361595153809 C 10.06026458740234 21.15361595153809 9.765045166015625 21.01551628112793 9.55494499206543 20.76474571228027 C 9.079348564147949 20.19760704040527 9.144512176513672 19.16045188903809 9.197067260742188 18.72757720947266 C 8.575300216674805 17.01936721801758 7.085714817047119 13.55495834350586 5.868764877319336 12.59349536895752 C 5.842804908752441 12.5758752822876 5.820174694061279 12.55266571044922 5.798294544219971 12.53022575378418 C 5.480215549468994 12.18613529205322 5.213862419128418 11.78127574920654 5.0052170753479 11.3252649307251 C 4.759608745574951 11.45231914520264 4.494150638580322 11.51667499542236 4.215284824371338 11.51667499542236 L 1.709124803543091 11.51667499542236 C 0.7391447424888611 11.51667499542236 -0.04999525099992752 10.7075252532959 -0.04999525099992752 9.712944984436035 L -0.04999525099992752 2.862505435943604 C -0.04999525099992752 1.867935419082642 0.7391447424888611 1.058785319328308 1.709124803543091 1.058785319328308 L 4.215284824371338 1.058785319328308 C 4.575031280517578 1.058785319328308 4.920131206512451 1.168804526329041 5.214577198028564 1.377142429351807 L 6.1607346534729 1.261495351791382 C 6.181754589080811 1.258485317230225 8.476815223693848 0.947395384311676 11.0455846786499 0.947395384311676 C 11.24832439422607 0.947395384311676 11.44979476928711 0.9493953585624695 11.6444149017334 0.9533453583717346 C 12.15311431884766 0.9136853814125061 12.60459518432617 0.8943353891372681 13.01978492736816 0.8943353891372681 C 13.75958442687988 0.8943353891372681 14.40598487854004 0.9543253779411316 14.94101428985596 1.072625398635864 C 16.21281433105469 1.349825382232666 17.0824146270752 1.905715346336365 17.52551460266113 2.724825382232666 C 17.85552024841309 3.335094928741455 17.86616897583008 3.937796592712402 17.81383895874023 4.344293594360352 C 18.63289451599121 5.115481376647949 18.77192687988281 5.970339775085449 18.74351501464844 6.553615570068359 C 18.72637939453125 6.908510208129883 18.6478271484375 7.200387001037598 18.5812816619873 7.389884948730469 C 18.98091888427734 7.921381950378418 19.17092704772949 8.487936019897461 19.14610481262207 9.074265480041504 C 19.12156105041504 9.712743759155273 18.84955406188965 10.21494483947754 18.61861038208008 10.53001117706299 C 18.76931190490723 10.92960166931152 19.11664581298828 12.17566680908203 18.07448387145996 13.15144538879395 C 17.48216438293457 13.70569515228271 16.52407455444336 13.98671531677246 15.2267951965332 13.98671531677246 C 15.06977462768555 13.98671531677246 14.90554428100586 13.98253536224365 14.7386646270752 13.9742956161499 C 13.70184135437012 13.92574501037598 12.83015441894531 13.73500728607178 12.71348667144775 13.70859527587891 L 12.70663452148438 13.70793533325195 C 12.53210830688477 13.67570018768311 12.33914470672607 13.63569164276123 12.11830520629883 13.58592700958252 C 12.11259365081787 13.88409996032715 12.18211269378662 14.55781650543213 12.63184452056885 15.95787525177002 C 13.21269512176514 17.77150535583496 13.17446517944336 19.16213607788086 12.518235206604 20.09119606018066 C 11.8217945098877 21.07700538635254 10.71030521392822 21.15361595153809 10.38623428344727 21.15361595153809 Z M 6.645039081573486 11.64942073822021 C 8.450047492980957 13.12163162231445 10.19129085540771 17.91057205200195 10.38399505615234 18.45206451416016 C 10.41940498352051 18.54746627807617 10.42875480651855 18.65405464172363 10.41079521179199 18.7596549987793 C 10.34621334075928 19.19683647155762 10.36360454559326 19.73202896118164 10.44551849365234 19.92282676696777 C 10.6513500213623 19.91388320922852 11.20265865325928 19.84448623657227 11.53266429901123 19.37591552734375 C 11.94335460662842 18.79337501525879 11.92398452758789 17.74884605407715 11.47667503356934 16.35520553588867 C 10.77979469299316 14.1888256072998 10.7237548828125 13.0448055267334 11.2892951965332 12.52994537353516 C 11.49975490570068 12.33684539794922 11.73764514923096 12.29628562927246 11.90012454986572 12.29628562927246 C 12.01349353790283 12.29628562927246 12.12848377227783 12.31640434265137 12.23292636871338 12.35450839996338 C 12.50484466552734 12.41847610473633 12.73672294616699 12.46631717681885 12.9417142868042 12.50073528289795 C 12.95372486114502 12.50362491607666 12.96257495880127 12.50563526153564 12.97142505645752 12.50765514373779 C 12.98106479644775 12.50984573364258 12.99069499969482 12.51204490661621 12.9992847442627 12.514235496521 C 13.67367458343506 12.66524505615234 14.49227428436279 12.75560569763184 15.18759441375732 12.75560569763184 C 15.88452434539795 12.75560569763184 16.80952453613281 12.66753578186035 17.25842475891113 12.24792575836182 C 17.89295387268066 11.65308570861816 17.44280433654785 10.86007499694824 17.38938522338867 10.77161502838135 C 17.22673416137695 10.51895523071289 17.27161407470703 10.18361568450928 17.49686431884766 9.975465774536133 C 17.53930473327637 9.933475494384766 17.9179744720459 9.544915199279785 17.93686485290527 9.028105735778809 C 17.95279502868652 8.665715217590332 17.78457450866699 8.295064926147461 17.43690490722656 7.926065444946289 C 17.24839019775391 7.723275661468506 17.21492958068848 7.417695045471191 17.35483551025391 7.181619167327881 C 17.3560905456543 7.178904056549072 17.3575382232666 7.176032543182373 17.35915565490723 7.172825336456299 C 17.41936492919922 7.053335189819336 17.52273559570312 6.806785583496094 17.53844451904297 6.498085498809814 C 17.56625556945801 5.963985443115234 17.31289482116699 5.487415313720703 16.78542518615723 5.081545352935791 C 16.57398223876953 4.915443420410156 16.49134635925293 4.633299827575684 16.57897186279297 4.378523826599121 L 16.57997512817383 4.37483549118042 C 16.60600471496582 4.280885219573975 16.72315406799316 3.788955450057983 16.4721851348877 3.32903528213501 C 16.20281410217285 2.834165334701538 15.60303497314453 2.482315301895142 14.68947505950928 2.283225297927856 C 14.23888492584229 2.183585405349731 13.68150520324707 2.133075475692749 13.03268432617188 2.133075475692749 C 12.62908458709717 2.133075475692749 12.18376445770264 2.152705430984497 11.70908451080322 2.191425323486328 L 11.6475248336792 2.191595315933228 C 11.44982433319092 2.187195301055908 11.24547481536865 2.184965372085571 11.03906440734863 2.184965372085571 C 8.616284370422363 2.184965372085571 6.334814548492432 2.487355470657349 6.313734531402588 2.490405321121216 L 6.310164928436279 2.490925312042236 L 6.30649471282959 2.490935325622559 L 6.306484222412109 2.490804195404053 L 5.946632385253906 2.534649610519409 C 5.965076446533203 2.639604806900024 5.974404811859131 2.749631643295288 5.974404811859131 2.862505435943604 L 5.974404811859131 9.717175483703613 C 5.974404811859131 9.891570091247559 5.94879674911499 10.06759166717529 5.898258686065674 10.24061679840088 C 5.982105731964111 10.55546092987061 6.188573360443115 11.14401817321777 6.645039081573486 11.64942073822021 Z M 1.659124732017517 2.299254179000854 C 1.37929356098175 2.325328588485718 1.159284710884094 2.567985773086548 1.159284710884094 2.862505435943604 L 1.159284710884094 9.717175483703613 C 1.159284710884094 10.02897548675537 1.40594470500946 10.28263568878174 1.709124803543091 10.28263568878174 L 4.215284824371338 10.28263568878174 C 4.5184645652771 10.28263568878174 4.765124797821045 10.02897548675537 4.765124797821045 9.717175483703613 L 4.765124797821045 2.866725444793701 C 4.765124797821045 2.55486536026001 4.5184645652771 2.30115532875061 4.215284824371338 2.30115532875061 L 1.709124803543091 2.30115532875061 L 1.659124732017517 2.30115532875061 L 1.659124732017517 2.299254179000854 Z" stroke="none"/>
    <path d="M 13.01978492736816 0.9443359375 C 12.59248542785645 0.9443359375 12.13231468200684 0.9654445648193359 11.64340496063232 1.003335952758789 C 8.944134712219238 0.9485683441162109 6.314715385437012 1.290016174316406 6.166804313659668 1.311124801635742 L 5.201314926147461 1.429136276245117 C 4.921944618225098 1.226785659790039 4.580934524536133 1.108785629272461 4.21528434753418 1.108785629272461 L 1.709125518798828 1.108785629272461 C 0.7682838439941406 1.108785629272461 -5.7220458984375e-06 1.892915725708008 -5.7220458984375e-06 2.862504959106445 L -5.7220458984375e-06 9.712944984436035 C -5.7220458984375e-06 10.67831516265869 0.7641754150390625 11.46667575836182 1.709125518798828 11.46667575836182 L 4.21528434753418 11.46667575836182 C 4.51109504699707 11.46667575836182 4.786364555358887 11.39078521728516 5.028764724731445 11.25588512420654 C 5.201314926147461 11.64368534088135 5.456045150756836 12.08632564544678 5.834024429321289 12.4952449798584 C 5.854575157165527 12.51632499694824 5.875104904174805 12.53739547729492 5.899765014648438 12.55426502227783 C 7.185705184936523 13.57023525238037 8.705844879150391 17.22942543029785 9.248154640197754 18.72176551818848 C 9.190645217895508 19.18549537658691 9.137234687805176 20.18881607055664 9.59327507019043 20.73263549804688 C 9.794594764709473 20.97292518615723 10.07804489135742 21.10361480712891 10.38623428344727 21.10361480712891 C 10.70668506622314 21.10361480712891 11.79538536071777 21.02772521972656 12.47739410400391 20.06234550476074 C 13.12653541564941 19.14333534240723 13.15940475463867 17.76903533935547 12.58424472808838 15.97316551208496 C 12.09944534301758 14.46395492553711 12.05421447753906 13.79366493225098 12.07070541381836 13.52386569976807 C 12.29254531860352 13.57445526123047 12.5102653503418 13.62082576751709 12.7157154083252 13.65876579284668 L 12.71983528137207 13.65876579284668 C 12.75683498382568 13.66719532012939 13.66067504882812 13.87376499176025 14.74113464355469 13.92435550689697 C 16.27774620056152 14.00023365020752 17.38705444335938 13.72621536254883 18.04031562805176 13.11494541168213 C 18.93179512023926 12.28024578094482 18.82907485961914 11.20522499084473 18.56209564208984 10.52231502532959 C 18.79217529296875 10.21452522277832 19.07151412963867 9.712944984436035 19.09614562988281 9.072154998779297 C 19.12076568603516 8.490355491638184 18.92767524719238 7.925455093383789 18.52510452270508 7.398545265197754 C 18.60310554504395 7.183535575866699 18.67708396911621 6.892635345458984 18.69357490539551 6.551185607910156 C 18.72232437133789 5.960945129394531 18.5784854888916 5.122024536132812 17.7608757019043 4.363225936889648 C 17.81435394287109 3.975435256958008 17.81435394287109 3.364086151123047 17.48153495788574 2.748615264892578 C 17.04599380493164 1.943475723266602 16.18737411499023 1.395456314086914 14.93021488189697 1.121444702148438 C 14.39606475830078 1.003335952758789 13.75516510009766 0.9443359375 13.01978492736816 0.9443359375 M 15.18759059906006 12.8056058883667 C 14.40525341033936 12.8056058883667 13.58414840698242 12.69643306732178 12.98691463470459 12.56268501281738 C 12.97042465209961 12.55847549438477 12.94992446899414 12.55426502227783 12.93343544006348 12.55004501342773 C 12.70747470855713 12.51210498809814 12.4692554473877 12.46151542663574 12.21856498718262 12.40249538421631 C 11.95560359954834 12.30553531646729 11.59404563903809 12.31818580627441 11.32295417785645 12.56691551208496 C 10.77654457092285 13.06436538696289 10.83403491973877 14.19415473937988 11.52428436279297 16.33992576599121 C 11.97621536254883 17.74795532226562 11.99259471893311 18.81030464172363 11.57354545593262 19.40470504760742 C 11.22022438049316 19.90636444091797 10.63270473480225 19.9696044921875 10.41498470306396 19.97381591796875 C 10.31637477874756 19.80097579956055 10.29174518585205 19.22342491149902 10.36150455474854 18.75127601623535 C 10.37799453735352 18.65431594848633 10.36974430084229 18.5573558807373 10.33687496185303 18.46882629394531 C 10.25887489318848 18.24961471557617 8.455224990844727 13.18660545349121 6.610525131225586 11.68579578399658 C 6.125724792480469 11.15044498443604 5.920294761657715 10.52231502532959 5.846344947814941 10.23985576629639 C 5.895654678344727 10.07541561126709 5.924405097961426 9.898405075073242 5.924405097961426 9.717175483703613 L 5.924405097961426 2.862504959106445 C 5.924405097961426 2.735956192016602 5.912084579467773 2.609504699707031 5.887434959411621 2.491495132446289 L 6.30649471282959 2.440935134887695 C 6.335264205932617 2.436716079711914 9.005770683288574 2.082597732543945 11.6475248336792 2.141595840454102 C 11.66802406311035 2.141595840454102 11.68863487243652 2.141595840454102 11.70501518249512 2.141595840454102 C 12.94580459594727 2.040370941162109 13.95650482177734 2.069923400878906 14.70012474060059 2.234375 C 15.62860488891602 2.436716079711914 16.24075508117676 2.799274444580078 16.51607513427734 3.305086135864258 C 16.80364418029785 3.832096099853516 16.62694549560547 4.388555526733398 16.62694549560547 4.39277458190918 C 16.54481506347656 4.628795623779297 16.6228141784668 4.890235900878906 16.81591415405273 5.041915893554688 C 17.35830497741699 5.459264755249023 17.61713409423828 5.948274612426758 17.5883846282959 6.500625610351562 C 17.56778526306152 6.905304908752441 17.39931488037109 7.200425148010254 17.39931488037109 7.204645156860352 C 17.26793479919434 7.423775672912598 17.30080413818359 7.706225395202637 17.47329521179199 7.891775131225586 C 17.83073425292969 8.271135330200195 18.00332450866699 8.654805183410645 17.98683547973633 9.029935836791992 C 17.96633529663086 9.590615272521973 17.53491401672363 10.00796508789062 17.53079414367676 10.01218509674072 C 17.32543563842773 10.20196533203125 17.28020477294922 10.50964546203613 17.43218421936035 10.74576568603516 C 17.48565483093262 10.83431529998779 17.95808410644531 11.66056537628174 17.29256439208984 12.28445529937744 C 16.87940788269043 12.67065143585205 16.05745887756348 12.8056058883667 15.18759059906006 12.8056058883667 M 4.21528434753418 10.33263492584229 L 1.709125518798828 10.33263492584229 C 1.38044548034668 10.33263492584229 1.109285354614258 10.05862522125244 1.109285354614258 9.717175483703613 L 1.109285354614258 2.862504959106445 C 1.109285354614258 2.525165557861328 1.376344680786133 2.24693489074707 1.709125518798828 2.24693489074707 L 1.709125518798828 2.251155853271484 L 4.21528434753418 2.251155853271484 C 4.543964385986328 2.251155853271484 4.81512451171875 2.525165557861328 4.81512451171875 2.866725921630859 L 4.81512451171875 9.717175483703613 C 4.81512451171875 10.05440521240234 4.548074722290039 10.33263492584229 4.21528434753418 10.33263492584229 M 13.01978492736816 0.8443355560302734 C 13.76321411132812 0.8443355560302734 14.41323471069336 0.9047145843505859 14.95180511474609 1.023805618286133 C 16.23833465576172 1.304214477539062 17.11915397644043 1.868535995483398 17.56949424743652 2.701034545898438 C 17.89901161193848 3.310396194458008 17.9161319732666 3.912012100219727 17.86657333374023 4.325382232666016 C 18.68319129943848 5.105035781860352 18.82216835021973 5.966632843017578 18.79345512390137 6.556055068969727 C 18.77677726745605 6.901435852050781 18.70284652709961 7.18824577331543 18.63718795776367 7.38121223449707 C 19.03304862976074 7.915993690490723 19.22103881835938 8.486042976379395 19.19605445861816 9.076385498046875 C 19.17160224914551 9.712657928466797 18.9063549041748 10.21579551696777 18.6747989654541 10.53772449493408 C 18.83264923095703 10.97047996520996 19.15205764770508 12.21100234985352 18.10866546630859 13.18794536590576 C 17.43425178527832 13.81899642944336 16.29604339599609 14.10125350952148 14.73620414733887 14.02423572540283 C 13.7055549621582 13.97598075866699 12.83696556091309 13.78766345977783 12.7061071395874 13.75818729400635 L 12.69755458831787 13.75710582733154 C 12.53861427307129 13.72775459289551 12.36450290679932 13.69198894500732 12.16816329956055 13.64832878112793 C 12.17292213439941 13.96951675415039 12.26019859313965 14.63740348815918 12.6794548034668 15.94258499145508 C 13.26535415649414 17.77200508117676 13.22484493255615 19.17747497558594 12.55907440185547 20.12003517150879 C 11.84876441955566 21.12547492980957 10.71637439727783 21.20361518859863 10.38623428344727 21.20361518859863 C 10.04521465301514 21.20361518859863 9.736384391784668 21.05915451049805 9.516624450683594 20.79685592651367 C 9.032865524291992 20.21997833251953 9.092959403991699 19.17979621887207 9.145998001098633 18.73347854614258 C 8.523880004882812 17.02703094482422 7.045186042785645 13.58944511413574 5.840100288391113 12.63457584381104 C 5.808798789978027 12.61262512207031 5.784247398376465 12.58743953704834 5.762495040893555 12.56512546539307 C 5.450905799865723 12.22808361053467 5.189022064208984 11.8347339630127 4.98150634765625 11.39298152923584 C 4.741909980773926 11.50829219818115 4.484658241271973 11.56667518615723 4.21528434753418 11.56667518615723 L 1.709125518798828 11.56667518615723 C 0.7115650177001953 11.56667518615723 -0.100006103515625 10.73509502410889 -0.100006103515625 9.712944984436035 L -0.100006103515625 2.862504959106445 C -0.100006103515625 1.840364456176758 0.7115650177001953 1.008785247802734 1.709125518798828 1.008785247802734 L 4.21528434753418 1.008785247802734 C 4.579009056091309 1.008785247802734 4.928108215332031 1.118045806884766 5.227543830871582 1.325187683105469 L 6.154674530029297 1.211864471435547 C 6.174724578857422 1.208986282348633 8.472945213317871 0.8973960876464844 11.0455846786499 0.8973960876464844 C 11.2470874786377 0.8973960876464844 11.44721603393555 0.8993721008300781 11.64056396484375 0.9032573699951172 C 12.15341567993164 0.8636131286621094 12.60461616516113 0.8443355560302734 13.01978492736816 0.8443355560302734 Z M 16.53117561340332 4.363744735717773 L 16.53179550170898 4.361484527587891 C 16.55691528320312 4.270795822143555 16.67001533508301 3.795974731445312 16.42829513549805 3.352985382080078 C 16.1661548614502 2.871395111083984 15.57756423950195 2.527935028076172 14.67883491516113 2.332084655761719 C 14.23165512084961 2.233184814453125 13.6779146194458 2.183074951171875 13.03268432617188 2.183074951171875 C 12.63030433654785 2.183074951171875 12.18645477294922 2.202655792236328 11.71314430236816 2.241266250610352 L 11.70501518249512 2.241596221923828 L 11.6475248336792 2.241596221923828 C 11.44888496398926 2.237184524536133 11.24492454528809 2.234966278076172 11.03906440734863 2.234966278076172 C 8.615015029907227 2.234966278076172 6.34227466583252 2.536855697631836 6.320844650268555 2.539905548095703 L 6.308587074279785 2.540924072265625 L 6.004234313964844 2.578006744384766 C 6.017635345458984 2.669937133789062 6.024404525756836 2.765216827392578 6.024404525756836 2.862504959106445 L 6.024404525756836 9.717175483703613 C 6.024404525756836 9.891759872436523 5.999434471130371 10.06788539886475 5.950161933898926 10.24109840393066 C 6.03488826751709 10.55395793914795 6.238254547119141 11.12311363220215 6.679606437683105 11.61309623718262 C 8.494396209716797 13.09698677062988 10.23804664611816 17.89279174804688 10.43108463287354 18.43530464172363 C 10.46933460235596 18.53827476501465 10.47952461242676 18.65378570556641 10.46008491516113 18.76804542541504 C 10.39590072631836 19.20260238647461 10.41774559020996 19.67936706542969 10.47950172424316 19.87084770202637 C 10.70059299468994 19.85568046569824 11.1921558380127 19.77255630493164 11.49178504943848 19.34712600708008 C 11.89309501647949 18.77789497375488 11.87139511108398 17.74859619140625 11.42906475067139 16.37048530578613 C 10.7252950668335 14.18266487121582 10.673415184021 13.02301502227783 11.25563430786133 12.49296569824219 C 11.4777946472168 12.28914546966553 11.7287540435791 12.24629497528076 11.90011405944824 12.2462854385376 C 12.01821899414062 12.24627590179443 12.13810539245605 12.26708889007568 12.24725151062012 12.30651187896729 C 12.51686859130859 12.3698902130127 12.74679374694824 12.41730880737305 12.94999504089355 12.45142555236816 L 12.95822525024414 12.45316505432129 C 12.9657154083252 12.45508575439453 12.97413444519043 12.45698547363281 12.98253440856934 12.45890522003174 C 12.99260520935059 12.46119499206543 13.0026741027832 12.4634952545166 13.0116548538208 12.46579551696777 C 13.68121528625488 12.61569499969482 14.49573516845703 12.70560550689697 15.18759441375732 12.70560550689697 C 16.17412567138672 12.70560550689697 16.87839508056641 12.53471565246582 17.22427558898926 12.21140575408936 C 17.83006477355957 11.64350509643555 17.39785385131836 10.88237571716309 17.34658432006836 10.79745578765869 C 17.17184448242188 10.52606296539307 17.21965599060059 10.16472434997559 17.46159934997559 9.939973831176758 C 17.4988956451416 9.902441024780273 17.86890411376953 9.518444061279297 17.88690567016602 9.026285171508789 C 17.90222549438477 8.677525520324707 17.73857498168945 8.319145202636719 17.40051460266113 7.960355758666992 C 17.1972713470459 7.741728782653809 17.16086769104004 7.412814140319824 17.31067848205566 7.158054351806641 C 17.31195068359375 7.1553955078125 17.31324195861816 7.152831077575684 17.31450462341309 7.150325775146484 C 17.37294387817383 7.034355163574219 17.47326469421387 6.795075416564941 17.4885139465332 6.495545387268066 C 17.51541519165039 5.978784561157227 17.26859474182129 5.516414642333984 16.75493431091309 5.121166229248047 C 16.52675819396973 4.941940307617188 16.43745613098145 4.638261795043945 16.53117561340332 4.363744735717773 Z M 4.21528434753418 10.23263549804688 C 4.490894317626953 10.23263549804688 4.71512508392334 10.00140571594238 4.71512508392334 9.717175483703613 L 4.71512508392334 2.866725921630859 C 4.71512508392334 2.582435607910156 4.490894317626953 2.351156234741211 4.21528434753418 2.351156234741211 L 1.645025253295898 2.351156234741211 C 1.399580001831055 2.383710861206055 1.209283828735352 2.600616455078125 1.209283828735352 2.862504959106445 L 1.209283828735352 9.717175483703613 C 1.209283828735352 10.00140571594238 1.433515548706055 10.23263549804688 1.709125518798828 10.23263549804688 L 4.21528434753418 10.23263549804688 Z" stroke="none" fill="#585c73"/>
  </g>
</svg>
