<svg width="17" height="16" fill="none" xmlns="http://www.w3.org/2000/svg"><path d="M8.5 0c.086 0 .172.024.249.073a29.869 29.869 0 014.088 3.2c1.195 1.122 2.15 2.235 2.835 3.307.889 1.388 1.335 2.723 1.328 3.968-.009 1.448-.485 2.81-1.343 3.836C14.786 15.426 13.622 16 12.381 16c-1.59 0-3.044-.97-3.881-2.505C7.663 15.03 6.21 16 4.619 16c-1.172 0-2.291-.518-3.15-1.458C.527 13.51-.009 12.052 0 10.54.007 9.298.462 7.965 1.352 6.58c.689-1.072 1.641-2.184 2.832-3.306A29.992 29.992 0 018.25.074.468.468 0 018.5 0z" fill="#0A0D28"/></svg>