<svg width="20" height="20" viewBox="0 0 20 20" fill="none" xmlns="http://www.w3.org/2000/svg">
<path d="M7.49935 18.3332C7.95959 18.3332 8.33268 17.9601 8.33268 17.4998C8.33268 17.0396 7.95959 16.6665 7.49935 16.6665C7.03911 16.6665 6.66602 17.0396 6.66602 17.4998C6.66602 17.9601 7.03911 18.3332 7.49935 18.3332Z" stroke="#69768F" stroke-width="1.5" stroke-linecap="round" stroke-linejoin="round"/>
<path d="M16.6673 18.3332C17.1276 18.3332 17.5007 17.9601 17.5007 17.4998C17.5007 17.0396 17.1276 16.6665 16.6673 16.6665C16.2071 16.6665 15.834 17.0396 15.834 17.4998C15.834 17.9601 16.2071 18.3332 16.6673 18.3332Z" stroke="#69768F" stroke-width="1.5" stroke-linecap="round" stroke-linejoin="round"/>
<path d="M0.833984 0.833496H4.16732L6.40065 11.9918C6.47685 12.3755 6.68557 12.7201 6.99027 12.9654C7.29497 13.2107 7.67623 13.341 8.06732 13.3335H16.1673C16.5584 13.341 16.9397 13.2107 17.2444 12.9654C17.5491 12.7201 17.7578 12.3755 17.834 11.9918L19.1673 5.00016H5.00065" stroke="#69768F" stroke-width="1.5" stroke-linecap="round" stroke-linejoin="round"/>
</svg>
