<svg width="55" height="55" fill="none" xmlns="http://www.w3.org/2000/svg"><path d="M45.26 53.962H9.737a5.371 5.371 0 01-5.37-5.37V13.07a5.371 5.371 0 015.37-5.37H45.26a5.371 5.371 0 015.371 5.37v35.521a5.37 5.37 0 01-5.37 5.371z" fill="#F6F7F9"/><path d="M12.96 53.963H9.739a5.373 5.373 0 01-5.37-5.371V13.07a5.373 5.373 0 015.37-5.371h3.223a5.373 5.373 0 00-5.371 5.37v35.523a5.373 5.373 0 005.37 5.371z" fill="#fff"/><path d="M50.633 13.07v35.522a5.373 5.373 0 01-5.371 5.371h-3.223a5.373 5.373 0 005.371-5.37V13.07a5.373 5.373 0 00-5.37-5.371h3.222a5.373 5.373 0 015.37 5.37z" fill="#E3E8F2"/><path d="M14.125 14.36a2.148 2.148 0 01-2.148-2.15V3.188a2.148 2.148 0 114.296 0v9.024a2.148 2.148 0 01-2.148 2.148zM40.873 14.36a2.148 2.148 0 01-2.148-2.15V3.188a2.148 2.148 0 114.297 0v9.024a2.148 2.148 0 01-2.149 2.148z" fill="#fff"/><path d="M29.304 20.161l2.24 4.539c.293.594.86 1.006 1.515 1.1l5.009.729c1.651.24 2.31 2.268 1.116 3.433l-3.625 3.533a2.013 2.013 0 00-.579 1.782l.856 4.988c.282 1.645-1.444 2.898-2.921 2.122l-4.48-2.355a2.013 2.013 0 00-1.873 0l-4.48 2.355c-1.477.777-3.203-.477-2.92-2.122l.855-4.988a2.013 2.013 0 00-.58-1.782l-3.624-3.533c-1.195-1.164-.535-3.193 1.116-3.433l5.008-.728a2.012 2.012 0 001.516-1.101l2.24-4.539c.74-1.496 2.872-1.496 3.61 0z" fill="#045AFD"/><path d="M29.11 19.848c-.073.097-.138.2-.194.314l-2.24 4.537a2.012 2.012 0 01-1.515 1.102l-5.01.727c-1.65.24-2.31 2.268-1.115 3.433l3.624 3.534c.475.462.692 1.128.58 1.781l-.857 4.989a1.982 1.982 0 00.5 1.701l-.8.422c-1.479.775-3.204-.48-2.923-2.123l.857-4.989a2.011 2.011 0 00-.58-1.78l-3.624-3.535c-1.195-1.165-.535-3.193 1.115-3.433l5.01-.726a2.012 2.012 0 001.515-1.103l2.24-4.537c.684-1.384 2.557-1.489 3.417-.314z" fill="#045AFD"/><path d="M35.56 33.495a2.011 2.011 0 00-.58 1.781l.858 4.989c.282 1.643-1.444 2.898-2.922 2.123l-.801-.422c.397-.43.614-1.033.5-1.701l-.857-4.989a2.011 2.011 0 01.58-1.78l3.625-3.535c1.194-1.165.535-3.193-1.115-3.433l-5.01-.726a2.012 2.012 0 01-1.515-1.103l-2.241-4.537a1.917 1.917 0 00-.193-.314c.859-1.175 2.733-1.07 3.416.314l2.24 4.537c.293.595.86 1.006 1.515 1.102l5.01.727c1.65.24 2.31 2.268 1.115 3.433l-3.624 3.534z" fill="#045AFD"/><path d="M45.26 6.84h-1.379V3.187A3.011 3.011 0 0040.873.18a3.011 3.011 0 00-3.007 3.007V6.84H17.133V3.188A3.011 3.011 0 0014.125.18a3.011 3.011 0 00-3.007 3.007V6.84h-1.38a6.238 6.238 0 00-6.23 6.23v35.52a6.238 6.238 0 006.23 6.23h35.523a6.238 6.238 0 006.23-6.23V13.07a6.238 6.238 0 00-6.23-6.23zm-5.676-3.652a1.29 1.29 0 012.578 0v9.023a1.29 1.29 0 01-2.578 0V3.187zm-26.748 0a1.29 1.29 0 012.578 0v9.023a1.29 1.29 0 01-1.289 1.289 1.29 1.29 0 01-1.289-1.29V3.188zM49.772 48.59a4.517 4.517 0 01-4.511 4.512H9.737a4.517 4.517 0 01-4.511-4.512V13.07a4.517 4.517 0 014.511-4.512h1.38v3.653a3.011 3.011 0 003.007 3.008 3.011 3.011 0 003.008-3.008V8.558h20.733v3.653a3.011 3.011 0 003.007 3.008 3.011 3.011 0 003.008-3.008V8.558h1.38a4.517 4.517 0 014.511 4.512v35.52z" fill="#1E335B"/><path d="M35.827 35.131c-.064-.374.06-.756.332-1.02l3.624-3.534c1.704-1.661.763-4.557-1.592-4.9l-5.008-.727c-.376-.055-.7-.29-.869-.631l-2.24-4.538c-1.053-2.135-4.098-2.134-5.151 0l-2.24 4.538c-.168.34-.493.577-.869.631l-5.009.728c-2.355.343-3.295 3.24-1.591 4.9l3.624 3.533c.272.264.396.646.332 1.02l-.856 4.989c-.402 2.345 2.061 4.135 4.168 3.028l4.48-2.355a1.154 1.154 0 011.073 0l4.48 2.355c2.103 1.105 4.57-.683 4.168-3.028l-.856-4.989zm-2.512 6.495l-4.48-2.355a2.871 2.871 0 00-2.673 0l-4.48 2.355a1.152 1.152 0 01-1.674-1.216l.856-4.988a2.872 2.872 0 00-.827-2.543l-3.624-3.533a1.152 1.152 0 01.64-1.967l5.008-.728a2.872 2.872 0 002.163-1.571l2.24-4.539a1.152 1.152 0 012.069 0l2.24 4.539a2.873 2.873 0 002.162 1.571l5.009.728a1.153 1.153 0 01.64 1.967l-3.625 3.533a2.872 2.872 0 00-.826 2.543l.855 4.988a1.152 1.152 0 01-1.673 1.216z" fill="#1E335B"/><path d="M30.481 28.603l-4.009 3.885-1.051-1.188a.86.86 0 00-1.287 1.139L25.78 34.3a.86.86 0 001.242.047l4.655-4.511a.86.86 0 00-1.197-1.234z" fill="#fff"/><path d="M44.29 47.267h-6.446a.86.86 0 000 1.718h6.445a.86.86 0 000-1.718zM34.621 47.267h-1.459a.86.86 0 000 1.718h1.46a.86.86 0 000-1.718z" fill="#1E335B"/></svg>