<svg width="12" height="21" fill="none" xmlns="http://www.w3.org/2000/svg"><path d="M3.704 11.792H1.318c-.375 0-.509-.141-.509-.535V8.225c0-.389.142-.537.512-.537h2.383v-2.2c0-.994.17-1.945.655-2.816A4.022 4.022 0 016.502.817 5.107 5.107 0 018.34.5c.786 0 1.573 0 2.36.002.338 0 .488.156.489.51v2.853c0 .358-.144.502-.49.506-.645.008-1.29.003-1.935.03-.65 0-.993.331-.993 1.033-.015.742-.006 1.484-.006 2.253h2.778c.393 0 .527.141.527.553v3.016c0 .406-.127.535-.522.535h-2.79v8.137c0 .434-.132.572-.543.572H4.21c-.363 0-.505-.147-.505-.525v-8.183z" fill="#3D6AD6"/></svg>