<svg width="22" height="21" viewBox="0 0 22 21" fill="none" xmlns="http://www.w3.org/2000/svg">
<path d="M18.8375 1.42031C17.5863 0.381218 15.9743 -0.119546 14.3546 0.0277416C12.735 0.175029 11.2397 0.958357 10.1966 2.20608L1.05621 13.1742C0.684999 13.6124 0.404213 14.1198 0.230049 14.6671C0.0558854 15.2143 -0.00820926 15.7906 0.0414616 16.3628C0.0911326 16.9349 0.253586 17.4916 0.519453 18.0006C0.78532 18.5097 1.14934 18.9611 1.59052 19.3287C2.03169 19.6964 2.5413 19.9731 3.08994 20.1429C3.63858 20.3126 4.21539 20.3721 4.78712 20.3178C5.35885 20.2635 5.91418 20.0966 6.42108 19.8266C6.92798 19.5567 7.37641 19.189 7.74052 18.7449L16.3101 8.46172C16.739 7.93608 16.9448 7.26328 16.8833 6.58765C16.8219 5.91203 16.4981 5.28739 15.9814 4.84773C15.4522 4.42755 14.7816 4.22728 14.1086 4.28847C13.4357 4.34967 12.8122 4.66763 12.3674 5.17637L4.36944 14.7745C4.24862 14.9346 4.19399 15.135 4.21685 15.3342C4.23971 15.5335 4.33831 15.7163 4.49224 15.8448C4.64617 15.9734 4.84364 16.0378 5.04377 16.0248C5.24389 16.0117 5.43134 15.9222 5.5673 15.7748L13.5685 6.17719C13.742 5.97768 13.9858 5.85293 14.2491 5.82899C14.5124 5.80504 14.7748 5.88376 14.9814 6.0487C15.183 6.22086 15.3093 6.46501 15.3333 6.729C15.3573 6.993 15.2771 7.25592 15.1099 7.46162L6.54033 17.7448C6.06686 18.3129 5.38711 18.6696 4.65062 18.7365C3.91412 18.8034 3.18122 18.575 2.61314 18.1015C2.04506 17.6281 1.68833 16.9483 1.62142 16.2118C1.55452 15.4753 1.78293 14.7424 2.25641 14.1743L11.3968 3.20619C12.179 2.29367 13.289 1.72575 14.4866 1.62526C15.6843 1.52477 16.8734 1.89978 17.7968 2.66919C18.7201 3.4386 19.3035 4.54056 19.4207 5.73673C19.5379 6.93289 19.1795 8.12712 18.423 9.06111L9.85426 19.3442C9.72588 19.5039 9.66533 19.7075 9.68566 19.9114C9.70598 20.1152 9.80555 20.3029 9.96292 20.434C10.1203 20.5652 10.3229 20.6293 10.527 20.6125C10.7312 20.5957 10.9206 20.4994 11.0545 20.3443L19.6233 10.062C20.6632 8.81106 21.1645 7.19872 21.0172 5.57866C20.8699 3.95861 20.086 2.46314 18.8375 1.42031Z" fill="#9498AB"/>
</svg>
