<svg width="13" height="19" viewBox="0 0 13 19" fill="none" xmlns="http://www.w3.org/2000/svg">
<path d="M4.61053 18.9549C4.86187 19.0623 5.15411 18.9726 5.30091 18.7407L11.9806 8.12746C12.0888 7.95568 12.0953 7.73878 11.9974 7.56158C11.8996 7.38383 11.7126 7.27346 11.5098 7.27346H7.05181L8.70978 0.693639C8.77665 0.427824 8.64127 0.153289 8.3896 0.0451152C8.13955 -0.062502 7.84546 0.0277109 7.69921 0.259273L1.01953 10.8726C0.911354 11.0443 0.904823 11.2612 1.00268 11.4384C1.10054 11.6162 1.28753 11.7266 1.4903 11.7266H5.94832L4.29035 18.3064C4.22348 18.5722 4.35881 18.8467 4.61053 18.9549Z" fill="#24C046"/>
</svg>
