<svg width="21" height="21" viewBox="0 0 21 21" fill="none" xmlns="http://www.w3.org/2000/svg">
<path d="M1.59063 19.3594V19.4094H1.64062H7.38281C7.80826 19.4094 8.15312 19.7542 8.15312 20.1797C8.15312 20.6051 7.80826 20.95 7.38281 20.95H0.820312C0.394868 20.95 0.05 20.6051 0.05 20.1797V13.6172C0.05 13.1917 0.394868 12.8469 0.820312 12.8469C1.24576 12.8469 1.59063 13.1917 1.59063 13.6172V19.3594Z" fill="#E8ECF4" stroke="#0A0D28" stroke-width="0.1"/>
<path d="M1.64062 1.59063H1.59063V1.64062V7.38281C1.59063 7.80826 1.24576 8.15312 0.820312 8.15312C0.394868 8.15312 0.05 7.80826 0.05 7.38281V0.820312C0.05 0.394868 0.394868 0.05 0.820312 0.05H7.38281C7.80826 0.05 8.15312 0.394868 8.15312 0.820312C8.15312 1.24576 7.80826 1.59063 7.38281 1.59063H1.64062Z" fill="#E8ECF4" stroke="#0A0D28" stroke-width="0.1"/>
<path d="M19.3594 19.4094H19.4094V19.3594V13.6172C19.4094 13.1917 19.7542 12.8469 20.1797 12.8469C20.6051 12.8469 20.95 13.1917 20.95 13.6172V20.1797C20.95 20.6051 20.6051 20.95 20.1797 20.95H13.6172C13.1917 20.95 12.8469 20.6051 12.8469 20.1797C12.8469 19.7542 13.1917 19.4094 13.6172 19.4094H19.3594Z" fill="#E8ECF4" stroke="#0A0D28" stroke-width="0.1"/>
<path d="M19.4094 1.64062V1.59063H19.3594H13.6172C13.1917 1.59063 12.8469 1.24576 12.8469 0.820312C12.8469 0.394868 13.1917 0.05 13.6172 0.05H20.1797C20.6051 0.05 20.95 0.394868 20.95 0.820312V7.38281C20.95 7.80826 20.6051 8.15312 20.1797 8.15312C19.7542 8.15312 19.4094 7.80826 19.4094 7.38281V1.64062Z" fill="#E8ECF4" stroke="#0A0D28" stroke-width="0.1"/>
</svg>
