<svg width="23" height="23" fill="none" xmlns="http://www.w3.org/2000/svg"><path d="M5.097 13.9l-.8 2.988-2.926.062A11.449 11.449 0 010 11.5c0-1.907.464-3.705 1.286-5.289l2.606.478 1.14 2.59a6.836 6.836 0 00-.368 2.221c0 .844.153 1.653.433 2.4z" fill="#FBBB00"/><path d="M22.798 9.352a11.522 11.522 0 01-.05 4.55 11.498 11.498 0 01-4.05 6.566l-3.281-.168-.465-2.899a6.853 6.853 0 002.95-3.5h-6.15V9.352h11.046z" fill="#518EF8"/><path d="M18.698 20.468a11.452 11.452 0 01-7.2 2.532C7.12 23 3.313 20.552 1.37 16.95l3.727-3.05a6.838 6.838 0 009.856 3.501l3.746 3.067z" fill="#28B446"/><path d="M18.84 2.648l-3.726 3.05a6.84 6.84 0 00-10.082 3.58L1.286 6.211A11.498 11.498 0 0111.498 0c2.79 0 5.35.994 7.34 2.648z" fill="#F14336"/></svg>