<svg xmlns="http://www.w3.org/2000/svg" width="19.2" height="20.256" viewBox="0 0 19.2 20.256">
  <g id="Vector" transform="translate(0.1 -0.844)" fill="#585c73">
    <path d="M 12.95279979705811 21.04989814758301 C 12.53971004486084 21.04989814758301 12.09055042266846 21.03064918518066 11.57964038848877 20.99104881286621 C 11.39089012145996 20.99511909484863 11.19044017791748 20.99710845947266 10.98872947692871 20.99710845947266 C 8.433300018310547 20.99710845947266 6.149919986724854 20.68761825561523 6.1280198097229 20.68449783325195 L 5.187820911407471 20.5695915222168 C 4.894840240478516 20.7768611907959 4.551517486572266 20.88629913330078 4.193600177764893 20.88629913330078 L 1.700329899787903 20.88629913330078 C 0.7351899743080139 20.88629913330078 -0.05000004917383194 20.08119773864746 -0.05000004917383194 19.09159851074219 L -0.05000004917383194 12.27639865875244 C -0.05000004917383194 11.28679847717285 0.7351899743080139 10.48169803619385 1.700329899787903 10.48169803619385 L 4.193600177764893 10.48169803619385 C 4.470976829528809 10.48169803619385 4.735025405883789 10.54569625854492 4.979342937469482 10.67202568054199 C 5.18693208694458 10.218430519104 5.451858043670654 9.815732955932617 5.767290115356445 9.474478721618652 C 5.790060043334961 9.451098442077637 5.812580108642578 9.427998542785645 5.841179847717285 9.408428192138672 C 7.049059867858887 8.45398998260498 8.530927658081055 5.007526397705078 9.149492263793945 3.30811619758606 C 9.097195625305176 2.877440214157104 9.03236198425293 1.845613837242126 9.505609512329102 1.281278371810913 C 9.71465015411377 1.031768321990967 10.00841999053955 0.8943383693695068 10.33279991149902 0.8943383693695068 C 10.65522956848145 0.8943383693695068 11.7611198425293 0.9705683588981628 12.45403957366943 1.951398372650146 C 13.10694026947021 2.875738382339478 13.14498996734619 4.259298324584961 12.56711959838867 6.063638210296631 C 12.11984729766846 7.456024646759033 12.05058288574219 8.126254081726074 12.05620765686035 8.423025131225586 C 12.27573013305664 8.373561859130859 12.46763134002686 8.333770751953125 12.64122009277344 8.301708221435547 L 12.64571952819824 8.300878524780273 L 12.64881134033203 8.300878524780273 C 12.76969146728516 8.27357006072998 13.63507270812988 8.084839820861816 14.66296005249023 8.036708831787109 C 14.82884979248047 8.028518676757812 14.9922399520874 8.024368286132812 15.14846992492676 8.024368286132812 C 16.43913078308105 8.024368286132812 17.39234924316406 8.30396842956543 17.98166084289551 8.855398178100586 C 19.0184497833252 9.826137542724609 18.67308235168457 11.06577205657959 18.52311325073242 11.46349906921387 C 18.75287437438965 11.77697467803955 19.02344512939453 12.27659797668457 19.04785919189453 12.91197872161865 C 19.07255172729492 13.4951343536377 18.88354110717773 14.05877780914307 18.48597717285156 14.58755779266357 C 18.55217933654785 14.77610301971436 18.63029479980469 15.06646156311035 18.64734077453613 15.41948795318604 C 18.67560195922852 15.99979686737061 18.53737449645996 16.85024833679199 17.72246360778809 17.61753082275391 C 17.77450180053711 18.02197647094727 17.76387023925781 18.6215877532959 17.43557929992676 19.22867774963379 C 16.99472045898438 20.04364776611328 16.12953948974609 20.59672927856445 14.86404991149902 20.87254905700684 C 14.33189010620117 20.99021911621094 13.68879985809326 21.04989814758301 12.95279979705811 21.04989814758301 Z M 11.58703994750977 19.75879859924316 L 11.5875997543335 19.75879859924316 L 11.64480018615723 19.75879859924316 C 12.12110042572021 19.79748916625977 12.56412029266357 19.81701850891113 12.96562957763672 19.81701850891113 C 13.61110019683838 19.81701850891113 14.16559028625488 19.76677894592285 14.6136999130249 19.66767883300781 C 15.522629737854 19.4695987701416 16.11927032470703 19.11960792541504 16.38718032836914 18.62739753723145 C 16.6368408203125 18.16988754272461 16.52032089233398 17.68056869506836 16.49441909790039 17.58711814880371 L 16.49332237243652 17.58314514160156 C 16.40627670288086 17.32964897155762 16.48854064941406 17.04901313781738 16.69850921630859 16.88407897949219 C 17.22360038757324 16.48004913330078 17.47562026977539 16.0059986114502 17.44796943664551 15.47479820251465 C 17.43232917785645 15.16767883300781 17.32950973510742 14.92242813110352 17.26960945129395 14.80356884002686 C 17.26799774169922 14.80036926269531 17.26655387878418 14.79750347137451 17.26530075073242 14.79479217529297 C 17.12608528137207 14.55984020233154 17.15939331054688 14.25573062896729 17.34678077697754 14.05415821075439 C 17.69284057617188 13.6868782043457 17.86017036437988 13.31818866729736 17.84435081481934 12.95809841156006 C 17.82552909851074 12.44368839263916 17.44887924194336 12.05717849731445 17.40599060058594 12.01479816436768 C 17.1824893951416 11.80824851989746 17.13781929016113 11.4744987487793 17.30046081542969 11.22183799743652 C 17.35283088684082 11.13505840301514 17.80059051513672 10.34629821777344 17.16939926147461 9.754598617553711 C 16.72292900085449 9.337268829345703 15.80276012420654 9.249648094177246 15.109450340271 9.249648094177246 C 14.41773986816406 9.249648094177246 13.60338020324707 9.339548110961914 12.9310302734375 9.490108489990234 C 12.92393016815186 9.491948127746582 12.91434955596924 9.494138717651367 12.90476036071777 9.496318817138672 C 12.89595985412598 9.49832820892334 12.88714981079102 9.500328063964844 12.87930011749268 9.502338409423828 C 12.67123889923096 9.537444114685059 12.44056606292725 9.585036277770996 12.17006206512451 9.648675918579102 C 12.06614017486572 9.686588287353516 11.9517068862915 9.706608772277832 11.83889961242676 9.706608772277832 C 11.67720985412598 9.706608772277832 11.44048023223877 9.666248321533203 11.23089981079102 9.473958015441895 C 10.66831970214844 8.961798667907715 10.72406005859375 7.823588371276855 11.41740036010742 5.668208599090576 C 11.86236953735352 4.281848430633545 11.8816499710083 3.242758274078369 11.47313022613525 2.663308382034302 C 11.14495944976807 2.19734787940979 10.5968074798584 2.128232955932617 10.39194202423096 2.119309186935425 C 10.31052494049072 2.309209585189819 10.29327583312988 2.84146523475647 10.3576602935791 3.277258396148682 C 10.37537002563477 3.381308317184448 10.36606025695801 3.487398386001587 10.33057022094727 3.582968473434448 C 10.13912487030029 4.121022701263428 8.407057762145996 8.885177612304688 6.611034870147705 10.35007286071777 C 6.156983375549316 10.85279560089111 5.951608657836914 11.4382266998291 5.868183612823486 11.75144004821777 C 5.91844654083252 11.92360305786133 5.943930149078369 12.09873294830322 5.943930149078369 12.27219867706299 L 5.943930149078369 19.09159851074219 C 5.943930149078369 19.20379447937012 5.9346604347229 19.31318473815918 5.916341304779053 19.41754341125488 L 6.272983074188232 19.46099853515625 L 6.27357006072998 19.46099853515625 L 6.281290054321289 19.46152877807617 C 6.302259922027588 19.46456909179688 8.571809768676758 19.76540756225586 10.98223972320557 19.7653980255127 C 11.18766021728516 19.76538848876953 11.39095973968506 19.7631778717041 11.58648014068604 19.75880813598633 L 11.58703994750977 19.75879859924316 Z M 1.700329899787903 11.70989799499512 C 1.398849964141846 11.70989799499512 1.153579950332642 11.96214866638184 1.153579950332642 12.27219867706299 L 1.153579950332642 19.09159851074219 C 1.153579950332642 19.38932991027832 1.379682540893555 19.63376617431641 1.664530754089355 19.65280532836914 L 1.700329899787903 19.6497974395752 L 4.193600177764893 19.6497974395752 C 4.49507999420166 19.6497974395752 4.740349769592285 19.39750862121582 4.740349769592285 19.08739852905273 L 4.740349769592285 12.27219867706299 C 4.740349769592285 11.96214866638184 4.49507999420166 11.70989799499512 4.193600177764893 11.70989799499512 L 1.700329899787903 11.70989799499512 Z" stroke="none"/>
    <path d="M 12.95279979705811 20.99989891052246 C 13.68439960479736 20.99989891052246 14.32199954986572 20.94119834899902 14.85340023040771 20.82369804382324 C 16.10409927368164 20.55109786987305 16.95829963684082 20.00589752197266 17.39159965515137 19.20489883422852 C 17.72270011901855 18.59259796142578 17.72270011901855 17.98439788818359 17.66950035095215 17.59859848022461 C 18.48290061950684 16.84369850158691 18.62599945068359 16.00909805297852 18.5974006652832 15.42189884185791 C 18.58099937438965 15.08219814300537 18.50740051269531 14.79279804229736 18.42980003356934 14.57889842987061 C 18.83029937744141 14.05469799041748 19.02239990234375 13.49269866943359 18.99790000915527 12.91389846801758 C 18.9734001159668 12.27639865875244 18.69549942016602 11.77739810943604 18.46660041809082 11.47119808197021 C 18.73220062255859 10.79179859161377 18.83440017700195 9.722308158874512 17.94750022888184 8.891908645629883 C 17.29759788513184 8.283777236938477 16.1939868927002 8.011161804199219 14.6653003692627 8.086658477783203 C 13.59039974212646 8.136988639831543 12.69120025634766 8.342498779296875 12.65439987182617 8.350878715515137 L 12.65030002593994 8.350878715515137 C 12.44589996337891 8.388628005981445 12.22929954528809 8.434758186340332 12.00860023498535 8.485088348388672 C 11.99219989776611 8.216678619384766 12.03719997406006 7.549838542938232 12.51949977874756 6.048388481140137 C 13.09169960021973 4.261758327484131 13.05900001525879 2.894528388977051 12.41320037841797 1.980248332023621 C 11.73470020294189 1.019828319549561 10.6515998840332 0.9443383812904358 10.33279991149902 0.9443383812904358 C 10.02620029449463 0.9443383812904358 9.744199752807617 1.074348330497742 9.543919563293457 1.313408374786377 C 9.090229988098145 1.85442841053009 9.143360137939453 2.852588415145874 9.200579643249512 3.313928365707397 C 8.661060333251953 4.798588275909424 7.148739814758301 8.438958168029785 5.869410037994385 9.449698448181152 C 5.844880104064941 9.46647834777832 5.824450016021729 9.487448692321777 5.804009914398193 9.508418083190918 C 5.427979946136475 9.915228843688965 5.174560070037842 10.35559844970703 5.002890110015869 10.74139881134033 C 4.761739730834961 10.60719871520996 4.487889766693115 10.53169822692871 4.193600177764893 10.53169822692871 L 1.700329899787903 10.53169822692871 C 0.7602399587631226 10.53169822692871 -4.882812731921149e-08 11.31599807739258 -4.882812731921149e-08 12.27639865875244 L -4.882812731921149e-08 19.09159851074219 C -4.882812731921149e-08 20.05619812011719 0.7643299698829651 20.8362979888916 1.700329899787903 20.8362979888916 L 4.193600177764893 20.8362979888916 C 4.557370185852051 20.8362979888916 4.89661979675293 20.71889877319336 5.174560070037842 20.51759910583496 L 6.135079860687256 20.6349983215332 C 6.282229900360107 20.65599822998047 8.898119926452637 20.99567985534668 11.58349990844727 20.94119834899902 C 12.069899559021 20.9788990020752 12.52770042419434 20.99989891052246 12.95279979705811 20.99989891052246 M 11.5875997543335 19.80879783630371 C 8.959432601928711 19.86751365661621 6.302670001983643 19.51519775390625 6.274049758911133 19.5109977722168 L 6.269969940185547 19.5109977722168 L 5.857150077819824 19.4606990814209 C 5.881669998168945 19.34329795837402 5.893929958343506 19.21749877929688 5.893929958343506 19.09159851074219 L 5.893929958343506 12.27219867706299 C 5.893929958343506 12.09189796447754 5.865319728851318 11.91579818725586 5.816269874572754 11.75219821929932 C 5.889840126037598 11.47119808197021 6.094210147857666 10.84629821777344 6.576519966125488 10.31369876861572 C 8.41172981262207 8.820608139038086 10.20609951019287 3.783648490905762 10.28369998931885 3.565568447113037 C 10.31639957427979 3.477488279342651 10.32460021972656 3.381028413772583 10.30819988250732 3.284568309783936 C 10.23880004882812 2.81484842300415 10.2632999420166 2.240268468856812 10.36139965057373 2.068318367004395 C 10.57800006866455 2.072508335113525 11.16250038146973 2.13541841506958 11.51399993896484 2.634498357772827 C 11.93089962005615 3.225848436355591 11.91460037231445 4.28272819519043 11.46500015258789 5.683518409729004 C 10.77830028533936 7.818248271942139 10.72109985351562 8.942228317260742 11.26469993591309 9.437118530273438 C 11.53440093994141 9.684569358825684 11.89410209655762 9.697151184082031 12.15569972991943 9.600687980651855 C 12.40509986877441 9.54196834564209 12.64210033416748 9.49163818359375 12.86689949035645 9.453898429870605 C 12.88329982757568 9.449698448181152 12.90369987487793 9.445508003234863 12.92010021209717 9.441318511962891 C 14.17489910125732 9.160317420959473 16.42289924621582 8.988368034362793 17.20359992980957 9.718118667602539 C 17.86569976806641 10.33879852294922 17.39570045471191 11.16079807281494 17.34250068664551 11.24889850616455 C 17.19129943847656 11.48379802703857 17.23629951477051 11.78989791870117 17.44059944152832 11.97869873046875 C 17.44470024108887 11.9828987121582 17.87389945983887 12.39809799194336 17.89430046081543 12.95589828491211 C 17.91069984436035 13.32909870147705 17.73900032043457 13.7107982635498 17.38339996337891 14.0881986618042 C 17.21179962158203 14.27279853820801 17.17910003662109 14.55379867553711 17.30979919433594 14.7717981338501 C 17.30979919433594 14.77599811553955 17.4773998260498 15.06959819793701 17.49790000915527 15.47219848632812 C 17.5265007019043 16.02169799804688 17.26899909973145 16.50819778442383 16.72940063476562 16.92339897155762 C 16.53730010986328 17.07429885864258 16.4596996307373 17.33439826965332 16.5413990020752 17.56919860839844 C 16.5413990020752 17.57339859008789 16.71719932556152 18.12699890136719 16.43110084533691 18.65129852294922 C 16.15719985961914 19.15449905395508 15.54819965362549 19.51519775390625 14.6245002746582 19.71649932861328 C 13.88470077514648 19.88010025024414 12.87920188903809 19.90949821472168 11.64480018615723 19.80879783630371 C 11.62849998474121 19.80879783630371 11.60799980163574 19.80879783630371 11.5875997543335 19.80879783630371 M 1.700329899787903 11.65989875793457 L 4.193600177764893 11.65989875793457 C 4.524680137634277 11.65989875793457 4.790349960327148 11.9366979598999 4.790349960327148 12.27219867706299 L 4.790349960327148 19.08739852905273 C 4.790349960327148 19.42719841003418 4.520589828491211 19.69979858398438 4.193600177764893 19.69979858398438 L 1.700329899787903 19.69979858398438 L 1.700329899787903 19.70399856567383 C 1.36925995349884 19.70399856567383 1.103579998016357 19.42719841003418 1.103579998016357 19.09159851074219 L 1.103579998016357 12.27219867706299 C 1.103579998016357 11.93249797821045 1.373340010643005 11.65989875793457 1.700329899787903 11.65989875793457 M 12.95279979705811 21.09989929199219 C 12.5397253036499 21.09989929199219 12.09085178375244 21.08072090148926 11.58065795898438 21.0412769317627 C 11.38834285736084 21.04514122009277 11.18922901153564 21.0471076965332 10.98872947692871 21.0471076965332 C 8.430370330810547 21.0471076965332 6.142899990081787 20.73712921142578 6.120959758758545 20.73399925231934 L 5.200784683227539 20.62154579162598 C 4.902824878692627 20.82760238647461 4.55547046661377 20.93629837036133 4.193600177764893 20.93629837036133 L 1.700329899787903 20.93629837036133 C 0.7076199650764465 20.93629837036133 -0.1000000461935997 20.10876846313477 -0.1000000461935997 19.09159851074219 L -0.1000000461935997 12.27639865875244 C -0.1000000461935997 11.25922870635986 0.7076199650764465 10.4316987991333 1.700329899787903 10.4316987991333 L 4.193600177764893 10.4316987991333 C 4.461493015289307 10.4316987991333 4.717322826385498 10.48971271514893 4.955630302429199 10.60431957244873 C 5.162069320678711 10.16499328613281 5.422460079193115 9.773877143859863 5.730579853057861 9.44053840637207 C 5.754086494445801 9.416363716125488 5.778623580932617 9.391196250915527 5.809845447540283 9.369308471679688 C 7.008601188659668 8.419184684753418 8.479557037353516 4.999733448028564 9.098423004150391 3.302215337753296 C 9.045644760131836 2.858083724975586 8.98588752746582 1.823229670524597 9.467300415039062 1.249148368835449 C 9.685990333557129 0.9881183505058289 9.993370056152344 0.8443383574485779 10.33279991149902 0.8443383574485779 C 10.66131019592285 0.8443383574485779 11.78808975219727 0.9220883846282959 12.49487018585205 1.922548413276672 C 13.15732955932617 2.860408306121826 13.19764995574951 4.258798599243164 12.6147403717041 6.078888416290283 C 12.19790363311768 7.376534461975098 12.11092281341553 8.040890693664551 12.10608291625977 8.360622406005859 C 12.30113220214844 8.317257881164551 12.47414016723633 8.281723022460938 12.63214015960693 8.252538681030273 L 12.6432638168335 8.25087833404541 C 12.78348445892334 8.21942138671875 13.64291000366211 8.034420967102051 14.66061973571777 7.986768245697021 C 14.82707023620605 7.978548526763916 14.99129009246826 7.974368572235107 15.14846992492676 7.974368572235107 C 16.45223045349121 7.974368572235107 17.41695022583008 8.258508682250977 18.01582908630371 8.818888664245605 C 19.05389595031738 9.790824890136719 18.73639488220215 11.02494621276855 18.57929611206055 11.45579719543457 C 18.80966758728027 11.77613258361816 19.07348823547363 12.27670669555664 19.09782981872559 12.91005802154541 C 19.12267303466797 13.49702739715576 18.93567276000977 14.06416416168213 18.54187393188477 14.59623908996582 C 18.60719108581543 14.78823852539062 18.68069267272949 15.07349967956543 18.69728088378906 15.41707801818848 C 18.72584533691406 16.00348854064941 18.58760643005371 16.8607006072998 17.77519416809082 17.63644218444824 C 17.82446670532227 18.04775619506836 17.80736541748047 18.64625549316406 17.47956085205078 19.25246810913086 C 17.03145980834961 20.0808277130127 16.15505981445312 20.64233779907227 14.87469959259033 20.92140769958496 C 14.33914947509766 21.03981781005859 13.6924295425415 21.09989929199219 12.95279979705811 21.09989929199219 Z M 11.58648014068604 19.70879745483398 L 11.65293025970459 19.70912742614746 C 12.12378978729248 19.74753761291504 12.56544971466064 19.76701927185059 12.96562957763672 19.76701927185059 C 13.60746002197266 19.76701927185059 14.15832042694092 19.7171688079834 14.60291004180908 19.61885833740234 C 15.49715995788574 19.42397880554199 16.08259963989258 19.08237838745117 16.34326934814453 18.60348892211914 C 16.58370971679688 18.1628589630127 16.47122955322266 17.69065856933594 16.44623947143555 17.60046768188477 L 16.44556999206543 17.59805297851562 C 16.35238456726074 17.32480430603027 16.4413013458252 17.02254676818848 16.66762924194336 16.84475898742676 C 17.17930030822754 16.4510383605957 17.42477989196777 15.99119853973389 17.39804077148438 15.47739791870117 C 17.38286018371582 15.17938804626465 17.28309059143066 14.94140815734863 17.22496032714844 14.82606792449951 C 17.22370147705078 14.82356929779053 17.222412109375 14.82100963592529 17.22114372253418 14.81835651397705 C 17.072021484375 14.56472969055176 17.10828018188477 14.23729133605957 17.31015968322754 14.02011871337891 C 17.6468391418457 13.66278839111328 17.80961036682129 13.30637836456299 17.79439926147461 12.96028804779053 C 17.77595901489258 12.45626831054688 17.38738059997559 12.06669807434082 17.370849609375 12.05035877227783 C 17.13068962097168 11.82846832275391 17.08260917663574 11.46788883209229 17.25840950012207 11.19477844238281 C 17.30788993835449 11.11275863647461 17.73769950866699 10.35587882995605 17.13521003723145 9.791078567504883 C 16.79130935668945 9.469618797302246 16.09078025817871 9.299648284912109 15.109450340271 9.299648284912109 C 14.42119979858398 9.299648284912109 13.61091995239258 9.38908863067627 12.94194984436035 9.538898468017578 C 12.93591022491455 9.540488243103027 12.92589950561523 9.542788505554199 12.91586971282959 9.545068740844727 C 12.90750980377197 9.546977996826172 12.89914989471436 9.548868179321289 12.89171028137207 9.550768852233887 L 12.88346004486084 9.552518844604492 C 12.68131351470947 9.586454391479492 12.45256614685059 9.633625030517578 12.18438816070557 9.696671485900879 C 12.0757884979248 9.735896110534668 11.95647621154785 9.756608009338379 11.83889961242676 9.756608009338379 C 11.66833019256592 9.756608009338379 11.41851997375488 9.713968276977539 11.19709014892578 9.510798454284668 C 10.6179895401001 8.983588218688965 10.66955947875977 7.829748153686523 11.36979961395264 5.65289831161499 C 11.80978012084961 4.282088279724121 11.83139038085938 3.258248329162598 11.43227005004883 2.692118406295776 C 11.13446807861328 2.269281387329102 10.64602088928223 2.186453580856323 10.42594718933105 2.171295642852783 C 10.3646297454834 2.361934423446655 10.34301662445068 2.836022138595581 10.40713024139404 3.269948482513428 C 10.4261302947998 3.38157844543457 10.41598033905029 3.496578454971313 10.37744998931885 3.60036826133728 C 10.18585109710693 4.13883638381958 8.451092720031738 8.91010570526123 6.645602226257324 10.38639640808105 C 6.206706047058105 10.87368965148926 6.004374504089355 11.43975448608398 5.92008638381958 11.75096130371094 C 5.969089984893799 11.92331981658936 5.993929862976074 12.09854125976562 5.993929862976074 12.27219867706299 L 5.993929862976074 19.09159851074219 C 5.993929862976074 19.18821716308594 5.987215995788574 19.28285980224609 5.973929882049561 19.37418365478516 L 6.288579940795898 19.41205787658691 C 6.309720039367676 19.41506767272949 8.570899963378906 19.71540832519531 10.98223972320557 19.71539878845215 C 11.18752956390381 19.71538925170898 11.39044952392578 19.71317863464355 11.58537006378174 19.70881843566895 L 11.58648014068604 19.70879745483398 Z M 1.700329899787903 11.75989818572998 C 1.426419973373413 11.75989818572998 1.203579902648926 11.98971843719482 1.203579902648926 12.27219867706299 L 1.203579902648926 19.09159851074219 C 1.203579902648926 19.35791015625 1.401568055152893 19.57742118835449 1.653682827949524 19.60175704956055 L 1.700329899787903 19.59979820251465 L 4.193600177764893 19.59979820251465 C 4.467509746551514 19.59979820251465 4.69035005569458 19.36993789672852 4.69035005569458 19.08739852905273 L 4.69035005569458 12.27219867706299 C 4.69035005569458 11.98971843719482 4.467509746551514 11.75989818572998 4.193600177764893 11.75989818572998 L 1.700329899787903 11.75989818572998 Z" stroke="none" fill="#585c73"/>
  </g>
</svg>
