<svg width="17" height="16" fill="none" xmlns="http://www.w3.org/2000/svg"><path d="M8.5 16a.467.467 0 01-.249-.073 29.87 29.87 0 01-4.088-3.2c-1.195-1.122-2.15-2.235-2.835-3.307C.439 8.032-.007 6.697 0 5.452c.009-1.448.485-2.81 1.343-3.836C2.214.574 3.378 0 4.619 0 6.209 0 7.663.97 8.5 2.505 9.337.97 10.79 0 12.381 0c1.172 0 2.291.518 3.15 1.458.942 1.032 1.478 2.49 1.469 4.001-.007 1.243-.462 2.576-1.352 3.961-.689 1.072-1.641 2.184-2.832 3.306a30.008 30.008 0 01-4.066 3.2.468.468 0 01-.25.074z" fill="#E8190C"/></svg>