<svg width="17" height="16" viewBox="0 0 17 16" fill="none" xmlns="http://www.w3.org/2000/svg">
<path d="M8.49999 16C8.41399 16 8.32803 15.9758 8.251 15.9274C8.16733 15.8749 6.17943 14.6188 4.16301 12.7263C2.9679 11.6046 2.01391 10.4921 1.32761 9.41967C0.439494 8.03196 -0.00711925 6.69715 8.57994e-05 5.45227C0.00851936 4.00371 0.485281 2.64144 1.34265 1.61636C2.21449 0.574003 3.37799 0 4.61889 0C6.20921 0 7.66321 0.969439 8.50002 2.50515C9.33684 0.969475 10.7908 0 12.3812 0C13.5535 0 14.672 0.517925 15.5308 1.45839C16.4732 2.49044 17.0087 3.94868 16.9999 5.45914C16.9927 6.70184 16.5377 8.03463 15.6476 9.42043C14.9592 10.4923 14.0065 11.6043 12.8161 12.7257C10.807 14.618 8.83341 15.874 8.75037 15.9266C8.67298 15.9755 8.58645 16 8.49999 16Z" fill="#E8190C"/>
</svg>
