<svg width="15" height="15" fill="none" xmlns="http://www.w3.org/2000/svg"><g clip-path="url(#clip0_3188_3762)" fill="#000"><path d="M13.97 1.03a3.516 3.516 0 00-4.972 0L6.059 3.968c-1.42 1.42-1.288 3.683 0 4.972.216.216.455.392.707.536l.536-.536c.352-.352.228-.763.222-1.06a1.698 1.698 0 01-.222-.183c-.661-.661-.69-1.795 0-2.486l2.939-2.938a1.76 1.76 0 012.486 0 1.76 1.76 0 010 2.486L10.784 6.7c.056.31.394 1.047.22 2.261.009-.008.019-.014.027-.022l2.938-2.938a3.516 3.516 0 000-4.972z"/><path d="M9.168 5.833a3.347 3.347 0 00-.707-.537l-.536.537c-.352.351-.228.763-.222 1.06.077.054.152.113.222.183.66.66.69 1.794 0 2.486l-3.166 3.165a1.76 1.76 0 01-2.486 0 1.76 1.76 0 010-2.485l2.17-2.17c-.057-.311-.394-1.047-.22-2.262-.009.009-.019.014-.027.023L1.03 8.999a3.516 3.516 0 004.972 4.971l3.166-3.165c1.393-1.394 1.317-3.655 0-4.972z"/></g><defs><clipPath id="clip0_3188_3762"><path fill="#fff" d="M0 0h15v15H0z"/></clipPath></defs></svg>