<svg width="16" height="16" viewBox="0 0 16 16" fill="none" xmlns="http://www.w3.org/2000/svg">
<path d="M14.85 10.4125L14.8284 10.4576C15.1939 10.633 15.3462 11.0688 15.1736 11.4347C14.5339 12.7638 13.537 13.8911 12.2917 14.6923C11.0123 15.5152 9.52796 15.95 8 15.95C5.87577 15.95 3.88223 15.124 2.37911 13.6209L2.37907 13.6209C0.875995 12.1209 0.05 10.1243 0.05 8C0.05 5.87574 0.875995 3.87911 2.37907 2.37914L2.37914 2.37907C3.87911 0.875995 5.87574 0.05 8 0.05C9.52796 0.05 11.0123 0.484773 12.2918 1.3046L12.2918 1.30463C13.5402 2.10271 14.5339 3.22996 15.1737 4.56226C15.3491 4.92783 15.1943 5.36369 14.8315 5.53931C14.4659 5.71478 14.03 5.55984 13.8544 5.19697C13.3317 4.11062 12.5192 3.18793 11.502 2.53603L11.5019 2.53598C10.4564 1.86838 9.24708 1.5125 8 1.5125C4.42239 1.5125 1.5125 4.42239 1.5125 8C1.5125 11.5776 4.42239 14.4875 8 14.4875C9.24708 14.4875 10.4565 14.1316 11.4989 13.4608L11.4989 13.4608C12.516 12.8058 13.3285 11.8863 13.8513 10.7999C14.0269 10.437 14.4658 10.2822 14.8282 10.4575L14.85 10.4125Z" fill="black" stroke="white" stroke-width="0.1"/>
<path d="M9.56953 7.27539H9.69024L9.60489 7.19004L8.45176 6.03691C8.16504 5.75019 8.16504 5.28809 8.45176 5.00137C8.73849 4.71465 9.20058 4.71465 9.4873 5.00137L11.4529 6.967C11.7279 7.24199 11.882 7.61365 11.882 8.00352C11.882 8.39346 11.731 8.76197 11.4529 9.04004L9.4873 11.0057C9.34406 11.1489 9.157 11.2191 8.96953 11.2191C8.7821 11.2191 8.59508 11.1489 8.45185 11.0057C8.16793 10.7188 8.16849 10.2569 8.45452 9.97674L8.45489 9.97637L9.60801 8.82325L9.69337 8.73789H9.57266H5.12891C4.72527 8.73789 4.39766 8.41028 4.39766 8.00664C4.39766 7.60301 4.72527 7.27539 5.12891 7.27539H9.56953Z" fill="black" stroke="white" stroke-width="0.1"/>
</svg>
