<svg width="20" height="20" fill="none"><g clip-path="url(#a)" fill="#9498AB"><path d="M18.631 1.369A4.639 4.639 0 0 0 15.331 0H4.67A4.669 4.669 0 0 0 0 4.669V15.33A4.662 4.662 0 0 0 4.669 20H15.33A4.67 4.67 0 0 0 20 15.331V4.67a4.638 4.638 0 0 0-1.369-3.3Zm.032 13.969a3.332 3.332 0 0 1-3.332 3.33H4.67a3.331 3.331 0 0 1-3.331-3.33V4.668a3.331 3.331 0 0 1 3.33-3.337h10.663a3.331 3.331 0 0 1 3.332 3.332v10.675Z"/><path d="M15.382 12.081a2.655 2.655 0 0 0-4.043-.05l-1.288-1.55a2.675 2.675 0 0 0-2.831-.844c-.52.166-.978.481-1.319.907l-3.081 3.7a.669.669 0 1 0 1.025.856l3.125-3.75a1.332 1.332 0 0 1 2.05 0l2.7 3.244a.669.669 0 1 0 1.031-.844l-.55-.663.106-.13a1.375 1.375 0 0 1 2.05 0l1.8 2.155a.669.669 0 0 0 1.025-.856l-1.8-2.175ZM13.67 9.331a2.331 2.331 0 1 0-2.332-2.33 2.337 2.337 0 0 0 2.331 2.33Zm0-3.33a1 1 0 1 1 0 2 1 1 0 0 1 0-2Z"/></g><defs><clipPath id="a"><path fill="#fff" d="M0 0h20v20H0z"/></clipPath></defs></svg>