<svg width="19" height="21" fill="none"><path d="M12.637 8.253a.77.77 0 1 1 0 1.54h-8.45a.77.77 0 1 1 0-1.54h8.45ZM3.417 12.305a.77.77 0 0 1 .77-.77H9.32a.77.77 0 1 1 0 1.54H4.187a.77.77 0 0 1-.77-.77Z" fill="#000" stroke="#fff" stroke-width=".1"/><path d="M3.371 19.41h2.744a.77.77 0 1 1 0 1.54H3.37A3.235 3.235 0 0 1 .14 17.719V3.28A3.235 3.235 0 0 1 3.37.05h10.085a3.235 3.235 0 0 1 3.232 3.231v5.045a.77.77 0 1 1-1.541 0V3.281c0-.932-.758-1.69-1.69-1.69H3.37c-.932 0-1.69.758-1.69 1.69V17.72c0 .932.758 1.69 1.69 1.69Z" fill="#000" stroke="#fff" stroke-width=".1"/><path d="m17.067 14.232-.159.159-.035.035-.035-.035-1.16-1.16-.036-.036.036-.035.158-.158m1.231 1.23-.035-.035a.821.821 0 0 0-1.16-1.16l-.036-.035m1.231 1.23a.871.871 0 0 0-1.231-1.23m1.231 1.23-1.231-1.23m-1.089-1.09c.94-.94 2.469-.94 3.409 0s.94 2.47 0 3.41l-4.494 4.486.035.035-.035-.035a.77.77 0 0 1-.339.197l.014.048-.014-.048-3.31.917a.77.77 0 0 1-.943-.966l.98-3.23a.77.77 0 0 1 .193-.32l4.504-4.494Zm-2.043 6.666.013-.004.01-.01 3.02-3.014.035-.036-.035-.035-1.16-1.16-.036-.036-.035.036-3.039 3.032-.009.009-.003.012-.488 1.604-.026.087.087-.024 1.666-.461ZM4.188 4.972h8.449a.77.77 0 1 1 0 1.54h-8.45a.77.77 0 1 1 0-1.54Z" fill="#000" stroke="#fff" stroke-width=".1"/></svg>