<svg width="21" height="21" fill="none"><path d="M10.5 3.498a7.002 7.002 0 1 0 7.002 7.002A7.009 7.009 0 0 0 10.5 3.498Zm0 12.6a5.598 5.598 0 1 1 5.598-5.598 5.605 5.605 0 0 1-5.598 5.598Z" fill="#9498AB"/><path d="M12.6 9.798h-1.398V8.4a.702.702 0 0 0-1.398 0v1.398H8.4a.702.702 0 0 0 0 1.398h1.398V12.6a.702.702 0 0 0 1.398 0v-1.398H12.6a.702.702 0 0 0 0-1.398v-.006Z" fill="#9498AB"/><path d="M10.5 0a10.5 10.5 0 1 0 0 21 10.5 10.5 0 0 0 0-21Zm0 19.602a9.102 9.102 0 1 1 9.102-9.102 9.109 9.109 0 0 1-9.102 9.102Z" fill="#9498AB"/></svg>