<svg width="22" height="24" viewBox="0 0 22 24" fill="none" xmlns="http://www.w3.org/2000/svg">
<path d="M20.8078 17.4113L19.4184 15.4125C19.2288 15.1408 19.1267 14.8176 19.1259 14.4863V8.75C19.1259 6.59512 18.2699 4.52849 16.7462 3.00476C15.2224 1.48102 13.1558 0.625 11.0009 0.625C8.84605 0.625 6.77943 1.48102 5.25569 3.00476C3.73196 4.52849 2.87593 6.59512 2.87593 8.75V14.4863C2.87515 14.8176 2.77309 15.1408 2.58343 15.4125L1.19406 17.4113C0.983686 17.6443 0.845348 17.9334 0.795774 18.2434C0.746199 18.5535 0.787511 18.8713 0.914715 19.1583C1.04192 19.4454 1.24957 19.6895 1.51254 19.861C1.77552 20.0326 2.08257 20.1243 2.39656 20.125H7.01968C7.20617 21.0434 7.7044 21.869 8.42998 22.4621C9.15555 23.0551 10.0638 23.3791 11.0009 23.3791C11.938 23.3791 12.8463 23.0551 13.5719 22.4621C14.2975 21.869 14.7957 21.0434 14.9822 20.125H19.6053C19.9193 20.1243 20.2263 20.0326 20.4893 19.861C20.7523 19.6895 20.96 19.4454 21.0872 19.1583C21.2144 18.8713 21.2557 18.5535 21.2061 18.2434C21.1565 17.9334 21.0182 17.6443 20.8078 17.4113ZM11.0009 21.75C10.498 21.7486 10.0079 21.5917 9.5977 21.3007C9.18749 21.0098 8.87731 20.5991 8.70969 20.125H13.2922C13.1246 20.5991 12.8144 21.0098 12.4042 21.3007C11.994 21.5917 11.5038 21.7486 11.0009 21.75ZM2.39656 18.5C2.43328 18.4659 2.466 18.4278 2.49406 18.3863L3.91593 16.3388C4.29524 15.7953 4.49937 15.149 4.50093 14.4863V8.75C4.50093 7.02609 5.18575 5.37279 6.40474 4.15381C7.62373 2.93482 9.27703 2.25 11.0009 2.25C12.7248 2.25 14.3781 2.93482 15.5971 4.15381C16.8161 5.37279 17.5009 7.02609 17.5009 8.75V14.4863C17.5025 15.149 17.7066 15.7953 18.0859 16.3388L19.5078 18.3863C19.5359 18.4278 19.5686 18.4659 19.6053 18.5H2.39656Z" fill="#E8ECF4"/>
</svg>
