<svg width="17" height="17" fill="none" xmlns="http://www.w3.org/2000/svg"><path d="M8.5 2.833C4.866 2.833 1.7 5.117 0 8.5c1.7 3.385 4.866 5.667 8.5 5.667 3.634 0 6.8-2.282 8.5-5.667-1.7-3.384-4.866-5.667-8.5-5.667zm0 9.917c-2.735 0-5.318-1.61-6.886-4.25C3.182 5.861 5.764 4.25 8.5 4.25c2.735 0 5.318 1.611 6.886 4.25-1.568 2.64-4.15 4.25-6.886 4.25z" fill="#9498AB"/><path d="M8.5 5.313a3.187 3.187 0 10-.001 6.376A3.187 3.187 0 008.5 5.312zm0 4.958a1.77 1.77 0 110-3.541 1.77 1.77 0 010 3.541z" fill="#9498AB"/></svg>