<svg width="11" height="11" viewBox="0 0 11 11" fill="none" xmlns="http://www.w3.org/2000/svg">
<path d="M9.66516 4.2582L2.79016 0.379449C2.56564 0.251141 2.31114 0.18459 2.05255 0.186566C1.79396 0.188542 1.5405 0.258975 1.31797 0.390699C1.10117 0.514695 0.921046 0.693865 0.795905 0.910009C0.670763 1.12615 0.60506 1.37157 0.605471 1.62132V9.37882C0.60506 9.62858 0.670763 9.874 0.795905 10.0901C0.921046 10.3063 1.10117 10.4855 1.31797 10.6094C1.54053 10.7411 1.79397 10.8115 2.05255 10.8135C2.31113 10.8155 2.56562 10.7489 2.79016 10.6207L9.66516 6.74195C9.88689 6.61912 10.0717 6.43917 10.2004 6.22079C10.329 6.0024 10.3969 5.75355 10.3969 5.50007C10.3969 5.2466 10.329 4.99775 10.2004 4.77936C10.0717 4.56098 9.88689 4.38103 9.66516 4.2582Z" fill="black"/>
</svg>
