<svg width="31" height="27" fill="none" xmlns="http://www.w3.org/2000/svg"><path d="M15.5 8.235a3.334 3.334 0 00-3.33 3.33 3.336 3.336 0 002.422 3.204v10.36a.908.908 0 101.816 0v-10.36a3.335 3.335 0 002.422-3.204 3.334 3.334 0 00-3.33-3.33zm0 4.844a1.515 1.515 0 01-1.514-1.514c0-.834.68-1.513 1.514-1.513.835 0 1.514.679 1.514 1.513 0 .835-.68 1.514-1.514 1.514zM11.297 6.71a.908.908 0 00-1.285 0 7.201 7.201 0 000 10.19.908.908 0 101.285-1.285 5.386 5.386 0 010-7.621.908.908 0 000-1.284zM20.986 6.71a.908.908 0 00-1.284 1.284 5.395 5.395 0 010 7.621.908.908 0 001.284 1.285c2.81-2.81 2.81-7.381 0-10.19z" fill="#fff"/><path d="M8.558 5.254A.908.908 0 107.273 3.97c-4.32 4.32-4.32 11.35 0 15.67a.908.908 0 101.285-1.285c-3.612-3.612-3.612-9.489 0-13.101zM23.726 3.97a.908.908 0 00-1.284 1.284c3.612 3.612 3.612 9.49 0 13.101a.908.908 0 101.284 1.285c4.32-4.32 4.32-11.35 0-15.67z" fill="#fff"/><path d="M5.818 2.514a.908.908 0 10-1.284-1.285c-6.052 6.052-6.039 15.113 0 21.15a.908.908 0 101.284-1.284C.521 15.8.521 7.81 5.818 2.514zM26.466 1.23a.908.908 0 00-1.284 1.284c5.297 5.296 5.297 13.285 0 18.581a.908.908 0 101.285 1.285c6.05-6.051 6.038-15.112 0-21.15z" fill="#fff"/></svg>