<svg width="17" height="17" viewBox="0 0 17 17" fill="none" xmlns="http://www.w3.org/2000/svg">
<path d="M14.5194 7.90341C14.6591 9.21705 14.3356 10.5382 13.6049 11.6388C12.8741 12.7393 11.782 13.5501 10.5171 13.9311C9.25219 14.3122 7.89393 14.2395 6.67691 13.7257C5.45988 13.2118 4.4605 12.2891 3.85137 11.1169C3.24224 9.94467 3.0616 8.59652 3.34066 7.30528C3.61972 6.01405 4.34095 4.8608 5.37979 4.04472C6.41863 3.22865 7.70985 2.80098 9.03044 2.83558C10.351 2.87018 11.6181 3.36488 12.6128 4.23424L11.61 4.23969C11.4221 4.24024 11.2422 4.31539 11.1097 4.44861C10.9773 4.58184 10.9032 4.76222 10.9037 4.95008C10.9042 5.13794 10.9794 5.31789 11.1126 5.45035C11.2458 5.5828 11.4262 5.65691 11.6141 5.65636H11.618L14.1719 5.64255C14.3597 5.64152 14.5394 5.56595 14.6715 5.43246C14.8036 5.29896 14.8773 5.11847 14.8763 4.93067L14.8621 2.37685C14.8651 2.28285 14.8486 2.18926 14.8137 2.10193C14.7788 2.01459 14.7263 1.93539 14.6595 1.86926C14.5926 1.80314 14.5128 1.75152 14.4251 1.71762C14.3374 1.68373 14.2436 1.66829 14.1496 1.67227C13.9618 1.67337 13.7822 1.74902 13.6501 1.88256C13.5181 2.01611 13.4445 2.19663 13.4455 2.38443L13.4492 3.09014C12.1923 2.03154 10.6061 1.44339 8.96287 1.42664C7.31964 1.40988 5.72182 1.96556 4.44358 2.99831C3.16535 4.03106 2.2864 5.47649 1.95758 7.08657C1.62875 8.69664 1.87055 10.371 2.64148 11.8222C3.41241 13.2735 4.6644 14.4112 6.18261 15.0401C7.70081 15.669 9.39057 15.7499 10.9619 15.2689C12.5332 14.7879 13.8882 13.775 14.7942 12.404C15.7003 11.0331 16.1009 9.38949 15.9274 7.75536C15.9201 7.661 15.8939 7.56906 15.8505 7.48498C15.807 7.40089 15.7472 7.32637 15.6744 7.2658C15.6017 7.20524 15.5176 7.15987 15.427 7.13237C15.3364 7.10487 15.2413 7.0958 15.1472 7.1057C15.053 7.11559 14.9618 7.14425 14.879 7.18998C14.7961 7.23571 14.7232 7.29758 14.6647 7.37195C14.6061 7.44631 14.5631 7.53165 14.5381 7.62293C14.513 7.71421 14.5066 7.80958 14.519 7.90341H14.5194Z" fill="black"/>
</svg>
