<svg width="15" height="18" viewBox="0 0 15 18" fill="none" xmlns="http://www.w3.org/2000/svg">
<path d="M7.53923 13.9916L7.5 13.9675L7.46077 13.9916L1.23577 17.8117C1.12093 17.8822 0.98886 17.9212 0.853273 17.9247C0.717686 17.9282 0.583687 17.896 0.465208 17.8316C0.346738 17.7671 0.248181 17.6728 0.179631 17.5585C0.111087 17.4443 0.0749997 17.3142 0.075 17.1818V0.818182C0.075 0.621526 0.154555 0.432641 0.296622 0.293157C0.438736 0.153627 0.631771 0.075 0.833333 0.075H14.1667C14.3682 0.075 14.5613 0.153627 14.7034 0.293157C14.8454 0.432641 14.925 0.621526 14.925 0.818182V17.1818C14.925 17.3142 14.8889 17.4443 14.8204 17.5585C14.7518 17.6728 14.6533 17.7671 14.5348 17.8316C14.4163 17.896 14.2823 17.9282 14.1467 17.9247C14.0111 17.9212 13.8791 17.8822 13.7642 17.8117L7.53923 13.9916ZM13.2941 15.773L13.4083 15.8431V15.7091V1.63636V1.56136H13.3333H1.66667H1.59167V1.63636V15.7091V15.8431L1.70589 15.773L7.09756 12.4643C7.21814 12.3903 7.35759 12.351 7.5 12.351C7.64241 12.351 7.78186 12.3903 7.90244 12.4643L13.2941 15.773Z" fill="#585C73" stroke="white" stroke-width="0.15"/>
</svg>
