<svg width="16" height="16" fill="none" xmlns="http://www.w3.org/2000/svg"><path d="M15.333 12.667h-1.775A2.329 2.329 0 0011.333 11a2.33 2.33 0 00-2.224 1.667H.667a.667.667 0 000 1.333h8.442a2.329 2.329 0 002.224 1.667A2.33 2.33 0 0013.558 14h1.775a.667.667 0 100-1.333zm-4 1.666a1.001 1.001 0 010-2 1.001 1.001 0 010 2zM15.333 2h-1.775A2.33 2.33 0 0011.333.333 2.33 2.33 0 009.11 2H.667a.667.667 0 000 1.333h8.442A2.33 2.33 0 0011.333 5a2.33 2.33 0 002.225-1.667h1.775a.666.666 0 100-1.333zm-4 1.667a1.001 1.001 0 010-2 1.001 1.001 0 010 2zM15.333 7.333H6.891a2.33 2.33 0 00-2.224-1.667 2.33 2.33 0 00-2.225 1.667H.667a.667.667 0 000 1.333h1.775a2.33 2.33 0 002.225 1.667A2.33 2.33 0 006.89 8.666h8.442a.666.666 0 100-1.333zM4.667 9a1.001 1.001 0 010-2 1.001 1.001 0 010 2z" fill="#0F1435"/></svg>