<svg width="23" height="23" viewBox="0 0 23 23" fill="none" xmlns="http://www.w3.org/2000/svg">
<path d="M20.1739 8.625H20.0819C19.947 8.62381 19.8157 8.58203 19.7049 8.50511C19.5941 8.42819 19.5091 8.31969 19.4609 8.19375C19.4101 8.07214 19.3967 7.93817 19.4223 7.8089C19.4479 7.67963 19.5113 7.5609 19.6046 7.46781L19.67 7.40241C20.0643 7.00662 20.2857 6.47073 20.2857 5.91208C20.2857 5.35342 20.0643 4.81753 19.67 4.42175L18.584 3.33644C18.1885 2.94186 17.6527 2.72026 17.094 2.72026C16.5354 2.72026 15.9995 2.94186 15.6041 3.33644L15.5387 3.40184C15.4423 3.49464 15.3209 3.5573 15.1895 3.58211C15.058 3.60693 14.9222 3.59282 14.7986 3.54154C14.675 3.49025 14.5691 3.40401 14.4939 3.2934C14.4186 3.18278 14.3773 3.05261 14.375 2.91884V2.82612C14.3744 2.26739 14.1522 1.7317 13.7571 1.33662C13.362 0.941531 12.8264 0.719321 12.2676 0.71875H10.7324C10.1736 0.719321 9.63795 0.941531 9.24287 1.33662C8.84778 1.7317 8.62557 2.26739 8.625 2.82612V2.91884C8.6215 3.05165 8.57957 3.18059 8.5043 3.29005C8.42903 3.39952 8.32364 3.48482 8.20088 3.53562C8.07813 3.58643 7.94329 3.60056 7.81267 3.5763C7.68205 3.55205 7.56127 3.49045 7.46494 3.39897L7.40313 3.33356C7.00765 2.93898 6.47181 2.71739 5.91316 2.71739C5.3545 2.71739 4.81866 2.93898 4.42319 3.33356L3.33356 4.41887C2.93929 4.81466 2.71792 5.35055 2.71792 5.9092C2.71792 6.46786 2.93929 7.00375 3.33356 7.39953L3.39897 7.46494C3.49316 7.56131 3.55621 7.68377 3.57992 7.81643C3.60363 7.94909 3.58691 8.08581 3.53194 8.20884C3.48261 8.33139 3.39787 8.43645 3.28853 8.51058C3.17919 8.58471 3.05022 8.62455 2.91812 8.625H2.82612C2.26739 8.62557 1.7317 8.84778 1.33662 9.24287C0.941531 9.63795 0.719321 10.1736 0.71875 10.7324V12.2676C0.719321 12.8264 0.941531 13.362 1.33662 13.7571C1.7317 14.1522 2.26739 14.3744 2.82612 14.375H2.91812C3.05298 14.3762 3.18434 14.418 3.29511 14.4949C3.40587 14.5718 3.49091 14.6803 3.53912 14.8063C3.58989 14.9279 3.60333 15.0618 3.57773 15.1911C3.55213 15.3204 3.48866 15.4391 3.39538 15.5322L3.32997 15.5976C2.9357 15.9934 2.71432 16.5293 2.71432 17.0879C2.71432 17.6466 2.9357 18.1825 3.32997 18.5782L4.41528 19.6628C4.81069 20.0578 5.34672 20.2797 5.90561 20.2797C6.4645 20.2797 7.00053 20.0578 7.39594 19.6628L7.46134 19.5974C7.55777 19.5033 7.68023 19.4403 7.81286 19.4166C7.9455 19.3929 8.0822 19.4096 8.20525 19.4645C8.3278 19.5136 8.43288 19.5982 8.50703 19.7074C8.58117 19.8166 8.621 19.9455 8.62141 20.0776V20.1703C8.62122 20.4475 8.67569 20.7221 8.78171 20.9783C8.88773 21.2345 9.04321 21.4673 9.23927 21.6634C9.43533 21.8594 9.66812 22.0149 9.92432 22.1209C10.1805 22.227 10.4551 22.2814 10.7324 22.2812H12.2676C12.8264 22.2807 13.362 22.0585 13.7571 21.6634C14.1522 21.2683 14.3744 20.7326 14.375 20.1739V20.0812C14.3785 19.9484 14.4204 19.8194 14.4957 19.7099C14.571 19.6005 14.6764 19.5152 14.7991 19.4644C14.9219 19.4136 15.0567 19.3994 15.1873 19.4237C15.3179 19.448 15.4387 19.5095 15.5351 19.601L15.6005 19.6664C15.9959 20.061 16.5318 20.2826 17.0904 20.2826C17.6491 20.2826 18.1849 20.061 18.5804 19.6664L19.6664 18.5818C20.0607 18.1861 20.2821 17.6502 20.2821 17.0915C20.2821 16.5329 20.0607 15.997 19.6664 15.6012L19.601 15.5358C19.5068 15.4394 19.4438 15.3169 19.4201 15.1843C19.3964 15.0516 19.4131 14.9149 19.4681 14.7919C19.5173 14.6692 19.602 14.564 19.7113 14.4897C19.8207 14.4155 19.9497 14.3755 20.0819 14.375H20.1739C20.7326 14.3744 21.2683 14.1522 21.6634 13.7571C22.0585 13.362 22.2807 12.8264 22.2812 12.2676V10.7324C22.2807 10.1736 22.0585 9.63795 21.6634 9.24287C21.2683 8.84778 20.7326 8.62557 20.1739 8.625ZM20.8438 12.2676C20.8436 12.4452 20.7729 12.6155 20.6473 12.7411C20.5218 12.8667 20.3515 12.9373 20.1739 12.9375H20.0819C19.6648 12.941 19.258 13.0673 18.9121 13.3005C18.5663 13.5337 18.2967 13.8635 18.1371 14.2489C17.9775 14.6342 17.9348 15.058 18.0144 15.4675C18.094 15.8769 18.2923 16.2539 18.5847 16.5514L18.6494 16.6168C18.7749 16.7426 18.8454 16.9131 18.8454 17.0908C18.8454 17.2685 18.7749 17.439 18.6494 17.5648L17.5634 18.6494C17.4378 18.775 17.2674 18.8456 17.0897 18.8456C16.9121 18.8456 16.7417 18.775 16.6161 18.6494L16.5514 18.584C16.2538 18.292 15.8768 18.0939 15.4675 18.0145C15.0582 17.9351 14.6345 17.9778 14.2493 18.1374C13.8641 18.297 13.5343 18.5664 13.3011 18.912C13.0678 19.2576 12.9414 19.6642 12.9375 20.0812V20.1739C12.9373 20.3515 12.8667 20.5218 12.7411 20.6473C12.6155 20.7729 12.4452 20.8436 12.2676 20.8438H10.7324C10.5548 20.8436 10.3845 20.7729 10.2589 20.6473C10.1333 20.5218 10.0627 20.3515 10.0625 20.1739V20.0812C10.0605 19.6634 9.93512 19.2555 9.70215 18.9087C9.46917 18.5619 9.13897 18.2916 8.75296 18.1317C8.36695 17.9719 7.94233 17.9296 7.53238 18.0102C7.12243 18.0908 6.74541 18.2907 6.44863 18.5847L6.38322 18.6501C6.25741 18.7754 6.0871 18.8457 5.90956 18.8457C5.73203 18.8457 5.56172 18.7754 5.43591 18.6501L4.35059 17.5655C4.22511 17.4397 4.15464 17.2692 4.15464 17.0915C4.15464 16.9138 4.22511 16.7433 4.35059 16.6175L4.416 16.5521C4.70867 16.2546 4.90725 15.8775 4.98697 15.4679C5.06668 15.0583 5.02399 14.6342 4.86423 14.2487C4.70447 13.8632 4.43471 13.5332 4.08862 13.3C3.74253 13.0669 3.33543 12.9408 2.91812 12.9375H2.82612C2.64852 12.9373 2.47825 12.8667 2.35266 12.7411C2.22708 12.6155 2.15644 12.4452 2.15625 12.2676V10.7324C2.15644 10.5548 2.22708 10.3845 2.35266 10.2589C2.47825 10.1333 2.64852 10.0627 2.82612 10.0625H2.91812C3.33522 10.059 3.74205 9.93271 4.08788 9.69951C4.43371 9.46631 4.70325 9.13647 4.8629 8.75112C5.02254 8.36577 5.06523 7.94195 4.98563 7.53251C4.90603 7.12306 4.70767 6.7461 4.41528 6.44863L4.35059 6.38322C4.22515 6.2575 4.15471 6.08716 4.15471 5.90956C4.15471 5.73197 4.22515 5.56162 4.35059 5.43591L5.43591 4.34987C5.56153 4.22426 5.73191 4.15369 5.90956 4.15369C6.08722 4.15369 6.25759 4.22426 6.38322 4.34987L6.44791 4.41528C6.74543 4.70753 7.12236 4.90579 7.53175 4.98536C7.94114 5.06493 8.36489 5.02229 8.75022 4.86276C9.13555 4.70324 9.46544 4.43387 9.69878 4.08821C9.93213 3.74255 10.0586 3.33587 10.0625 2.91884V2.82612C10.0627 2.64852 10.1333 2.47825 10.2589 2.35266C10.3845 2.22708 10.5548 2.15644 10.7324 2.15625H12.2676C12.4452 2.15644 12.6155 2.22708 12.7411 2.35266C12.8667 2.47825 12.9373 2.64852 12.9375 2.82612V2.91884C12.9412 3.33588 13.0675 3.74261 13.3008 4.08833C13.534 4.43406 13.8639 4.70349 14.2492 4.86304C14.6345 5.0226 15.0583 5.06522 15.4677 4.9856C15.8771 4.90597 16.2539 4.70763 16.5514 4.41528L16.6168 4.34987C16.7424 4.22426 16.9128 4.15369 17.0904 4.15369C17.2681 4.15369 17.4385 4.22426 17.5641 4.34987L18.6494 5.43591C18.7748 5.56162 18.8453 5.73197 18.8453 5.90956C18.8453 6.08716 18.7748 6.2575 18.6494 6.38322L18.584 6.44863C18.2916 6.74614 18.0932 7.12317 18.0136 7.53268C17.9341 7.94219 17.9768 8.36607 18.1365 8.75145C18.2963 9.13683 18.5659 9.46666 18.9119 9.6998C19.2578 9.93295 19.6647 10.0591 20.0819 10.0625H20.1739C20.3515 10.0627 20.5218 10.1333 20.6473 10.2589C20.7729 10.3845 20.8436 10.5548 20.8438 10.7324V12.2676Z" fill="#E8ECF4"/>
<path d="M11.5 6.46875C10.5049 6.46875 9.53217 6.76383 8.70479 7.31667C7.8774 7.86951 7.23254 8.65528 6.85173 9.57462C6.47093 10.494 6.37129 11.5056 6.56543 12.4815C6.75956 13.4575 7.23874 14.354 7.94237 15.0576C8.646 15.7613 9.54249 16.2404 10.5185 16.4346C11.4944 16.6287 12.506 16.5291 13.4254 16.1483C14.3447 15.7675 15.1305 15.1226 15.6833 14.2952C16.2362 13.4678 16.5313 12.4951 16.5313 11.5C16.5297 10.1661 15.9992 8.88726 15.056 7.94405C14.1127 7.00084 12.8339 6.47027 11.5 6.46875ZM11.5 15.0937C10.7892 15.0937 10.0944 14.883 9.50342 14.4881C8.91243 14.0932 8.45181 13.5319 8.17981 12.8753C7.90781 12.2186 7.83664 11.496 7.9753 10.7989C8.11397 10.1018 8.45624 9.46143 8.95884 8.95883C9.46143 8.45624 10.1018 8.11397 10.7989 7.9753C11.496 7.83664 12.2186 7.90781 12.8753 8.17981C13.5319 8.45181 14.0932 8.91243 14.4881 9.50342C14.883 10.0944 15.0938 10.7892 15.0938 11.5C15.0926 12.4528 14.7136 13.3662 14.0399 14.0399C13.3662 14.7136 12.4528 15.0926 11.5 15.0937Z" fill="#E8ECF4"/>
</svg>
