<svg width="16" height="16" viewBox="0 0 16 16" fill="none" xmlns="http://www.w3.org/2000/svg">
<path d="M15.2974 9.27172L14.6317 8.72378C14.1758 8.34844 14.1766 7.65081 14.6318 7.27622L15.2974 6.72828C15.771 6.33831 15.8922 5.66963 15.5854 5.13822L14.2711 2.86178C13.9643 2.33041 13.3245 2.10103 12.7501 2.31622L11.9427 2.61869C11.3897 2.82581 10.786 2.47647 10.6891 1.89491L10.5473 1.04447C10.4465 0.439281 9.92794 0 9.31437 0H6.68578C6.07219 0 5.55362 0.439281 5.45278 1.0445L5.31103 1.89491C5.21394 2.4775 4.60937 2.82547 4.05741 2.61872L3.25006 2.31622C2.67559 2.10103 2.03584 2.33044 1.729 2.86178L0.414718 5.13819C0.107937 5.66953 0.229062 6.33825 0.702781 6.72825L1.36837 7.27619C1.82437 7.65156 1.82347 8.34912 1.36837 8.72375L0.702749 9.27169C0.229062 9.66169 0.107906 10.3304 0.414687 10.8617L1.729 13.1382C2.03581 13.6695 2.67544 13.8989 3.25006 13.6838L4.05737 13.3813C4.61047 13.1741 5.21409 13.5237 5.311 14.1051L5.45275 14.9554C5.55362 15.5607 6.07219 16 6.68575 16H9.31434C9.92791 16 10.4465 15.5607 10.5473 14.9555L10.689 14.1051C10.7861 13.5227 11.3906 13.1745 11.9427 13.3813L12.7501 13.6838C13.3247 13.899 13.9643 13.6696 14.2711 13.1382L15.5855 10.8617C15.8922 10.3304 15.771 9.66169 15.2974 9.27172ZM13.1886 12.5132L12.3812 12.2107C11.0907 11.7273 9.68219 12.5429 9.45609 13.8996L9.31437 14.75H6.68578L6.54403 13.8996C6.3175 12.5403 4.90697 11.7282 3.61887 12.2107L2.81153 12.5132L1.49725 10.2368L2.16284 9.68884C3.22687 8.81291 3.22466 7.18528 2.16284 6.31116L1.49725 5.76322L2.81156 3.48678L3.61887 3.78925C4.9095 4.27269 6.31794 3.45706 6.54403 2.10041L6.68575 1.25H9.31434L9.45606 2.10041C9.68262 3.45984 11.0932 4.27169 12.3812 3.78925L13.1886 3.48678L14.5032 5.76291C14.5032 5.76291 14.5031 5.763 14.5028 5.76319L13.8372 6.31112C12.7732 7.187 12.7754 8.81466 13.8372 9.68881L14.5028 10.2367L13.1886 12.5132ZM8.00006 4.91666C6.29991 4.91666 4.91672 6.29984 4.91672 8C4.91672 9.70016 6.29991 11.0833 8.00006 11.0833C9.70022 11.0833 11.0834 9.70016 11.0834 8C11.0834 6.29984 9.70022 4.91666 8.00006 4.91666ZM8.00006 9.83334C6.98916 9.83334 6.16672 9.01091 6.16672 8C6.16672 6.98909 6.98916 6.16666 8.00006 6.16666C9.01097 6.16666 9.8334 6.98909 9.8334 8C9.8334 9.01091 9.01097 9.83334 8.00006 9.83334Z" fill="black"/>
</svg>
