<svg width="18" height="20" viewBox="0 0 18 20" fill="none" xmlns="http://www.w3.org/2000/svg">
<path d="M11.4525 14.3103L11.5331 14.3647L11.5897 14.2856C11.9122 13.8351 12.3353 13.4682 12.8245 13.2148C13.3137 12.9615 13.8551 12.8288 14.4045 12.8274C15.0956 12.8274 15.7713 13.0347 16.3461 13.4231C16.9209 13.8116 17.3691 14.3638 17.6338 15.0101C17.8985 15.6564 17.9678 16.3676 17.8328 17.0538C17.6978 17.74 17.3647 18.3702 16.8758 18.8646C16.3869 19.3591 15.7641 19.6957 15.0863 19.8321C14.4084 19.9684 13.7058 19.8985 13.0673 19.631C12.4287 19.3635 11.8827 18.9104 11.4985 18.3288C11.1146 17.7478 10.9095 17.0648 10.9091 16.3659C10.9148 16.2379 10.9276 16.1103 10.9474 15.9837L10.9573 15.9209L10.9045 15.8854L6.05876 12.6182L5.99358 12.5742L5.93549 12.6272C5.43339 13.0849 4.81096 13.3856 4.14362 13.4928C3.47628 13.6 2.79251 13.5092 2.17505 13.2314C1.55759 12.9536 1.03284 12.5006 0.66448 11.9271C0.296116 11.3536 0.1 10.6843 0.1 10.0002C0.1 9.31616 0.296116 8.64685 0.66448 8.07336C1.03284 7.49989 1.55759 7.04689 2.17505 6.76908C2.79251 6.49127 3.47628 6.4005 4.14362 6.5077C4.81096 6.61491 5.43339 6.91551 5.93549 7.37328L5.99358 7.42624L6.05876 7.3823L10.9045 4.1151L10.9573 4.07954L10.9474 4.01671C10.9276 3.89008 10.9148 3.76243 10.9091 3.63436C10.9063 2.79651 11.1989 1.98521 11.734 1.346C12.2695 0.706309 13.0128 0.280932 13.8303 0.145987C14.6477 0.0110437 15.4861 0.175312 16.1947 0.609436C16.9033 1.04358 17.4359 1.71923 17.6965 2.51521C17.957 3.31121 17.9284 4.17512 17.6157 4.95165C17.303 5.72815 16.7269 6.36616 15.9912 6.7513C15.2554 7.13643 14.4081 7.24355 13.6014 7.05353C12.7947 6.8635 12.0812 6.38871 11.5892 5.71413L11.5324 5.63626L11.4525 5.69014L6.9447 8.72916L6.8795 8.77311L6.90684 8.84684C7.18259 9.59046 7.18259 10.41 6.90684 11.1536L6.8795 11.2273L6.9447 11.2713L11.4525 14.3103ZM15.4593 2.04215C15.1472 1.83124 14.7801 1.7186 14.4045 1.7186C13.9009 1.7186 13.4181 1.92097 13.0622 2.28081C12.7065 2.64061 12.5068 3.12838 12.5068 3.63674C12.5068 4.01586 12.618 4.38656 12.8264 4.70197C13.0347 5.01738 13.331 5.2634 13.6779 5.40871C14.0248 5.55404 14.4066 5.59208 14.775 5.51798C15.1433 5.44388 15.4815 5.26101 15.7468 4.99267C16.0122 4.72434 16.1927 4.38261 16.2658 4.01074C16.339 3.63888 16.3015 3.25342 16.158 2.90307C16.0145 2.5527 15.7714 2.25306 15.4593 2.04215ZM2.56342 11.5948C2.87553 11.8057 3.24259 11.9184 3.61817 11.9184C4.12185 11.9184 4.60467 11.716 4.96047 11.3562C5.31624 10.9964 5.5159 10.5086 5.5159 10.0002C5.5159 9.62111 5.40475 9.25041 5.19637 8.935C4.98798 8.61958 4.69167 8.37357 4.34477 8.22825C3.99787 8.08293 3.61608 8.04489 3.24773 8.11899C2.87939 8.19309 2.54121 8.37596 2.27588 8.6443C2.01056 8.91263 1.83001 9.25436 1.75687 9.62623C1.68373 9.99809 1.72126 10.3835 1.86475 10.7339C2.00825 11.0843 2.25133 11.3839 2.56342 11.5948ZM13.3498 17.9583C13.6619 18.1692 14.029 18.2819 14.4045 18.2819C14.9082 18.2819 15.391 18.0795 15.7468 17.7196C16.1026 17.3598 16.3023 16.8721 16.3023 16.3637C16.3023 15.9846 16.1911 15.6139 15.9827 15.2985C15.7743 14.9831 15.478 14.7371 15.1311 14.5917C14.7842 14.4464 14.4024 14.4084 14.0341 14.4825C13.6658 14.5566 13.3276 14.7394 13.0622 15.0078C12.7969 15.2761 12.6164 15.6179 12.5432 15.9897C12.4701 16.3616 12.5076 16.747 12.6511 17.0974C12.7946 17.4478 13.0377 17.7474 13.3498 17.9583Z" fill="#585C73" stroke="white" stroke-width="0.2"/>
</svg>
