<svg width="20" height="20" fill="none"><path d="M15 3.333H5c-.92 0-1.666.747-1.666 1.667v10c0 .92.746 1.667 1.667 1.667h10c.92 0 1.666-.746 1.666-1.667V5c0-.92-.746-1.667-1.666-1.667Z" stroke="#69768F" stroke-width="1.5" stroke-linecap="round" stroke-linejoin="round"/><path d="M12.5 7.5h-5v5h5v-5ZM7.5.833v2.5M12.5.833v2.5M7.5 16.666v2.5M12.5 16.666v2.5M16.666 7.5h2.5M16.666 11.666h2.5M.834 7.5h2.5M.834 11.666h2.5" stroke="#69768F" stroke-width="1.5" stroke-linecap="round" stroke-linejoin="round"/></svg>