<svg width="18" height="20" fill="none"><path d="m12.75 7.833-7.5-4.325M16.5 13.333V6.667a1.667 1.667 0 0 0-.833-1.442L9.833 1.892a1.667 1.667 0 0 0-1.666 0L2.333 5.225A1.667 1.667 0 0 0 1.5 6.667v6.666a1.667 1.667 0 0 0 .833 1.442l5.834 3.333a1.666 1.666 0 0 0 1.666 0l5.834-3.333a1.668 1.668 0 0 0 .833-1.442Z" stroke="#69768F" stroke-width="1.5" stroke-linecap="round" stroke-linejoin="round"/><path d="M1.725 5.8 9 10.008 16.275 5.8M9 18.4V10" stroke="#69768F" stroke-width="1.5" stroke-linecap="round" stroke-linejoin="round"/></svg>