<svg width="16" height="20" fill="none"><path d="M11.334 3.333h1.667A1.667 1.667 0 0 1 14.667 5v11.667a1.667 1.667 0 0 1-1.666 1.666H3a1.667 1.667 0 0 1-1.667-1.666V5a1.667 1.667 0 0 1 1.667-1.667h1.666" stroke="#69768F" stroke-width="1.5" stroke-linecap="round" stroke-linejoin="round"/><path d="M10.5 1.667h-5a.833.833 0 0 0-.834.833v1.667c0 .46.373.833.833.833h5c.46 0 .834-.373.834-.833V2.5a.833.833 0 0 0-.834-.833Z" stroke="#69768F" stroke-width="1.5" stroke-linecap="round" stroke-linejoin="round"/></svg>