<svg width="21" height="21" viewBox="0 0 21 21" fill="none" xmlns="http://www.w3.org/2000/svg">
<g clip-path="url(#clip0_3025_117)">
<path d="M10.5 21C7.69535 21 5.05858 19.9078 3.07535 17.9246C1.09221 15.9414 0 13.3046 0 10.5C0 7.69535 1.09221 5.05858 3.07535 3.07535C5.05858 1.09221 7.69535 0 10.5 0C13.3046 0 15.9414 1.09221 17.9246 3.07535C19.9078 5.05858 21 7.69535 21 10.5C21 13.3046 19.9078 15.9414 17.9246 17.9246C15.9414 19.9078 13.3046 21 10.5 21ZM10.5 1.64062C5.61492 1.64062 1.64062 5.61492 1.64062 10.5C1.64062 15.3851 5.61492 19.3594 10.5 19.3594C15.3851 19.3594 19.3594 15.3851 19.3594 10.5C19.3594 5.61492 15.3851 1.64062 10.5 1.64062ZM14.3447 12.3124C13.9625 12.0691 13.4554 12.1818 13.2122 12.5641C13.2021 12.5799 12.1812 14.1529 10.459 14.1529C8.73674 14.1529 7.71586 12.5799 7.70573 12.5641C7.46251 12.1818 6.95551 12.0692 6.57329 12.3124C6.19106 12.5556 6.07839 13.0627 6.32162 13.4448C6.38265 13.5407 7.84625 15.7935 10.459 15.7935C13.0717 15.7935 14.5353 13.5408 14.5964 13.4448C14.8396 13.0626 14.7269 12.5556 14.3447 12.3124ZM6.89062 6.76758C7.45693 6.76758 7.91602 7.22667 7.91602 7.79297C7.91602 8.35927 7.45693 8.81836 6.89062 8.81836C6.32432 8.81836 5.86523 8.35927 5.86523 7.79297C5.86523 7.22667 6.32432 6.76758 6.89062 6.76758ZM13.043 7.79297C13.043 8.35927 13.5021 8.81836 14.0684 8.81836C14.6347 8.81836 15.0938 8.35927 15.0938 7.79297C15.0938 7.22667 14.6347 6.76758 14.0684 6.76758C13.5021 6.76758 13.043 7.22667 13.043 7.79297Z" fill="#9498AB"/>
</g>
<defs>
<clipPath id="clip0_3025_117">
<rect width="21" height="21" fill="white"/>
</clipPath>
</defs>
</svg>
