<svg width="15" height="15" fill="none" xmlns="http://www.w3.org/2000/svg"><path d="M7.5 15a7.5 7.5 0 100-15 7.5 7.5 0 000 15z" fill="url(#paint0_linear_3174_2397)"/><path fill-rule="evenodd" clip-rule="evenodd" d="M3.396 7.42C5.582 6.469 7.04 5.84 7.77 5.538c2.083-.866 2.515-1.017 2.797-1.022.062-.001.201.014.291.087.133.108.134.343.12.499-.114 1.186-.602 4.063-.85 5.392-.106.562-.313.75-.513.769-.436.04-.766-.288-1.188-.565-.66-.432-1.033-.702-1.674-1.124-.74-.488-.26-.756.162-1.194.11-.115 2.03-1.86 2.066-2.019.005-.02.01-.094-.035-.133-.043-.039-.108-.025-.155-.015-.066.015-1.12.712-3.163 2.091-.3.206-.57.306-.814.3-.268-.005-.783-.15-1.166-.275-.47-.153-.843-.233-.81-.493.017-.135.203-.273.558-.414z" fill="#fff"/><defs><linearGradient id="paint0_linear_3174_2397" x1="7.5" y1="0" x2="7.5" y2="14.883" gradientUnits="userSpaceOnUse"><stop stop-color="#2AABEE"/><stop offset="1" stop-color="#229ED9"/></linearGradient></defs></svg>