<svg width="21" height="17" fill="none" xmlns="http://www.w3.org/2000/svg"><path d="M20.5 2.299a8.55 8.55 0 01-2.363.647A4.077 4.077 0 0019.941.68a8.194 8.194 0 01-2.6.993 4.099 4.099 0 00-7.093 2.804c0 .324.028.637.096.934-3.409-.166-6.425-1.8-8.451-4.288-1.45 2.61.17 4.75 1.26 5.48A4.05 4.05 0 011.3 6.098a4.134 4.134 0 003.285 4.073c-.407.136-1.298.209-1.851.065.531 1.624 2.038 2.818 3.831 2.856C5.17 14.184 3.115 15.073.5 14.785a11.543 11.543 0 006.29 1.84c7.545 0 11.67-6.25 11.67-11.668 0-.18-.006-.356-.015-.53A8.18 8.18 0 0020.5 2.3z" fill="#1DA1F3"/></svg>