<svg width="18" height="19" viewBox="0 0 18 19" fill="none" xmlns="http://www.w3.org/2000/svg">
<path d="M7.87329 0.689941C3.53441 0.689941 0 4.22435 0 8.56325C0 12.9021 3.53441 16.4434 7.87329 16.4434C9.72656 16.4434 11.431 15.7939 12.7781 14.7156L16.0576 17.9934C16.2231 18.1521 16.4442 18.2396 16.6734 18.2372C16.9027 18.2349 17.1219 18.1429 17.2841 17.9809C17.4463 17.8189 17.5386 17.5998 17.5413 17.3706C17.544 17.1414 17.4568 16.9202 17.2983 16.7545L14.0188 13.4749C15.098 12.1258 15.7483 10.4187 15.7483 8.56325C15.7483 4.22435 12.2122 0.689941 7.87329 0.689941ZM7.87329 2.43997C11.2664 2.43997 13.9966 5.17014 13.9966 8.56325C13.9966 11.9564 11.2664 14.6934 7.87329 14.6934C4.48018 14.6934 1.75 11.9564 1.75 8.56325C1.75 5.17014 4.48018 2.43997 7.87329 2.43997Z" fill="#69768F"/>
</svg>
