<svg width="18" height="18" viewBox="0 0 18 18" fill="none" xmlns="http://www.w3.org/2000/svg">
<path d="M9.00542 14.6112C9.00542 14.9283 8.8222 15.2163 8.53548 15.3508C8.42462 15.4032 8.30583 15.4286 8.18782 15.4286C8.00092 15.4286 7.81577 15.3643 7.66622 15.2403L3.19747 11.5373H0.817408C0.366044 11.5377 0 11.1715 0 10.7201V7.46345C0 7.01189 0.366044 6.64585 0.817408 6.64585H3.19766L7.66642 2.94284C7.91057 2.74047 8.24915 2.69733 8.53567 2.83276C8.8222 2.96722 9.00561 3.25549 9.00561 3.57239L9.00542 14.6112Z" fill="#F8F9FC"/>
<path d="M13 7L17 11" stroke="#F8F9FC" stroke-width="1.7" stroke-linecap="round"/>
<path d="M17 7L13 11" stroke="#F8F9FC" stroke-width="1.7" stroke-linecap="round"/>
</svg>
