<svg width="18" height="18" fill="none" xmlns="http://www.w3.org/2000/svg"><path d="M9.005 14.611a.817.817 0 01-1.339.63l-4.469-3.704H.817A.817.817 0 010 10.72V7.463c0-.451.366-.817.817-.817h2.38l4.47-3.703a.817.817 0 011.34.63L9.004 14.61zm3.142-1.277a.817.817 0 01-.637-.237l-.11-.11a.817.817 0 01-.078-1.065 4.717 4.717 0 00.935-2.83c0-1.104-.367-2.14-1.06-2.995a.817.817 0 01.055-1.093l.11-.109a.819.819 0 011.211.06 6.465 6.465 0 011.471 4.137c0 1.423-.45 2.777-1.3 3.916a.818.818 0 01-.597.326zm3.38 2.526a.818.818 0 01-1.204.05l-.107-.107c-.3-.3-.32-.78-.047-1.104a8.725 8.725 0 002.044-5.607c0-2.13-.777-4.181-2.189-5.774a.818.818 0 01.033-1.12l.107-.107a.817.817 0 011.19.034A10.48 10.48 0 0118 9.092c0 2.474-.878 4.878-2.474 6.768z" fill="#F8F9FC"/></svg>