<?xml version="1.0" standalone="no"?>
<!DOCTYPE svg PUBLIC "-//W3C//DTD SVG 1.1//EN" "http://www.w3.org/Graphics/SVG/1.1/DTD/svg11.dtd" >
<svg xmlns="http://www.w3.org/2000/svg">
<metadata>Generated by IcoMoon</metadata>
<defs>
<font id="icons-font" horiz-adv-x="1024">
<font-face units-per-em="1024" ascent="960" descent="-64" />
<missing-glyph horiz-adv-x="1024" />
<glyph unicode="&#x20;" horiz-adv-x="512" d="" />
<glyph unicode="&#xe900;" glyph-name="pagination-angle-right" horiz-adv-x="683" d="M583.708 447.998c0-18.352-7.006-36.702-20.992-50.695l-440.302-440.296c-28.008-28.009-73.419-28.009-101.417 0-27.997 27.997-27.997 73.399 0 101.41l389.603 389.581-389.59 389.582c-27.997 28.009-27.997 73.406 0 101.402 27.997 28.022 73.409 28.022 101.417 0l440.302-440.29c13.988-13.999 20.978-32.349 20.978-50.694z" />
<glyph unicode="&#xe901;" glyph-name="notifications-icon" horiz-adv-x="939" d="M887.799 217.118l-59.281 85.282c-8.090 11.593-12.446 25.382-12.48 39.518v244.749c0 91.942-36.523 180.118-101.534 245.13-65.015 65.013-153.19 101.536-245.133 101.536-91.94 0-180.116-36.524-245.129-101.536s-101.536-153.189-101.536-245.13v-244.749c-0.033-14.135-4.388-27.925-12.48-39.518l-59.28-85.282c-8.976-9.941-14.878-22.276-16.994-35.503-2.115-13.231-0.353-26.79 5.075-39.036 5.427-12.25 14.287-22.665 25.507-29.982 11.22-7.322 24.321-11.234 37.718-11.264h197.253c7.957-39.185 29.215-74.411 60.173-99.716 30.958-25.301 69.71-39.125 109.693-39.125s78.737 13.824 109.696 39.125c30.959 25.306 52.215 60.531 60.173 99.716h197.252c13.397 0.030 26.496 3.942 37.717 11.264 11.221 7.317 20.083 17.732 25.51 29.982 5.427 12.245 7.189 25.805 5.073 39.036-2.116 13.227-8.017 25.562-16.994 35.503zM469.372 32c-21.457 0.060-42.368 6.754-59.87 19.17-17.502 12.412-30.737 29.935-37.888 50.163h195.52c-7.151-20.228-20.386-37.751-37.888-50.163-17.502-12.416-38.417-19.11-59.874-19.17zM102.253 170.667c1.567 1.455 2.963 3.081 4.16 4.851l60.666 87.36c16.184 23.189 24.893 50.765 24.96 79.040v244.749c0 73.553 29.219 144.094 81.229 196.104s122.551 81.229 196.103 81.229c73.553 0 144.094-29.219 196.105-81.229s81.229-122.551 81.229-196.104v-244.749c0.068-28.275 8.777-55.851 24.96-79.040l60.668-87.36c1.199-1.771 2.594-3.396 4.16-4.851h-734.24z" />
<glyph unicode="&#xe902;" glyph-name="fullscreen-icon" d="M77.562 15.999v-2.438h282.438c20.746 0 37.562-16.813 37.562-37.561 0-20.743-16.816-37.561-37.562-37.561h-320c-20.745 0-37.562 16.818-37.562 37.561v320c0 20.748 16.816 37.561 37.562 37.561s37.562-16.813 37.562-37.561v-280.001zM80 882.438h-2.438v-282.438c0-20.746-16.817-37.562-37.562-37.562s-37.562 16.816-37.562 37.562v320c0 20.745 16.816 37.562 37.562 37.562h320c20.746 0 37.562-16.816 37.562-37.562s-16.816-37.562-37.562-37.562h-280zM944.001 13.561h2.438v282.439c0 20.748 16.813 37.561 37.561 37.561 20.743 0 37.561-16.813 37.561-37.561v-320c0-20.743-16.818-37.561-37.561-37.561h-320c-20.748 0-37.561 16.818-37.561 37.561 0 20.748 16.813 37.561 37.561 37.561h280.001zM946.439 880v2.438h-282.439c-20.748 0-37.561 16.817-37.561 37.562s16.813 37.562 37.561 37.562h320c20.743 0 37.561-16.816 37.561-37.562v-320c0-20.746-16.818-37.562-37.561-37.562-20.748 0-37.561 16.816-37.561 37.562v280z" />
<glyph unicode="&#xe903;" glyph-name="angle-down-gray" horiz-adv-x="1536" d="M767.997 84.437c-27.529 0-55.054 10.51-76.042 31.488l-660.445 660.453c-42.013 42.012-42.013 110.129 0 152.125 41.996 41.996 110.099 41.996 152.116 0l584.371-584.405 584.373 584.385c42.013 41.996 110.109 41.996 152.102 0 42.033-41.996 42.033-110.113 0-152.125l-660.434-660.453c-20.999-20.982-48.524-31.468-76.041-31.468z" />
<glyph unicode="&#xe904;" glyph-name="apps-icon" d="M884.798-31.998h-217.6c-59.196 0-107.199 47.999-107.199 107.199v292.797c0 17.599 14.403 32.002 32.002 32.002h292.797c59.201 0 107.199-48.003 107.199-107.199v-217.6c0-59.201-47.999-107.199-107.199-107.199zM623.999 336.001v-260.799c0-24.002 19.202-43.204 43.199-43.204h217.6c24.002 0 43.204 19.202 43.204 43.204v217.6c0 23.997-19.202 43.199-43.204 43.199h-260.799zM356.8-31.998h-217.6c-59.2 0-107.2 47.999-107.2 107.199v217.6c0 59.196 48 107.199 107.2 107.199h292.8c17.599 0 32.001-14.403 32.001-32.002v-292.797c0-59.201-48.001-107.199-107.201-107.199zM139.2 336.001c-24 0-43.2-19.202-43.2-43.199v-217.6c0-24.002 19.2-43.204 43.2-43.204h217.6c24 0 43.2 19.202 43.2 43.204v260.799h-260.8zM884.798 495.999h-292.797c-17.599 0-32.002 14.403-32.002 32.001v292.8c0 59.2 48.003 107.2 107.199 107.2h217.6c59.201 0 107.199-48 107.199-107.2v-217.6c0-59.2-47.999-107.201-107.199-107.201zM623.999 560h260.799c24.002 0 43.204 19.2 43.204 43.2v217.6c0 24-19.202 43.2-43.204 43.2h-217.6c-23.997 0-43.199-19.2-43.199-43.2v-260.8zM432 495.999h-292.8c-59.2 0-107.2 48.001-107.2 107.201v217.6c0 59.2 48 107.2 107.2 107.2h217.6c59.2 0 107.201-48 107.201-107.2v-292.8c0-17.599-14.403-32.001-32.001-32.001zM139.2 864c-24 0-43.2-19.2-43.2-43.2v-217.6c0-24 19.2-43.2 43.2-43.2h260.8v260.8c0 24-19.2 43.2-43.2 43.2h-217.6z" />
<glyph unicode="&#xe905;" glyph-name="play-icon" d="M899.739 563.6l-640 361.076c-20.901 11.944-44.592 18.14-68.665 17.956s-47.667-6.741-68.383-19.003c-20.182-11.543-36.95-28.222-48.6-48.343s-17.766-42.967-17.728-66.217v-722.153c-0.038-23.25 6.078-46.097 17.728-66.214 11.649-20.126 28.417-36.808 48.6-48.342 20.718-12.26 44.311-18.814 68.383-19s47.762 6.014 68.665 17.948l640 361.076c20.641 11.434 37.845 28.186 49.826 48.515 11.971 20.33 18.292 43.496 18.292 67.092s-6.321 46.761-18.292 67.092c-11.981 20.329-29.185 37.081-49.826 48.515z" />
<glyph unicode="&#xe906;" glyph-name="date-icon" d="M984 256c22.093 0 40 17.907 40 40v424c0 88.224-71.776 160-160 160h-52v40c0 22.092-17.907 40-40 40s-40-17.908-40-40v-40h-182v40c0 22.092-17.908 40-40 40s-40-17.908-40-40v-40h-180v40c0 22.092-17.908 40-40 40s-40-17.908-40-40v-40h-50c-88.224 0-160-71.776-160-160v-624c0-88.224 71.776-160 160-160h704c88.224 0 160 71.776 160 160 0 22.093-17.907 40-40 40s-40-17.907-40-40c0-44.109-35.891-80-80-80h-704c-44.112 0-80 35.891-80 80v624c0 44.112 35.888 80 80 80h50v-40c0-22.092 17.908-40 40-40s40 17.908 40 40v40h180v-40c0-22.092 17.908-40 40-40s40 17.908 40 40v40h182v-40c0-22.092 17.907-40 40-40s40 17.908 40 40v40h52c44.109 0 80-35.888 80-80v-424c0-22.093 17.907-40 40-40zM250 500c22.092 0 40 17.908 40 40s-17.908 40-40 40c-22.092 0-40-17.908-40-40s17.908-40 40-40zM598 500c22.092 0 40 17.908 40 40s-17.908 40-40 40c-22.092 0-40-17.908-40-40s17.908-40 40-40zM772 500c22.093 0 40 17.908 40 40s-17.907 40-40 40c-22.093 0-40-17.908-40-40s17.907-40 40-40zM250 326c22.092 0 40 17.908 40 40s-17.908 40-40 40c-22.092 0-40-17.908-40-40s17.908-40 40-40zM250 152c22.092 0 40 17.907 40 40s-17.908 40-40 40c-22.092 0-40-17.907-40-40s17.908-40 40-40zM424 500c22.092 0 40 17.908 40 40s-17.908 40-40 40c-22.092 0-40-17.908-40-40s17.908-40 40-40zM424 326c22.092 0 40 17.908 40 40s-17.908 40-40 40c-22.092 0-40-17.908-40-40s17.908-40 40-40zM424 152c22.092 0 40 17.907 40 40s-17.908 40-40 40c-22.092 0-40-17.907-40-40s17.908-40 40-40zM598 326c22.092 0 40 17.908 40 40s-17.908 40-40 40c-22.092 0-40-17.908-40-40s17.908-40 40-40zM772 326c22.093 0 40 17.908 40 40s-17.907 40-40 40c-22.093 0-40-17.908-40-40s17.907-40 40-40zM598 152c22.092 0 40 17.907 40 40s-17.908 40-40 40c-22.092 0-40-17.907-40-40s17.908-40 40-40z" />
<glyph unicode="&#xe907;" glyph-name="clock-icon" d="M694.426 357.581l-142.772 107.080v218.124c0 21.932-17.728 39.66-39.66 39.66s-39.66-17.728-39.66-39.66v-237.956c0-12.492 5.87-24.272 15.864-31.728l158.635-118.979c7.14-5.353 15.468-7.93 23.757-7.93 12.095 0 23.996 5.433 31.767 15.906 13.17 17.488 9.603 42.354-7.93 55.484zM512 960c-282.334 0-512-229.666-512-512s229.666-512 512-512c282.334 0 512 229.666 512 512s-229.666 512-512 512zM512 15.32c-238.55 0-432.682 194.128-432.682 432.68 0 238.55 194.132 432.682 432.682 432.682 238.592 0 432.68-194.132 432.68-432.682 0-238.552-194.128-432.68-432.68-432.68z" />
<glyph unicode="&#xe908;" glyph-name="reject-icon-converted" d="M847.076 898.56c-13.767-2.048-27.307-6.827-38.457-13.54-7.623-4.665-47.332-43.349-153.372-149.504l-143.132-143.246-143.019 142.564c-90.226 89.998-146.318 144.725-152.007 148.366-22.3 13.881-52.452 18.887-77.824 12.971-23.666-5.575-49.721-23.893-62.578-43.918-20.594-32.085-21.276-75.207-1.707-107.52 4.437-7.282 45.511-49.493 149.39-153.372l143.36-143.36-142.564-142.905c-89.998-90.226-144.725-146.318-148.366-152.007-13.653-22.073-18.887-52.793-12.971-77.596 15.815-67.356 92.843-99.669 152.576-63.943 6.599 3.868 52.224 48.469 152.462 148.935l143.019 143.246 143.019-142.564c88.633-88.519 146.318-144.839 151.893-148.252 21.732-13.54 53.248-18.887 77.71-13.084 67.356 15.815 99.669 92.729 63.943 152.69-3.868 6.599-47.673 51.428-148.935 152.348l-143.246 142.905 142.564 143.019c89.884 90.226 144.725 146.432 148.366 152.121 13.767 22.187 18.887 52.452 12.971 77.596-8.192 34.93-36.181 64.626-70.201 74.411-14.222 4.096-30.834 5.461-42.894 3.641z" />
<glyph unicode="&#xe909;" glyph-name="chec-icon" horiz-adv-x="1317" d="M1278.009 702.075l-694.547-694.497c-51.433-51.443-134.862-51.443-186.343 0l-358.53 358.555c-51.452 51.441-51.452 134.883 0 186.334 51.461 51.46 134.886 51.46 186.324 0.019l265.405-265.408 601.338 601.34c51.46 51.461 134.892 51.422 186.333 0 51.443-51.452 51.443-134.863 0.020-186.344z" />
<glyph unicode="&#xe90a;" glyph-name="remove-friend-icon" d="M640 150.4c0 22.976 18.624 41.6 41.6 41.6h300.8c22.976 0 41.6-18.624 41.6-41.6s-18.624-41.6-41.6-41.6h-300.8c-22.976 0-41.6 18.624-41.6 41.6zM490.472 919.438c-148.973 0-270.833-121.947-270.833-270.92 0-91.091 45.696-171.756 115.167-220.831-161.714-64.83-276.417-222.995-276.417-407.5-1.291-58.17 86.625-58.17 85.333 0 0 195.84 157.907 353.667 353.75 353.667 68.363 0 131.82-19.485 185.836-52.914 48.55-29.777 93.222 43.052 44.666 72.83-24.32 15.045-50.669 26.779-77.837 36.919 67.059 49.328 110.918 128.55 110.918 217.83 0 148.973-121.61 270.92-270.584 270.92zM490.472 834.019c102.856 0 185.252-82.646 185.252-185.502s-82.396-185.162-185.252-185.162c-102.856 0-185.5 82.306-185.5 185.162s82.644 185.502 185.5 185.502z" />
<glyph unicode="&#xe90b;" glyph-name="log-out-icon-black" d="M950.4 293.6l-1.382-2.886c23.392-11.226 33.139-39.117 22.093-62.534-40.941-85.062-104.742-157.21-184.442-208.486-81.882-52.666-176.879-80.493-274.669-80.493-135.951 0-263.537 52.864-359.737 149.062h-0.003c-96.197 96-149.060 223.782-149.060 359.738 0 135.953 52.864 263.737 149.060 359.735l0.004 0.004c95.998 96.197 223.782 149.060 359.735 149.060 97.789 0 192.787-27.825 274.675-80.294v-0.002c79.898-51.077 143.494-123.221 184.442-208.488 11.226-23.396 1.318-51.292-21.901-62.531-23.398-11.23-51.296-1.314-62.534 21.91-33.453 69.526-85.453 128.579-150.554 170.3l-0.006 0.003c-66.912 42.726-144.308 65.503-224.122 65.503-228.967 0-415.2-186.233-415.2-415.2s186.233-415.2 415.2-415.2c79.813 0 157.216 22.778 223.93 65.709v0c65.094 41.92 117.094 100.768 150.554 170.298 11.238 23.226 39.328 33.133 62.522 21.914l1.395 2.88zM612.45 494.375h7.725l-79.263 79.263c-18.35 18.35-18.35 47.924 0 66.275s47.924 18.35 66.275 0l125.798-125.8c17.6-17.599 27.462-41.386 27.462-66.337 0-24.956-9.664-48.541-27.462-66.337l-125.798-125.802c-9.167-9.165-21.139-13.658-33.137-13.658-11.996 0-23.965 4.493-33.132 13.658-18.171 18.362-18.135 47.923 0.171 65.853l79.286 79.286h-292.125c-25.833 0-46.8 20.967-46.8 46.8s20.967 46.8 46.8 46.8h284.2z" />
<glyph unicode="&#xe90c;" glyph-name="help-icon-black" d="M512 152.998c27.614 0 50 22.387 50 50.003 0 27.61-22.386 49.997-50 49.997s-50-22.387-50-49.997c0-27.616 22.386-50.003 50-50.003zM512 960c-282.968 0-512-228.994-512-512 0-282.97 228.994-512 512-512 282.97 0 512 228.992 512 512 0 282.968-228.992 512-512 512zM512 16c-238.754 0-432 193.216-432 432 0 238.754 193.214 432 432 432 238.752 0 432-193.214 432-432 0-238.752-193.216-432-432-432zM512 703c-88.224 0-160-71.777-160-160 0-22.092 17.908-40 40-40s40 17.908 40 40c0 44.111 35.888 80 80 80s80-35.889 80-80c0-44.112-35.888-80-80-80-22.092 0-40-17.908-40-40v-100c0-22.092 17.908-39.999 40-39.999s40 17.907 40 39.999v65.062c68.932 17.806 120 80.52 120 154.938 0 88.223-71.776 160-160 160z" />
<glyph unicode="&#xe90d;" glyph-name="replies-icon" horiz-adv-x="1161" d="M425.899 221.655h561.176l-208.418-208.411 64.075-64.075 317.802 317.795-317.802 317.802-64.075-64.074 208.418-208.417h-561.178c-184.874 0-335.28 150.406-335.28 335.28 0 86.949 43.969 160.838 80.854 207.508l28.090 35.546-71.096 56.186-28.090-35.546c-45.791-57.943-100.377-150.727-100.377-263.694 0.005-234.842 191.061-425.9 425.901-425.9z" />
<glyph unicode="&#xe90e;" glyph-name="settings-icon" d="M898.177 576h-4.096c-6.006 0.053-11.852 1.913-16.785 5.338s-8.717 8.255-10.863 13.862c-2.262 5.414-2.858 11.379-1.719 17.134s3.962 11.041 8.116 15.186l2.912 2.912c17.555 17.621 27.412 41.48 27.412 66.352s-9.857 48.731-27.412 66.352l-48.351 48.32c-17.608 17.567-41.463 27.433-66.337 27.433-24.87 0-48.729-9.866-66.333-27.433l-2.912-2.912c-4.292-4.132-9.697-6.921-15.547-8.026-5.855-1.105-11.901-0.477-17.404 1.806s-10.218 6.123-13.566 11.048c-3.352 4.925-5.191 10.72-5.294 16.676v4.128c-0.027 24.876-9.919 48.725-27.51 66.315s-41.436 27.483-66.315 27.509h-68.35c-24.879-0.025-48.727-9.919-66.316-27.509s-27.483-41.439-27.509-66.315v-4.128c-0.156-5.913-2.023-11.654-5.374-16.527s-8.043-8.671-13.509-10.933c-5.465-2.262-11.468-2.891-17.284-1.811s-11.193 3.822-15.482 7.895l-2.752 2.912c-17.607 17.567-41.464 27.433-66.336 27.433s-48.729-9.866-66.336-27.433l-48.512-48.32c-17.554-17.621-27.409-41.48-27.409-66.352s9.856-48.731 27.409-66.352l2.912-2.912c4.194-4.291 7.001-9.743 8.056-15.649s0.311-11.993-2.136-17.471c-2.196-5.456-5.969-10.134-10.837-13.434s-10.61-5.074-16.491-5.094h-4.096c-24.876-0.025-48.725-9.919-66.315-27.509s-27.483-41.438-27.509-66.316v-68.35c0.025-24.879 9.919-48.725 27.509-66.315s41.439-27.483 66.315-27.51h4.096c6.004-0.053 11.853-1.914 16.784-5.338s8.717-8.254 10.864-13.864c2.26-5.414 2.859-11.375 1.719-17.132s-3.966-11.041-8.119-15.186l-2.912-2.912c-17.554-17.622-27.41-41.481-27.41-66.351 0-24.874 9.856-48.733 27.41-66.351l48.32-48.288c17.604-17.586 41.469-27.465 66.352-27.465s48.748 9.879 66.352 27.465l2.912 2.912c4.293 4.189 9.745 6.994 15.65 8.050s11.991 0.312 17.47-2.133c5.456-2.186 10.134-5.953 13.436-10.814s5.074-10.601 5.092-16.482v-4.127c-0.008-12.341 2.417-24.567 7.137-35.974s11.642-21.771 20.371-30.502c8.729-8.726 19.093-15.649 30.5-20.369 11.406-4.724 23.631-7.146 35.977-7.137h68.35c24.879 0.022 48.725 9.915 66.315 27.506s27.483 41.441 27.51 66.315v4.127c0.156 5.912 2.021 11.656 5.374 16.531 3.352 4.871 8.045 8.668 13.508 10.93 5.467 2.262 11.469 2.894 17.283 1.812s11.193-3.82 15.485-7.894l2.912-2.912c17.604-17.568 41.463-27.434 66.333-27.434 24.874 0 48.729 9.866 66.337 27.434l48.351 48.288c17.555 17.617 27.412 41.476 27.412 66.351 0 24.87-9.857 48.729-27.412 66.351l-2.912 2.912c-4.194 4.292-6.999 9.746-8.054 15.649-1.055 5.908-0.312 11.994 2.137 17.47 2.19 5.463 5.961 10.147 10.828 13.454 4.871 3.304 10.614 5.084 16.5 5.107h4.096c24.874 0.027 48.725 9.919 66.315 27.51s27.483 41.436 27.506 66.315v68.35c-0.022 24.879-9.915 48.727-27.506 66.316s-41.441 27.483-66.315 27.509zM928.002 413.825c-0.009-7.907-3.157-15.489-8.749-21.081-5.587-5.592-13.17-8.735-21.077-8.744h-4.096c-18.57-0.156-36.681-5.779-52.082-16.161-15.396-10.382-27.399-25.066-34.504-42.224-7.106-17.154-9.007-36.023-5.463-54.254 3.544-18.227 12.373-35.012 25.391-48.257l2.881-2.912c5.587-5.601 8.726-13.192 8.726-21.103s-3.139-15.502-8.726-21.103l-48.351-48.288c-5.592-5.592-13.178-8.735-21.090-8.735-7.907 0-15.494 3.143-21.085 8.735l-2.881 2.912c-13.25 13-30.034 21.82-48.257 25.355s-37.087 1.634-54.236-5.472c-17.15-7.106-31.833-19.1-42.216-34.487-10.387-15.387-16.014-33.489-16.188-52.055v-4.127c-0.009-7.907-3.152-15.489-8.744-21.077-5.592-5.592-13.174-8.74-21.081-8.749h-68.35c-7.907 0.009-15.489 3.157-21.081 8.749-5.592 5.587-8.735 13.17-8.744 21.077v4.127c-0.089 18.601-5.671 36.762-16.043 52.202s-25.074 27.474-42.26 34.593c-17.186 7.115-36.091 8.998-54.342 5.409s-35.037-12.488-48.25-25.578l-2.912-2.912c-5.601-5.579-13.184-8.708-21.088-8.708s-15.486 3.13-21.088 8.708l-48.32 48.288c-5.587 5.601-8.724 13.192-8.724 21.103s3.137 15.502 8.724 21.103l2.912 2.912c13.030 13.245 21.871 30.034 25.421 48.27s1.648 37.118-5.465 54.281c-7.113 17.163-19.123 31.855-34.532 42.238-15.409 10.378-33.533 15.992-52.113 16.139h-4.096c-7.907 0.009-15.488 3.152-21.079 8.744s-8.736 13.174-8.745 21.081v68.35c0.008 7.907 3.153 15.489 8.745 21.081s13.172 8.735 21.079 8.744h4.096c18.57 0.156 36.683 5.778 52.080 16.161s27.397 25.068 34.505 42.224c7.107 17.156 9.008 36.026 5.464 54.255s-12.375 35.012-25.393 48.256l-2.88 2.912c-5.585 5.597-8.721 13.181-8.721 21.088s3.136 15.491 8.721 21.088l48.32 48.352c5.593 5.592 13.178 8.734 21.088 8.734s15.495-3.142 21.088-8.734l2.88-2.912c13.246-13.011 30.028-21.838 48.254-25.381s37.093-1.644 54.248 5.458c17.156 7.102 31.843 19.095 42.232 34.484s16.020 33.495 16.193 52.062v4.128c0.009 7.907 3.152 15.488 8.744 21.079s13.174 8.736 21.081 8.745h68.35c7.907-0.008 15.489-3.153 21.081-8.745s8.735-13.172 8.744-21.079v-4.128c0.165-18.567 5.788-36.676 16.175-52.068 10.382-15.393 25.070-27.388 42.224-34.491s36.023-9.001 54.25-5.457c18.227 3.545 35.003 12.376 48.248 25.392l2.912 2.912c5.592 5.592 13.178 8.734 21.085 8.734 7.912 0 15.498-3.142 21.090-8.734l48.319-48.352c5.583-5.597 8.722-13.181 8.722-21.088s-3.139-15.491-8.722-21.088l-2.912-2.912c-13.018-13.246-21.851-30.032-25.395-48.264-3.539-18.232-1.638-37.104 5.472-54.262 7.115-17.158 19.118-31.842 34.522-42.222 15.4-10.38 33.516-15.997 52.090-16.148h4.096c7.907-0.009 15.489-3.152 21.077-8.744 5.592-5.592 8.74-13.174 8.749-21.081v-68.35zM512 672c-44.304 0-87.611-13.137-124.448-37.751s-65.547-59.597-82.501-100.528c-16.954-40.932-21.39-85.971-12.747-129.419 8.643-43.453 29.977-83.367 61.304-114.692 31.327-31.33 71.24-52.66 114.694-61.306 43.449-8.642 88.487-4.207 129.42 12.747 40.929 16.954 75.914 45.666 100.526 82.503 24.616 36.837 37.754 80.144 37.754 124.447-0.071 59.388-23.69 116.324-65.683 158.317-41.997 41.993-98.932 65.615-158.319 65.683zM512 288.002c-31.646 0-62.58 9.381-88.891 26.962s-46.82 42.572-58.929 71.805c-12.11 29.237-15.279 61.409-9.105 92.445s21.412 59.546 43.789 81.923c22.376 22.376 50.887 37.615 81.923 43.788s63.208 3.005 92.445-9.105c29.233-12.11 54.223-32.618 71.805-58.929s26.967-57.245 26.967-88.891c-0.053-42.42-16.927-83.086-46.921-113.081s-70.66-46.868-113.081-46.917z" />
<glyph unicode="&#xe90f;" glyph-name="publications-icon" d="M160.628 854.588c-30.495 0-55.216-24.721-55.216-55.216v-702.743c0-30.497 24.721-55.218 55.216-55.218h702.743c30.497 0 55.218 24.721 55.218 55.218v702.743c0 30.495-24.721 55.216-55.218 55.216h-702.743zM15.059 799.372c0 80.395 65.173 145.569 145.569 145.569h702.743c80.396 0 145.571-65.173 145.571-145.569v-702.743c0-80.396-65.175-145.571-145.571-145.571h-702.743c-80.395 0-145.569 65.175-145.569 145.571v702.743zM15.059 598.588c0 24.95 20.226 45.176 45.176 45.176h903.529c24.949 0 45.176-20.226 45.176-45.176s-20.227-45.176-45.176-45.176h-903.529c-24.95 0-45.176 20.226-45.176 45.176zM361.412 643.765c24.95 0 45.176-20.226 45.176-45.176v-602.353c0-24.949-20.226-45.176-45.176-45.176s-45.176 20.227-45.176 45.176v602.353c0 24.95 20.226 45.176 45.176 45.176z" />
<glyph unicode="&#xe910;" glyph-name="post-it-icon" horiz-adv-x="1103" d="M969.232 955.085l-905.139-394.546c-44.445-19.379-46.483-81.671-3.396-103.911l183.594-94.76 546.812 380.386c5.679 3.954 11.729-0.728 12.020-6.068l-458.078-437.251c-11.375-10.862-17.811-25.906-17.811-41.634v-202.485c0-58.132 76.354-79.62 106.669-30.019l111.132 181.852 235.134-121.365c33.145-17.101 73.554 1.347 82.337 37.589l185.667 765.887c11.201 46.236-35.328 85.335-78.943 66.326z" />
<glyph unicode="&#xe911;" glyph-name="message-user-icon" d="M512 960c-282.969 0-512-228.992-512-512 0-89.805 23.422-177.514 67.898-254.874l-65.969-204.861c-4.602-14.281-0.82-29.935 9.789-40.544 10.508-10.513 26.125-14.432 40.547-9.789l204.859 65.966c77.359-44.476 165.070-67.898 254.875-67.898 282.972 0 512 228.994 512 512 0 282.969-228.994 512-512 512zM512 16.002c-81.117 0-160.188 22.63-228.664 65.454-9.852 6.151-22.086 7.817-33.469 4.151l-147.883-47.623 47.625 147.886c3.61 11.216 2.086 23.463-4.164 33.464-42.813 68.478-65.445 147.549-65.445 228.666 0 238.203 193.797 432 432 432s431.998-193.797 431.998-432c0-238.203-193.795-431.998-431.998-431.998zM562 448c0-27.609-22.383-50-50-50s-50 22.391-50 50c0 27.617 22.383 50 50 50s50-22.383 50-50zM761.999 448c0-27.609-22.385-50-49.999-50-27.621 0-50.001 22.391-50.001 50 0 27.617 22.38 50 50.001 50 27.614 0 49.999-22.383 49.999-50zM362 448c0-27.609-22.383-50-50-50-27.609 0-50 22.391-50 50 0 27.617 22.391 50 50 50 27.617 0 50-22.383 50-50z" />
<glyph unicode="&#xe912;" glyph-name="add-friend-icon" d="M490.472 919.438c-148.973 0-270.833-121.947-270.833-270.92 0-91.091 45.696-171.756 115.167-220.831-161.714-64.83-276.417-222.995-276.417-407.5-1.291-58.17 86.625-58.17 85.333 0 0 195.84 157.907 353.667 353.75 353.667 68.363 0 131.82-19.485 185.836-52.914 48.55-29.777 93.222 43.052 44.666 72.83-24.32 15.045-50.669 26.779-77.837 36.919 67.059 49.328 110.918 128.55 110.918 217.83 0 148.973-121.61 270.92-270.584 270.92zM490.472 834.019c102.856 0 185.252-82.646 185.252-185.502s-82.396-185.162-185.252-185.162c-102.856 0-185.5 82.306-185.5 185.162s82.644 185.502 185.5 185.502zM752.224 108.019v-85.331c1.235-55.642 84.096-55.642 85.331 0v85.331h85.414c56.947 0 56.947 85.414 0 85.414h-85.414v85.338c0.275 23.917-19.162 43.4-43.085 43.166-23.597-0.161-42.522-19.576-42.246-43.166v-85.338h-87.379c-58.983-2.726-54.9-88.134 2.042-85.414h85.338z" />
<glyph unicode="&#xe913;" glyph-name="users-search-icon" horiz-adv-x="970" d="M424.329 922.816c-233.843 0-424.329-190.486-424.329-424.33 0-233.841 190.486-424.699 424.329-424.699 99.881 0 191.742 35.005 264.343 93.119l176.748-176.656c8.92-8.553 20.836-13.269 33.188-13.14 12.358 0.124 24.172 5.082 32.914 13.813s13.716 20.539 13.862 32.892c0.146 12.353-4.554 24.274-13.096 33.205l-176.748 176.753c58.163 72.709 93.211 164.713 93.211 264.712 0 233.844-190.577 424.33-424.422 424.33zM424.329 828.498c182.871 0 330.014-147.142 330.014-330.013 0-182.873-147.143-330.383-330.014-330.383s-330.013 147.51-330.013 330.383c0 182.871 147.142 330.013 330.013 330.013z" />
<glyph unicode="&#xe914;" glyph-name="plus-icon" d="M933.99 538.010h-331.878v331.878c0 49.711-40.299 90.010-90.010 90.010s-90.010-40.299-90.010-90.010v0-331.776h-331.981c-49.711 0-90.010-40.299-90.010-90.010s40.299-90.010 90.010-90.010v0h331.776v-331.981c0-49.711 40.299-90.010 90.010-90.010s90.010 40.299 90.010 90.010v0 331.776h331.981c49.711 0 90.010 40.299 90.010 90.010s-40.299 90.010-90.010 90.010v0z" />
<glyph unicode="&#xe915;" glyph-name="smile-icon" d="M512-64c-136.76 0-265.334 53.258-362.040 149.962-96.702 96.705-149.96 225.28-149.96 362.038 0 136.76 53.258 265.334 149.96 362.040 96.706 96.702 225.28 149.96 362.040 149.96 136.758 0 265.333-53.258 362.038-149.96 96.705-96.706 149.962-225.28 149.962-362.040 0-136.758-53.258-265.333-149.962-362.038s-225.28-149.962-362.038-149.962zM512 880c-238.206 0-432-193.794-432-432s193.794-432.001 432-432.001c238.207 0 432.001 193.794 432.001 432.001s-193.794 432-432.001 432zM699.475 359.624c-18.637 11.864-43.364 6.368-55.223-12.273-0.492-0.77-50.274-77.473-134.251-77.473-83.981 0-133.761 76.702-134.255 77.473-11.86 18.642-36.582 24.132-55.22 12.273s-24.132-36.586-12.272-55.218c2.976-4.676 74.344-114.527 201.747-114.527 127.4 0 198.768 109.846 201.748 114.527 11.859 18.637 6.363 43.359-12.273 55.218zM336 630c27.614 0 50-22.386 50-50s-22.386-50-50-50c-27.614 0-50 22.386-50 50s22.386 50 50 50zM636.002 580c0-27.614 22.387-50 50-50s50 22.386 50 50c0 27.614-22.387 50-50 50s-50-22.386-50-50z" />
<glyph unicode="&#xe916;" glyph-name="file-upload-icon" horiz-adv-x="1073" d="M918.552 890.743c-61.011 50.668-139.615 75.086-218.595 67.904-78.975-7.182-151.888-45.379-202.752-106.22l-445.703-534.826c-18.101-21.367-31.793-46.109-40.285-72.797-8.493-26.683-11.618-54.784-9.196-82.686 2.422-27.897 10.344-55.042 23.308-79.862 12.964-24.825 30.714-46.836 52.227-64.761 21.512-17.93 46.362-31.422 73.115-39.702 26.753-8.275 54.879-11.176 82.758-8.528s54.958 10.786 79.675 23.952c24.717 13.161 46.584 31.091 64.338 52.746l417.869 501.427c20.914 25.631 30.949 58.438 27.95 91.383-2.994 32.945-18.783 63.403-43.978 84.842-25.805 20.489-58.505 30.254-91.321 27.271-32.812-2.984-63.215-18.489-84.904-43.296l-389.996-468.023c-5.891-7.807-8.555-17.579-7.441-27.292 1.115-9.718 5.923-18.632 13.429-24.898 7.506-6.271 17.135-9.411 26.894-8.777 9.758 0.639 18.899 5.003 25.528 12.19l390.154 467.998c8.46 9.728 20.348 15.812 33.187 16.979s25.634-2.671 35.708-10.713c9.83-8.395 15.989-20.3 17.159-33.173s-2.74-25.694-10.893-35.724l-417.869-501.427c-23.087-27.702-56.233-45.095-92.146-48.357s-71.651 7.875-99.351 30.964c-27.701 23.084-45.095 56.232-48.358 92.145s7.876 71.651 30.963 99.352l445.703 534.826c38.142 44.496 92.267 72.189 150.665 77.089 58.402 4.9 116.385-13.386 161.412-50.904 45.022-37.518 73.47-91.252 79.184-149.579s-11.761-116.56-48.65-162.103l-417.828-501.423c-6.26-7.787-9.213-17.715-8.221-27.658 0.991-9.938 5.846-19.090 13.52-25.483 7.674-6.398 17.553-9.523 27.506-8.704 9.957 0.819 19.193 5.515 25.722 13.078l417.831 501.385c50.708 60.998 75.152 139.619 67.969 218.616s-45.407 151.919-106.286 202.769z" />
<glyph unicode="&#xe917;" glyph-name="share-icon" horiz-adv-x="922" d="M737.51 308.357c-28.954-0.072-57.477-7.066-83.246-20.408-25.774-13.348-48.056-32.671-65.034-56.392l-230.799 155.597c14.544 39.224 14.544 82.446 0 121.668l230.799 155.598c25.907-35.519 63.488-60.532 105.989-70.544 42.506-10.012 87.148-4.367 125.901 15.921 38.758 20.288 69.094 53.889 85.555 94.766 16.456 40.877 17.966 86.351 4.25 128.251s-41.759 77.481-79.084 100.349c-37.325 22.868-81.495 31.525-124.564 24.414s-82.222-29.521-110.423-63.206c-28.201-33.685-43.597-76.436-43.428-120.572 0.297-6.782 0.973-13.541 2.022-20.247l-248.102-167.281c-26.44 24.105-59.224 39.941-94.381 45.589s-71.179 0.865-103.704-13.769c-32.524-14.633-60.156-38.49-79.548-68.681s-29.714-65.42-29.714-101.421c0-36.004 10.321-71.235 29.714-101.422 19.392-30.193 47.024-54.052 79.548-68.685s68.547-19.415 103.704-13.768c35.157 5.647 67.941 21.484 94.381 45.588l248.102-167.281c-1.050-6.702-1.725-13.466-2.022-20.244 0-36.823 10.798-72.817 31.022-103.434 20.229-30.618 48.978-54.482 82.616-68.572s70.651-17.777 106.363-10.593c35.707 7.183 68.511 24.914 94.254 50.949 25.743 26.040 43.279 59.213 50.381 95.329 7.101 36.111 3.456 73.549-10.476 107.566-13.932 34.022-37.53 63.099-67.799 83.553-30.275 20.46-65.864 31.38-102.277 31.38zM737.51 866.888c18.207 0 36.004-5.459 51.139-15.688s26.936-24.767 33.9-41.777c6.968-17.010 8.791-35.727 5.238-53.784-3.548-18.057-12.319-34.644-25.19-47.663s-29.271-21.884-47.124-25.476c-17.859-3.592-36.362-1.748-53.181 5.297s-31.196 18.977-41.308 34.286c-10.117 15.308-15.514 33.306-15.514 51.717 0 24.689 9.697 48.366 26.962 65.824 17.26 17.458 40.673 27.265 65.080 27.265zM185.25 354.898c-18.204 0-36 5.463-51.137 15.688-15.136 10.23-26.934 24.771-33.901 41.779s-8.79 35.727-5.238 53.784c3.552 18.058 12.318 34.644 25.19 47.663s29.273 21.884 47.128 25.477c17.854 3.592 36.361 1.748 53.18-5.298s31.194-18.977 41.308-34.285c10.114-15.308 15.512-33.306 15.512-51.716 0-24.689-9.697-48.369-26.959-65.823-17.262-17.459-40.673-27.269-65.085-27.269zM737.51 29.087c-18.202 0-35.999 5.463-51.133 15.693-15.14 10.225-26.936 24.765-33.9 41.774-6.968 17.009-8.791 35.727-5.238 53.786 3.548 18.058 12.314 34.642 25.19 47.662 12.872 13.020 29.271 21.883 47.124 25.477 17.853 3.589 36.362 1.746 53.181-5.299s31.196-18.975 41.308-34.284c10.112-15.309 15.514-33.306 15.514-51.717 0-24.689-9.697-48.369-26.962-65.823-17.26-17.459-40.673-27.269-65.085-27.269z" />
<glyph unicode="&#xe918;" glyph-name="save-icon" horiz-adv-x="853" d="M428.898 164.033l-2.232 1.371-356.365-218.692c-6.533-4.011-14.046-6.229-21.76-6.428s-15.336 1.633-22.077 5.296c-6.74 3.669-12.346 9.034-16.246 15.536-3.899 6.497-5.952 13.898-5.952 21.43v930.908c0 11.188 4.526 21.933 12.608 29.868 8.085 7.938 19.066 12.411 30.533 12.411h758.52c11.463 0 22.448-4.473 30.532-12.411 8.078-7.935 12.607-18.681 12.607-29.868v-930.908c0-7.532-2.054-14.933-5.951-21.43-3.903-6.502-9.506-11.867-16.247-15.536-6.741-3.664-14.364-5.495-22.079-5.296s-15.223 2.418-21.76 6.428l-354.132 217.321zM756.287 62.692l6.497-3.988v812.472h-672.235v-812.472l313.224 192.216c6.86 4.21 14.793 6.446 22.894 6.446s16.035-2.236 22.894-6.446l306.726-188.228z" />
<glyph unicode="&#xe919;" glyph-name="comment-icon" d="M67.713 200.408l0.514 1.718-0.865 1.57c-42.608 77.244-64.338 164.284-63.040 252.51 1.297 88.228 25.577 174.589 70.438 250.545s108.749 138.878 185.35 182.544c76.6 43.667 163.259 66.567 251.41 66.436h0.015c77.425 0.145 153.855-17.453 223.436-51.445 69.586-33.993 130.469-83.479 177.988-144.666s80.418-132.452 96.171-208.333c15.747-75.881 13.938-154.365-5.302-229.433-19.234-75.076-55.387-144.742-105.682-203.662-50.295-58.926-113.397-105.546-184.474-136.283s-148.239-44.783-225.575-41.057c-77.336 3.726-152.795 25.128-220.593 62.555l-1.571 0.87-1.718-0.518-205.522-61.713c-0.001 0-0.002 0-0.003 0-3.955-1.178-8.058-1.775-12.183-1.781-6.58 0-13.069 1.542-18.95 4.494-5.883 2.958-10.993 7.253-14.925 12.538s-6.574 11.418-7.716 17.909c-1.142 6.491-0.753 13.158 1.136 19.473l61.66 205.727zM511.52 24.826h0.002c93.348-0.074 184.098 30.811 258.053 87.825 73.961 57.014 126.965 136.943 150.744 227.294 23.774 90.358 16.976 186.051-19.337 272.131-36.306 86.079-100.079 157.697-181.356 203.661-81.271 45.964-175.47 63.685-267.872 50.394s-177.802-56.845-242.856-123.857c-65.055-67.011-106.099-153.705-116.722-246.534-10.623-92.827 9.774-186.56 58.002-266.557 3.008-5.035 4.937-10.644 5.664-16.464s0.236-11.736-1.444-17.357l-44.868-149.783 149.617 44.965c3.918 1.189 7.992 1.786 12.087 1.769h0.018c7.724 0 15.304-2.105 21.927-6.087 65.802-40.061 141.32-61.303 218.341-61.4z" />
<glyph unicode="&#xe91a;" glyph-name="like-icon" horiz-adv-x="971" d="M659.857-61.467c-20.883 0-43.589 0.973-69.417 2.975-9.542-0.206-19.675-0.306-29.872-0.306-129.184 0-244.616 15.646-245.723 15.803l-47.53 5.809c-14.811-10.478-32.167-16.010-50.261-16.010h-126.042c-48.791 0-88.484 40.7-88.484 90.727v344.528c0 50.027 39.694 90.727 88.484 90.727h126.042c14.022 0 27.371-3.235 39.722-9.622 10.494 22.931 23.887 43.288 39.833 60.539 1.151 1.182 2.29 2.35 3.735 3.339 61.062 48.25 135.975 222.478 167.245 308.389-2.644 21.772-5.921 73.934 18.003 102.463 10.568 12.613 25.419 19.561 41.817 19.561 16.3 0 72.206-3.854 107.235-53.437 33.006-46.728 34.93-116.671 5.717-207.886-22.611-70.389-26.112-104.271-25.828-119.274 11.098 2.501 20.799 4.512 29.574 6.133l0.227 0.042h0.156c6.111 1.381 49.858 10.921 101.821 13.355 8.386 0.414 16.646 0.624 24.544 0.624 65.247 0 113.435-14.135 143.226-42.011 52.413-49.074 34.953-111.741 27.372-131.847 11.615-15.847 25.293-41.105 26.527-73.225 1.248-29.48-8.307-57.974-28.405-84.705 3.347-9.532 7.296-24.21 8.157-42.057 1.429-29.336-5.559-72.329-46.755-111.117 2.631-20.446 2.093-50.758-14.503-81.448-22.287-41.199-66.024-69.159-129.998-83.102-26.902-5.949-59.412-8.966-96.619-8.966zM590.814 3.802h2.92c24.078-1.956 46.474-2.943 66.772-2.943 32.63 0 60.662 2.54 83.315 7.55 45.949 10.014 76.111 27.707 89.655 52.589 12.621 23.128 6.731 47.865 5.421 52.589l-0.055 0.201c-4.4 12.815-0.242 27.002 10.373 35.34 26.545 20.425 39.285 44.39 37.887 71.243-0.791 15.526-5.988 27.924-9.017 33.933-0.081 0.162-0.154 0.307-0.218 0.444-7.038 11.878-5.354 27.251 4.119 37.441 17.494 18.567 25.953 37.205 25.154 55.409-0.951 26.005-19.992 45.544-22.16 47.687-11.299 10.442-13.557 27.314-5.335 40.086 2.647 4.387 25.283 44.261-6.626 74.173-22.57 21.097-69.088 25.527-104.136 25.527-34.968 0-76.136-4.545-110.126-12.156-0.359-0.093-0.843-0.204-1.328-0.314-0.445-0.102-0.89-0.203-1.287-0.304-10.518-1.775-22.179-4.181-35.854-7.398-5.254-1.917-11.038-2.929-16.741-2.929-8.174 0-20.141 2.040-30.736 11.761-28.44 25.891-25.622 83.431 9.428 192.392 22.494 70.085 23.469 122.614 2.817 151.906-16.59 23.556-44.301 27.050-54.657 27.501-4.116-9.6-4.988-36.507-1.733-58.538 0.895-5.26 0.425-10.623-1.369-15.455-9.678-27.2-97.239-268.042-188.033-342.097-22.954-25.414-33.336-55.009-37.553-70.843 2.541-8.703 3.829-17.557 3.829-26.326v-344.741c0-5.672-0.469-11.202-1.395-16.477l18.059-2.197 0.39-0.027c1.060-0.154 115.792-15.362 237.647-15.361 10.385 0 20.662 0.112 30.546 0.333h0.028zM91.012 410.697c-15.241 0-27.64-12.752-27.64-28.426v-344.741c0-15.051 11.43-27.408 25.83-28.371l1.81 0.152h126.042c15.241 0 27.64 12.754 27.64 28.431v344.528c0 15.674-12.399 28.426-27.64 28.426h-126.042zM659.857-58.94c36.985 0 69.217 2.967 96.081 8.907 63.226 13.781 106.409 41.342 128.313 81.835 16.738 30.954 16.738 61.7 14.049 81.203 41.12 38.162 48.354 80.354 46.908 110.039-0.829 17.173-4.55 31.803-8.473 42.616 20.246 26.5 29.958 54.911 28.719 84.171-1.239 32.227-15.287 57.453-26.859 72.933 13.427 34.346 18.593 88.411-26.242 130.391-32.854 30.743-88.645 44.524-165.925 40.708-54.339-2.544-99.797-12.933-101.657-13.357h-0.207c-10.333-1.908-21.283-4.24-32.44-6.785-0.829 13.569 1.446 47.28 25.827 123.182 28.926 90.319 27.273 159.437-5.374 205.656-34.3 48.552-89.054 52.368-105.17 52.368-15.5 0-29.755-6.572-39.88-18.658-22.935-27.35-20.249-77.81-17.357-101.132-27.274-75.054-103.727-259.085-168.4-310.181-1.24-0.848-2.273-1.908-3.306-2.968-19.009-20.565-31.821-42.827-40.499-62.331-12.191 6.784-26.035 10.601-40.912 10.601h-126.042c-47.524 0-85.957-39.649-85.957-88.2v-344.528c0-48.763 38.639-88.2 85.957-88.2h126.042c18.39 0 35.54 5.935 49.59 16.111l48.557-5.935c7.439-1.062 139.68-18.234 275.434-15.479 24.589-1.906 47.732-2.967 69.222-2.967zM590.842 1.274c-132.862-2.968-267.169 14.842-268.615 15.055h-0.206l-20.869 2.543c1.24 5.935 1.859 12.294 1.859 18.659v344.741c0 9.115-1.446 18.017-3.926 26.288 3.719 14.205 14.051 45.796 38.433 72.72 92.775 75.48 183.486 330.113 187.409 341.138 1.653 4.453 2.068 9.329 1.239 14.205-3.508 23.746-2.27 52.792 2.689 61.485 10.95-0.212 40.498-3.392 58.267-28.622 21.075-29.894 20.252-83.323-2.477-154.137-34.715-107.917-37.606-164.737-10.126-189.755 13.634-12.509 31.818-13.145 45.043-8.269 12.608 2.968 24.589 5.513 35.953 7.421 0.829 0.212 1.86 0.424 2.689 0.636 63.434 14.205 177.077 22.898 216.543-13.993 33.471-31.377 9.711-72.932 7.022-77.385-7.644-11.875-5.369-27.349 4.959-36.894 0.207-0.212 21.905-21.202 22.936-49.4 0.829-18.866-7.851-38.162-25.828-57.241-8.675-9.332-10.328-23.537-3.721-34.558 0-0.212 8.473-15.055 9.509-35.407 1.446-27.779-11.572-52.373-38.85-73.362-9.711-7.628-13.634-20.777-9.504-32.647 0-0.212 8.887-28.198-5.576-54.703-13.846-25.438-44.633-43.673-91.329-53.849-37.399-8.271-88.23-9.757-150.633-4.666-0.824 0-1.86 0-2.892 0zM91.012 413.225h126.042c16.737 0 30.167-13.993 30.167-30.954v-344.528c0-17.178-13.637-30.959-30.167-30.959h-126.042v-0.212c-16.737 0-30.167 13.993-30.167 30.959v344.741c0 17.173 13.637 30.954 30.167 30.954zM659.857-63.995c-20.882 0-43.574 0.97-69.366 2.964-9.722-0.195-19.788-0.295-29.924-0.295-129.333 0-244.971 15.67-246.080 15.829l-46.518 5.685c-15.063-10.417-32.623-15.912-50.916-15.912h-126.042c-50.184 0-91.012 41.834-91.012 93.255v344.528c0 51.421 40.828 93.255 91.012 93.255h126.042c13.543 0 26.476-2.933 38.523-8.726 10.436 22.209 23.6 41.981 39.176 58.833 1.188 1.222 2.429 2.494 4.007 3.601 60.601 48.032 134.962 220.895 166.247 306.709-2.668 22.452-5.689 74.767 18.648 103.789 11.055 13.196 26.594 20.464 43.754 20.464 16.607 0 73.569-3.93 109.299-54.507 33.489-47.412 35.528-118.104 6.060-210.115-21.072-65.6-25.469-99.185-25.714-115.348 9.86 2.192 18.606 3.989 26.594 5.464l0.562 0.084c7.089 1.59 50.535 10.943 101.983 13.352 8.415 0.416 16.716 0.627 24.662 0.627 65.909 0 114.678-14.364 144.953-42.693 52.477-49.134 36.427-111.523 28.485-133.303 11.646-16.194 24.983-41.499 26.213-73.517 1.256-29.673-8.198-58.343-28.105-85.241 3.302-9.706 7.018-24.127 7.856-41.496 1.444-29.645-5.544-72.979-46.614-112.195 2.491-20.793 1.626-51.049-14.945-81.695-22.653-41.876-66.957-70.262-131.683-84.37-27.074-5.986-59.767-9.023-97.158-9.023zM590.786 6.329l3.359-0.017c23.803-1.942 46.131-2.927 66.361-2.927 32.446 0 60.294 2.52 82.769 7.49 45.207 9.852 74.803 27.121 87.98 51.33 12.155 22.275 6.469 46.146 5.205 50.706l-0.034 0.122c-4.711 13.814-0.216 29.094 11.226 38.081 25.866 19.904 38.276 43.15 36.924 69.124-0.767 15.065-5.811 27.096-8.75 32.927-0.064 0.126-0.129 0.256-0.193 0.39-7.539 12.822-5.706 29.375 4.5 40.353 17.020 18.064 25.249 36.082 24.48 53.578-0.932 25.48-20.576 45.174-21.412 46-12.141 11.217-14.571 29.446-5.684 43.252 2.501 4.146 24.23 42.409-6.228 70.961-17.385 16.251-52.799 24.843-102.408 24.843-34.793 0-75.755-4.521-109.573-12.095-0.305-0.080-0.811-0.197-1.318-0.312-0.423-0.097-0.845-0.192-1.221-0.288l-0.417-0.088c-10.219-1.716-21.783-4.1-35.34-7.287-5.49-1.983-11.522-3.030-17.465-3.030-8.623 0-21.251 2.156-32.445 12.426-29.275 26.652-26.668 84.982 8.731 195.028 22.242 69.298 23.335 121.057 3.158 149.676-15.055 21.376-39.747 25.563-50.873 26.329-3.1-9.637-4.192-33.604-0.951-55.54 0.961-5.643 0.447-11.457-1.5-16.704-9.686-27.221-97.383-268.423-188.656-343.054-22.187-24.634-32.416-53.25-36.677-68.983 2.477-8.713 3.733-17.571 3.733-26.35v-344.741c0-4.884-0.339-9.669-1.011-14.286l15.906-1.915c1.069-0.152 115.378-15.335 237.278-15.335 10.378 0 20.636 0.112 30.49 0.333l0.056 0.001zM91.012 408.169c-13.847 0-25.112-11.618-25.112-25.898v-344.741c0-13.463 10.009-24.56 22.754-25.79l2.358 0.099h126.042c13.847 0 25.112 11.62 25.112 25.903v344.528c0 14.28-11.265 25.898-25.112 25.898h-126.042z" />
<glyph unicode="&#xe91b;" glyph-name="dislike-icon" horiz-adv-x="971" d="M527.428-61.516c-16.395 0-31.244 6.946-41.811 19.559-23.921 28.525-20.644 80.691-18 102.464-31.273 85.918-106.195 260.168-167.404 308.527-1.306 0.886-2.444 2.054-3.544 3.182-15.998 17.307-29.395 37.67-39.89 60.606-12.353-6.39-25.705-9.627-39.731-9.627h-126.053c-48.787 0-88.479 40.698-88.479 90.723v344.558c0 50.024 39.692 90.722 88.479 90.722h126.053c18.094 0 35.452-5.534 50.262-16.012l47.589 5.817c1.057 0.151 116.492 15.798 245.694 15.798 10.197 0 20.331-0.101 30.119-0.299 25.586 1.995 48.294 2.968 69.177 2.968 37.21 0 69.722-3.017 96.632-8.967 63.968-13.942 107.706-41.902 129.993-83.101 16.598-30.695 17.134-61.009 14.502-81.455 41.196-38.789 48.189-81.786 46.76-111.123-0.862-17.85-4.813-32.531-8.16-42.062 20.101-26.733 29.657-55.229 28.409-84.72-1.234-32.114-14.916-57.373-26.531-73.22 7.58-20.098 25.050-82.772-27.368-131.851-29.792-27.877-77.981-42.012-143.231-42.012-7.898 0-16.158 0.21-24.552 0.625-52.149 2.442-95.993 12.036-101.861 13.364l-0.345 0.033c-8.778 1.621-18.484 3.634-29.591 6.137-0.287-14.997 3.209-48.883 25.83-119.302 29.215-91.22 27.292-161.165-5.714-207.894-35.029-49.583-90.934-53.437-107.234-53.437zM339.256 416.518c90.787-74.048 178.366-314.918 188.059-342.154 1.781-4.798 2.251-10.16 1.348-15.471-3.248-21.989-2.374-48.908 1.746-58.504 10.353 0.45 38.082 3.94 54.68 27.508 20.657 29.3 19.682 81.837-2.816 151.933-35.051 108.963-37.87 166.504-9.425 192.4 10.586 9.712 22.551 11.752 30.723 11.752 5.702 0 11.486-1.012 16.739-2.928 13.677-3.217 25.34-5.624 35.65-7.355 0.604-0.145 1.049-0.246 1.494-0.348 0.485-0.11 0.969-0.221 1.401-0.331 33.92-7.595 75.093-12.14 110.066-12.14 35.054 0 81.578 4.43 104.157 25.535 31.915 29.919 9.274 69.805 6.587 74.254-8.181 12.708-5.924 29.575 5.406 40.044 2.135 2.112 21.181 21.655 22.131 47.65 0.801 18.227-7.66 36.87-25.147 55.43-9.482 10.2-11.165 25.57-4.128 37.444 0.063 0.137 0.136 0.281 0.217 0.442 3.028 6.010 8.228 18.411 9.018 33.938 1.399 26.864-11.345 50.834-37.875 71.248-10.635 8.354-14.791 22.545-10.384 35.36l0.050 0.186c1.309 4.725 7.201 29.468-5.422 52.601-13.549 24.891-43.716 42.588-89.665 52.601-22.663 5.012-50.698 7.552-83.332 7.552-20.3 0-42.698-0.987-66.573-2.935l-3.096-0.009c-9.944 0.221-20.222 0.333-30.604 0.333-121.859 0-236.61-15.209-237.671-15.363l-0.18-0.026-0.185-0.001-0.001 0.007-18.1-2.205c0.928-5.279 1.397-10.813 1.397-16.49v-344.77c0-8.772-1.288-17.625-3.83-26.328 4.217-15.836 14.602-45.439 37.561-70.859zM88.479 886.805c-14.075-1.311-25.141-13.516-25.141-28.33v-344.77c0-15.683 12.406-28.441 27.655-28.441h126.053c15.249 0 27.655 12.758 27.655 28.441v344.558c0 15.686-12.406 28.447-27.655 28.447l-128.568 0.096zM659.888 954.953c-21.492 0-44.637-1.062-69.228-2.968-135.766 2.755-268.018-14.419-275.457-15.481l-48.561-5.936c-14.052 10.178-31.203 16.113-49.595 16.113h-126.053c-47.322 0-85.964-39.44-85.964-88.207v-344.558c0-48.555 38.436-88.208 85.964-88.208h126.053c14.878 0 28.724 3.817 40.916 10.602 8.679-19.505 21.491-41.769 40.502-62.336 1.034-1.060 2.066-2.12 3.307-2.969 64.679-51.1 141.138-235.147 168.415-310.208-2.893-23.324-5.579-73.788 17.359-101.141 10.126-12.086 24.383-18.659 39.884-18.659 16.118 0 70.876 3.817 105.179 52.373 32.65 46.224 34.303 115.347 5.374 205.674-24.384 75.909-26.659 109.623-25.83 123.193 11.158-2.545 22.109-4.877 32.442-6.785h0.207c1.861-0.424 47.322-10.814 101.666-13.358 77.287-3.816 133.082 9.966 165.939 40.711 44.839 41.983 39.672 96.054 26.244 130.402 11.572 15.481 25.622 40.709 26.861 72.939 1.238 29.263-8.474 57.676-28.722 84.178 3.923 10.814 7.644 25.446 8.474 42.62 1.446 29.687-5.789 71.883-46.912 110.048 2.69 19.505 2.69 50.254-14.050 81.21-21.906 40.496-65.093 68.060-128.324 81.842-26.866 5.941-59.102 8.908-96.089 8.908zM768.923 358.365c-39.349 0-80.649 5.491-110.688 12.218-0.829 0.212-1.861 0.424-2.69 0.636-11.365 1.908-23.347 4.453-35.956 7.421-13.226 4.877-31.412 4.241-45.047-8.27-27.483-25.020-24.591-81.846 10.126-189.772 22.731-70.82 23.555-124.253 2.478-154.15-17.771-25.232-47.322-28.413-58.272-28.625-4.96 8.693-6.199 37.743-2.69 61.49 0.829 4.877 0.414 9.754-1.239 14.206-3.923 11.026-94.642 265.681-187.425 341.167-24.384 26.927-34.717 58.52-38.436 72.727 2.48 8.271 3.926 17.174 3.926 26.289v344.771c0 6.365-0.62 12.725-1.859 18.661l21.078 2.543c1.447 0.212 135.766 18.023 268.639 15.056 1.031 0 2.068 0 2.892 0 62.408 5.091 113.244 3.605 150.646-4.667 46.7-10.177 77.489-28.413 91.337-53.854 14.464-26.507 5.576-54.495 5.576-54.708-4.131-11.871-0.208-25.021 9.505-32.65 27.281-20.991 40.299-45.587 38.853-73.369-1.036-20.354-9.51-35.198-9.51-35.41-6.608-11.022-4.955-25.228 3.721-34.561 17.978-19.081 26.659-38.378 25.83-57.246-1.031-28.201-22.73-49.192-22.938-49.404-10.329-9.545-12.604-25.021-4.96-36.897 2.689-4.454 26.451-46.012-7.022-77.392-20.781-19.425-62.122-26.212-105.874-26.212zM217.047 482.749h-126.053c-16.532 0-30.17 13.782-30.17 30.956v344.771c0 16.967 13.432 30.961 30.17 30.961v-0.212h126.053c16.532 0 30.17-13.782 30.17-30.961v-344.558c0-16.962-13.432-30.956-30.17-30.956zM659.888 959.983c37.392 0 70.087-3.037 97.175-9.027 64.709-14.104 109.012-42.488 131.662-84.36 16.574-30.649 17.435-60.909 14.942-81.7 41.074-39.214 48.064-82.55 46.62-112.197-0.839-17.372-4.557-31.797-7.86-41.503 19.911-26.898 29.366-55.57 28.109-85.262-1.23-32.003-14.571-57.309-26.218-73.501 7.939-21.766 24.005-84.161-28.475-133.299-33.921-31.74-91.17-45.937-169.625-42.063-51.839 2.427-95.526 11.899-102.108 13.381l-0.43 0.054c-7.994 1.476-16.752 3.275-26.627 5.471 0.239-16.155 4.629-49.748 25.717-115.395 29.469-92.015 27.432-162.706-6.055-210.114-35.727-50.571-92.683-54.501-109.288-54.501-17.152 0-32.686 7.266-43.739 20.459-24.332 29.015-21.309 81.334-18.641 103.782-31.291 85.829-105.665 258.73-166.277 306.758-1.574 1.104-2.809 2.371-3.903 3.493-15.672 16.952-28.844 36.737-39.282 58.956-12.051-5.8-24.99-8.736-38.539-8.736h-126.053c-50.174 0-90.994 41.826-90.994 93.237v344.558c0 51.411 40.82 93.237 90.994 93.237h126.053c18.294 0 35.853-5.495 50.914-15.914l46.632 5.7c1.008 0.145 116.602 15.817 245.999 15.817 10.135 0 20.201-0.099 29.926-0.295 25.795 1.994 48.489 2.964 69.371 2.964zM836.501 782.967l0.031 0.114c1.263 4.561 6.952 28.444-5.206 50.725-13.185 24.223-42.789 41.498-87.993 51.348-22.492 4.974-50.343 7.495-82.797 7.495-20.239 0-42.563-0.985-66.369-2.927l-0.409-0.017h-2.892c-9.991 0.222-20.25 0.333-30.604 0.333-121.923 0-236.235-15.184-237.313-15.338l-0.617-0.051-15.308-1.865c0.674-4.624 1.015-9.416 1.015-14.309v-344.771c0-8.781-1.256-17.64-3.734-26.352 4.261-15.736 14.49-44.363 36.689-69.008 91.279-74.635 178.979-315.851 188.689-343.138 1.924-5.179 2.436-10.989 1.459-16.736-3.228-21.857-2.13-45.837 0.977-55.468 11.12 0.763 35.844 4.944 50.915 26.342 20.185 28.631 19.093 80.402-3.155 149.717-35.398 110.041-38.007 168.368-8.723 195.028 11.174 10.252 23.797 12.407 32.416 12.407 5.94 0 11.97-1.046 17.46-3.029 13.561-3.188 25.126-5.573 35.346-7.289l0.414-0.087c0.377-0.097 0.8-0.192 1.223-0.289 0.507-0.115 1.013-0.231 1.465-0.347 33.677-7.54 74.645-12.062 109.444-12.062 49.62 0 85.042 8.595 102.439 24.857 30.469 28.564 8.73 66.846 6.152 71.118-8.789 13.65-6.384 31.825 5.785 43.129 1.876 1.888 20.486 21.202 21.392 45.956 0.771 17.542-7.461 35.567-24.464 53.613-10.223 10.996-12.054 27.54-4.519 40.353 0.064 0.134 0.129 0.263 0.192 0.389 2.939 5.833 7.985 17.868 8.752 32.934 1.353 25.992-11.061 49.248-36.897 69.127-11.477 9.015-15.968 24.289-11.254 38.096zM217.047 487.778c13.862 0 25.141 11.63 25.141 25.926v344.558c0 14.299-11.278 25.932-25.141 25.932h-129.277c-12.345-1.637-21.917-12.547-21.917-25.719v-344.771c0-14.296 11.278-25.926 25.141-25.926h126.053z" />
<glyph unicode="&#xe91c;" glyph-name="new-story-icon" d="M512 789.431c-188.567 0-341.431-152.864-341.431-341.431s152.864-341.431 341.431-341.431c188.567 0 341.431 152.864 341.431 341.431v0c-0.194 188.489-152.942 341.237-341.412 341.431h-0.019zM512 175.031c-150.757 0-272.969 122.212-272.969 272.969s122.212 272.969 272.969 272.969c150.757 0 272.969-122.212 272.969-272.969v0c-0.194-150.679-122.291-272.775-272.951-272.969h-0.019zM614.4 482.231h-68.169v68.169c-1.671 17.495-16.292 31.070-34.085 31.070s-32.414-13.574-34.074-30.931l-0.011-0.138v-68.169h-68.462c-17.495-1.671-31.070-16.292-31.070-34.085s13.574-32.414 30.931-34.074l0.138-0.011h68.169v-68.462c1.671-17.495 16.292-31.070 34.085-31.070s32.414 13.574 34.074 30.931l0.011 0.138v68.169h68.462c17.495 1.671 31.070 16.292 31.070 34.085s-13.574 32.414-30.931 34.074l-0.138 0.011v0.293zM512 960c-282.77 0-512-229.23-512-512s229.23-512 512-512v0c282.77 0 512 229.23 512 512s-229.23 512-512 512v0zM512 4.169c-245.121 0-443.831 198.71-443.831 443.831s198.71 443.831 443.831 443.831c245.121 0 443.831-198.71 443.831-443.831v0c-0.194-245.043-198.788-443.637-443.812-443.831h-0.019z" />
<glyph unicode="&#xe91d;" glyph-name="new-post-icon" horiz-adv-x="926" d="M616.204 557.568c20.736 0 37.547-16.81 37.547-37.547s-16.81-37.547-37.547-37.547h-412.038c-20.736 0-37.547 16.81-37.547 37.547s16.81 37.547 37.547 37.547h412.038zM166.619 359.985c0 20.736 16.81 37.547 37.547 37.547v0h250.295c20.736 0 37.547-16.81 37.547-37.547s-16.81-37.547-37.547-37.547h-250.295c-20.736 0-37.547 16.81-37.547 37.547v0zM164.376 13.531h133.803c20.736 0 37.547-16.81 37.547-37.547s-16.81-37.547-37.547-37.547h-133.851c-86.947 0.139-157.39 70.599-157.501 157.539v704.084c0.139 86.93 70.571 157.362 157.488 157.501h491.777c86.989-0.083 157.488-70.565 157.598-157.539v-246.015c0-20.75-16.821-37.571-37.571-37.571s-37.571 16.821-37.571 37.571v246.004c0 45.446-36.962 82.408-82.408 82.408h-491.813c-45.446 0-82.408-36.962-82.408-82.408v-704.073c0-45.446 36.962-82.408 82.408-82.408zM832.219 266.021l-9.46-9.46-60.026 60.026 1.755 1.707 7.704 7.704M832.219 266.021l-1.707 1.707c6.532 7.101 10.537 16.616 10.537 27.067 0 22.11-17.924 40.034-40.034 40.034-10.451 0-19.966-4.005-27.096-10.563l0.028 0.026-1.755 1.707M832.219 266.021c6.877 7.521 11.091 17.578 11.091 28.619 0 23.456-19.015 42.472-42.472 42.472-11.053 0-21.121-4.223-28.677-11.143l0.032 0.029M832.219 266.021l-60.026 59.977M719.092 379.148c45.836 45.836 120.393 45.836 166.229 0s45.836-120.442 0-166.278l-219.136-218.746c-4.46-4.447-10.033-7.779-16.266-9.542l-0.265-0.064-161.402-44.715c-3.016-0.872-6.481-1.373-10.062-1.373-20.736 0-37.547 16.81-37.547 37.547 0 3.9 0.595 7.66 1.698 11.197l-0.072-0.266 47.787 157.501c1.916 6.129 5.159 11.371 9.41 15.602l0.001 0.001 219.624 219.136zM619.471 54.101l0.634 0.195 0.488 0.488 148.968 148.724-60.026 60.026-1.707-1.755-148.626-148.285-0.146-0.585-23.796-78.214-1.268-4.242 85.48 23.65zM204.215 717.556h411.989c20.736 0 37.547-16.81 37.547-37.547s-16.81-37.547-37.547-37.547v0h-412.038c-20.736 0-37.547 16.81-37.547 37.547s16.81 37.547 37.547 37.547v0z" />
<glyph unicode="&#xe91e;" glyph-name="new-photo-icon" d="M953.907 889.907c-43.034 43.296-102.625 70.093-168.474 70.093-0.171 0-0.342 0-0.512-0.001h-545.816c-0.015 0-0.033 0-0.051 0-132.025 0-239.053-107.028-239.053-239.053v0-545.843c0-0.122 0-0.266 0-0.41 0-131.827 106.867-238.694 238.694-238.694 0.126 0 0.252 0 0.378 0h545.823c132.035 0 239.075 107.021 239.104 239.050v545.846c0 0.151 0.001 0.329 0.001 0.507 0 65.843-26.798 125.427-70.081 168.441l-0.012 0.012zM955.546 174.694c-0.058-94.175-76.415-170.496-170.598-170.496h-545.843c-94.173 0-170.518 76.327-170.547 170.493v546.307c0 0.091 0 0.199 0 0.307 0 94.173 76.328 170.518 170.494 170.547h545.948c0.015 0 0.033 0 0.051 0 94.191 0 170.547-76.357 170.547-170.547 0-0.018 0-0.036 0-0.054v0.003-546.56zM787.558 341.453c-25.112 30.095-62.631 49.106-104.59 49.106-40.777 0-77.361-17.955-102.277-46.39l-0.134-0.156-65.946 79.36c-25.296 30.124-62.976 49.138-105.097 49.138-14.217 0-27.927-2.166-40.82-6.186l0.97 0.261c-26.624-8.499-50.074-24.627-67.533-46.438l-157.747-189.44c-5.805-6.124-9.374-14.417-9.374-23.544 0-18.917 15.336-34.253 34.253-34.253 11.285 0 21.295 5.457 27.536 13.877l0.065 0.092 160 192c12.598 15.104 31.425 24.645 52.48 24.645s39.881-9.541 52.391-24.536l0.089-0.109 138.24-166.093c6.244-9.144 16.618-15.068 28.376-15.068 18.917 0 34.253 15.336 34.253 34.253 0 9.363-3.757 17.849-9.846 24.033l0.004-0.004-28.16 33.946 5.427 6.656c12.947 14.435 31.658 23.474 52.48 23.474s39.533-9.040 52.422-23.408l0.058-0.066 92.16-110.336c6.257-6.601 15.088-10.709 24.879-10.709 18.917 0 34.253 15.336 34.253 34.253 0 7.632-2.496 14.682-6.717 20.376l0.065-0.092-92.16 111.36zM699.904 482.253c65.892 0.029 119.296 53.452 119.296 119.347 0 65.914-53.434 119.347-119.347 119.347s-119.347-53.434-119.347-119.347c0-0.018 0-0.036 0-0.054v0.003c0.203-65.821 53.522-119.122 119.33-119.296h0.017zM699.904 652.749c28.277 0 51.2-22.923 51.2-51.2s-22.923-51.2-51.2-51.2v0c-28.277 0-51.2 22.923-51.2 51.2s22.923 51.2 51.2 51.2v0z" />
<glyph unicode="&#xe91f;" glyph-name="rounded-angle-right" d="M506.624 960c-279.836 0-506.688-226.852-506.688-506.688s226.852-506.688 506.688-506.688c279.836 0 506.688 226.852 506.688 506.688v0c-0.328 279.704-226.984 506.36-506.657 506.688h-0.031zM506.624 48c-223.82 0.036-405.248 181.487-405.248 405.312 0 223.848 181.464 405.312 405.312 405.312s405.312-181.464 405.312-405.312v0c-0.291-223.753-181.618-405.057-405.352-405.312h-0.024zM491.776 641.088c-9.271 9.866-22.403 16.011-36.97 16.011-27.994 0-50.688-22.694-50.688-50.688 0-14.551 6.132-27.67 15.952-36.915l0.026-0.024 116.16-116.16-116.16-116.224c-10.118-9.298-16.437-22.593-16.437-37.365 0-27.994 22.694-50.688 50.688-50.688 14.771 0 28.067 6.319 37.332 16.4l0.033 0.036 152.064 152c9.168 9.162 14.839 21.823 14.839 35.808s-5.671 26.646-14.839 35.808v0z" />
<glyph unicode="&#xe920;" glyph-name="sidebar-calendar" horiz-adv-x="922" d="M162.134 750.925c-25.921 0-46.934-21.012-46.934-46.933v-597.332c0-25.923 21.013-46.935 46.934-46.935h597.331c25.923 0 46.935 21.012 46.935 46.935v597.332c0 25.921-21.012 46.933-46.935 46.933h-597.331zM38.4 703.992c0 68.336 55.397 123.733 123.734 123.733h597.331c68.337 0 123.735-55.397 123.735-123.733v-597.332c0-68.337-55.398-123.735-123.735-123.735h-597.331c-68.336 0-123.734 55.398-123.734 123.735v597.332zM631.501 913.075c21.207 0 38.4-17.192 38.4-38.4v-170.667c0-21.208-17.193-38.4-38.4-38.4s-38.4 17.192-38.4 38.4v170.667c0 21.208 17.193 38.4 38.4 38.4zM290.1 913.075c21.208 0 38.4-17.192 38.4-38.4v-170.667c0-21.208-17.192-38.4-38.4-38.4s-38.4 17.192-38.4 38.4v170.667c0 21.208 17.192 38.4 38.4 38.4zM38.4 533.325c0 21.208 17.192 38.4 38.4 38.4h768c21.207 0 38.4-17.192 38.4-38.4s-17.193-38.4-38.4-38.4h-768c-21.208 0-38.4 17.192-38.4 38.4z" />
<glyph unicode="&#xe921;" glyph-name="sidebar-base-ui" d="M145.92 867.021c-25.958-5.837-43.11-15.411-62.31-34.867-16.026-16.179-24.218-29.747-30.976-51.354l-3.994-12.8v-160.41c0-175.462-0.205-171.008 10.496-219.341 19.098-86.17 65.024-167.834 129.69-230.4 37.222-36.045 71.629-60.211 119.091-83.661 62.362-30.771 120.832-45.158 191.283-47.155 79.667-2.253 150.733 13.517 221.082 49.050 47.514 24.013 80.998 48.384 119.45 86.835 40.141 40.192 64.102 73.574 88.73 123.802 27.085 55.142 40.755 104.397 46.080 165.632 1.229 14.797 1.69 71.066 1.331 169.728l-0.512 147.61-4.454 13.107c-7.066 20.582-15.974 34.918-31.232 50.227-15.258 15.258-29.594 24.166-50.227 31.181l-13.056 4.506-360.141 0.307c-296.55 0.205-361.882-0.102-370.33-1.997zM873.165 789.862c10.803-5.786 16.538-11.366 22.067-21.299l5.018-9.114v-151.859c0-163.635-0.051-164.71-9.421-205.005-30.259-129.894-126.362-236.493-252.006-279.45-45.517-15.565-77.67-20.736-128.512-20.582-50.074 0.154-82.381 5.632-129.382 22.016-121.498 42.24-218.010 150.118-247.501 276.48-9.523 40.755-9.421 38.144-10.086 200.038-0.41 99.891-0.051 152.678 1.126 157.030 2.611 9.83 11.059 21.965 18.739 27.034 14.746 9.779-9.421 9.216 371.354 8.806l351.59-0.358 7.014-3.738zM325.12 566.835c-4.71-2.202-9.83-5.478-11.418-7.27-5.12-5.734-9.83-18.33-9.882-26.317-0.051-15.77 2.406-18.688 96.768-112.896 93.901-93.798 95.488-95.13 111.514-95.181 15.821-0.102 18.586 2.304 113.613 97.587 97.382 97.69 95.846 95.846 94.157 113.766-2.406 24.525-27.443 40.346-50.483 31.795-6.861-2.56-19.302-14.182-82.739-77.414l-74.65-74.394-73.83 73.677c-55.501 55.45-75.725 74.547-81.459 77.158-10.291 4.608-21.043 4.454-31.59-0.512z" />
<glyph unicode="&#xe922;" glyph-name="sidebar-charts" d="M496.768 919.552c-12.544-4.544-22.272-13.568-28.096-25.984l-3.392-7.168v-876.8l3.456-7.296c4.48-9.664 13.312-18.88 22.4-23.488 6.784-3.456 8.576-3.776 20.864-3.776s14.080 0.32 20.864 3.776c9.088 4.608 17.92 13.824 22.4 23.488l3.456 7.296v876.8l-3.456 7.296c-4.544 9.728-13.376 18.944-22.4 23.424-6.208 3.072-9.344 3.776-18.944 4.096-8.256 0.32-13.12-0.192-17.152-1.664zM816.768 599.552c-12.544-4.544-22.272-13.568-28.096-25.984l-3.392-7.168v-556.8l3.456-7.296c4.48-9.664 13.312-18.88 22.4-23.488 6.784-3.456 8.576-3.776 20.864-3.776s14.080 0.32 20.864 3.776c9.088 4.608 17.92 13.824 22.4 23.488l3.456 7.296v556.8l-3.456 7.296c-4.544 9.728-13.376 18.944-22.4 23.424-6.208 3.072-9.344 3.776-18.944 4.096-8.256 0.32-13.12-0.192-17.152-1.664zM182.208 387.84c-11.52-2.432-22.4-9.728-29.056-19.584-9.088-13.376-8.576-2.112-8.192-189.76l0.32-168.896 3.392-7.296c4.544-9.664 12.16-17.664 21.888-22.912 7.68-4.16 8.576-4.352 21.44-4.352s13.76 0.192 21.44 4.352c9.728 5.248 17.344 13.248 21.888 22.912l3.392 7.296 0.32 168.896c0.384 187.648 0.896 176.384-8.192 189.76-5.248 7.68-10.624 12.096-19.968 16.384-7.616 3.456-20.608 4.928-28.672 3.2z" />
<glyph unicode="&#xe923;" glyph-name="sidebar-chat" d="M170.667 916.196c-48.868-3.812-92.843-34.076-113.607-78.222-14.734-31.289-13.54 7.68-13.54-433.493 0-372.452 0.171-391.225 3.072-398.791 5.86-15.189 21.902-25.941 38.741-25.941 17.294 0 14.734-2.162 113.948 96.825l92.615 92.388 579.356 1.707 13.653 4.665c46.023 15.815 78.507 50.404 91.762 97.735l3.812 13.653v254.293c0 287.175 0.967 266.297-13.54 296.96-13.938 29.355-34.304 50.005-63.26 64-32.54 15.758 4.153 14.336-383.147 14.564-188.188 0.171-345.657 0-349.867-0.341zM865.28 827.62c12.459-5.803 19.854-13.084 25.828-25.486l4.892-10.24v-498.347l-4.836-10.24c-5.177-10.98-13.028-18.944-24.633-25.145l-7.225-3.868-296.96-0.853c-280.348-0.796-297.358-1.024-303.787-3.925-4.665-2.048-26.51-22.642-68.722-64.796l-61.838-61.838v333.653c0 380.132-1.593 343.154 15.36 360.107 16.668 16.668-21.618 15.076 368.64 15.189l343.893 0.114 9.387-4.324z" />
<glyph unicode="&#xe924;" glyph-name="sidebar-companies" d="M366.899 864.87c-4.966-2.611-10.598-6.861-12.595-9.523-1.946-2.611-30.925-86.733-64.307-186.88l-60.723-182.067-155.29-1.69-8.346-5.171c-17.715-10.957-22.835-33.434-11.776-51.405 3.686-5.888 7.629-9.472 14.182-12.902l9.165-4.762h186.675l8.909 4.454c5.274 2.611 10.65 6.963 13.107 10.598 2.458 3.584 23.603 64.307 50.739 145.715 25.549 76.8 46.899 139.571 47.36 139.571s50.637-149.299 111.462-331.827c60.826-182.528 112.333-334.387 114.381-337.408 5.171-7.731 19.866-15.104 30.003-15.104 10.854 0 24.678 7.014 30.208 15.309 2.406 3.635 29.85 83.251 64.41 187.085l60.262 180.736 155.29 1.69 8.346 5.171c17.715 10.957 22.835 33.434 11.776 51.405-3.686 5.888-7.629 9.472-14.182 12.902l-9.165 4.762h-186.931l-9.165-4.762c-5.018-2.611-10.803-7.27-12.851-10.342-2.099-3.021-24.73-68.454-50.381-145.408-25.6-76.902-47.002-139.827-47.462-139.827s-50.586 149.197-111.36 331.571c-66.918 200.704-112.179 333.978-114.739 337.715-2.458 3.635-7.834 7.987-13.107 10.598-11.981 5.99-22.17 5.939-33.894-0.205z" />
<glyph unicode="&#xe925;" glyph-name="sidebar-contacts" horiz-adv-x="819" d="M149.299 910.182c-30.362-5.53-57.344-20.378-79.411-43.776-18.432-19.507-30.003-41.267-36.608-68.864-2.355-9.728-2.509-28.006-2.918-340.685-0.307-237.722 0-334.182 1.075-343.91 3.789-33.536 16.486-60.518 39.936-84.992 21.965-22.938 52.019-38.554 82.227-42.752 7.834-1.126 95.539-1.434 309.914-1.126 282.982 0.358 299.264 0.512 303.462 2.816 7.424 4.045 13.978 10.65 17.818 17.92l3.686 6.963v872.448l-3.686 6.963c-3.84 7.27-10.394 13.875-17.818 17.92-4.198 2.304-20.429 2.458-306.176 2.662-242.995 0.154-303.667-0.154-311.501-1.587zM712.704 554.496v-282.573l-563.2-0.717-10.803-3.072c-5.939-1.69-15.616-5.171-21.504-7.731l-10.701-4.608v261.018c0 230.093 0.256 261.99 2.099 269.056 6.246 23.962 27.187 43.878 51.712 49.203 6.758 1.485 59.955 1.843 280.371 1.946l272.026 0.102v-282.624zM712.704 127.846v-68.966h-271.36c-297.574 0.051-280.934-0.41-298.138 8.294-16.384 8.243-31.078 27.034-35.226 45.005-2.048 8.858-1.792 24.115 0.563 33.126 6.195 23.808 26.419 43.725 50.33 49.51 5.478 1.382 66.714 1.741 280.422 1.843l273.408 0.102v-68.915z" />
<glyph unicode="&#xe926;" glyph-name="sidebar-crm" d="M354.765 867.84c-67.174-10.701-123.085-50.125-154.829-109.21-8.653-16.128-14.029-30.618-19.149-51.2-3.43-13.875-3.994-20.531-4.045-46.080 0-26.726 0.512-31.795 4.506-47.821 7.782-30.72 18.637-53.555 37.222-78.234 29.030-38.554 69.837-64.922 119.45-77.158 13.875-3.43 20.531-4.045 46.080-4.045 26.675 0 31.795 0.461 47.77 4.506 30.771 7.782 53.606 18.586 78.234 37.171 38.554 29.082 64.922 69.888 77.21 119.501 3.43 13.875 3.994 20.48 4.045 46.080 0 26.675-0.512 31.744-4.506 47.77-7.782 30.822-18.637 53.555-37.325 78.336-22.221 29.542-55.962 55.040-90.573 68.454-21.299 8.243-42.24 12.134-68.864 12.8-14.080 0.358-29.952-0.051-35.226-0.87zM670.054 861.901c-13.363-4.762-24.832-20.378-24.883-33.946-0.102-18.842 10.803-32.717 30.362-38.554 88.371-26.266 125.389-126.72 74.752-202.803-15.667-23.603-39.27-41.37-68.454-51.507-20.838-7.219-26.829-11.469-32.461-23.040-3.84-7.731-4.506-11.162-3.891-18.586 1.536-18.586 15.667-33.075 33.894-34.867 10.598-1.024 32.307 5.53 53.35 16.077 71.782 35.891 115.507 106.24 115.507 185.754 0 58.675-22.323 111.104-64.461 151.347-23.296 22.272-46.746 36.301-77.978 46.746-19.098 6.4-25.549 7.014-35.738 3.379zM419.789 789.299c44.595-12.595 79.565-47.77 92.467-93.082 5.53-19.251 5.53-50.534 0-69.786-13.005-45.619-47.718-80.384-93.389-93.389-19.251-5.478-50.483-5.478-69.734 0-36.096 10.291-65.894 34.355-82.842 66.97-10.752 20.685-14.438 36.25-14.438 61.338 0 16.998 0.768 24.064 3.891 34.867 14.438 50.688 54.733 86.938 107.469 96.614 12.8 2.355 42.291 0.512 56.576-3.533zM184.064 355.738c-73.472-11.008-135.168-59.238-163.635-128-2.918-6.963-7.27-20.378-9.728-29.747-4.301-16.538-4.454-18.995-5.12-79.36l-0.717-62.31 4.915-9.37c13.517-25.805 49.203-27.29 64.41-2.662l5.171 8.346 1.024 59.853c1.178 67.328 1.485 69.274 14.336 95.744 16.538 33.997 46.131 58.573 83.712 69.427l13.568 3.942h384l13.568-3.942c45.414-13.107 79.77-47.258 93.235-92.518 3.533-11.776 3.891-17.459 4.813-72.653l1.024-59.853 5.171-8.346c10.957-17.664 33.434-22.835 51.354-11.725 5.939 3.686 9.523 7.578 13.056 14.387l4.915 9.37-0.717 62.31c-0.666 60.314-0.819 62.822-5.12 79.36-10.65 41.062-30.259 74.65-60.16 103.014-25.958 24.73-55.45 40.704-93.85 50.995l-17.050 4.608-196.25 0.307c-107.981 0.154-200.602-0.358-205.926-1.178zM840.755 349.901c-13.363-4.762-24.832-20.378-24.934-33.946-0.102-18.944 10.803-32.717 30.618-38.605 36.915-11.008 67.328-36.71 83.61-70.605 12.032-25.037 12.39-27.597 13.568-94.259l1.024-59.853 5.171-8.346c10.957-17.664 33.434-22.835 51.354-11.725 5.888 3.635 9.523 7.578 12.954 14.182l4.762 9.114v54.835c0 62.157-1.485 75.981-11.264 105.216-20.634 61.798-68.608 109.722-130.662 130.458-19.558 6.554-26.010 7.168-36.198 3.533z" />
<glyph unicode="&#xe927;" glyph-name="sidebar-dashboard" d="M145.92 867.021c-25.958-5.837-43.11-15.411-62.31-34.867-16.026-16.179-24.218-29.747-30.976-51.354l-3.994-12.8v-469.35l3.994-12.8c6.758-21.606 14.95-35.174 30.976-51.354 16.128-16.282 29.952-24.986 50.944-31.949 12.032-3.994 16.077-4.403 49.766-5.018l36.71-0.717 9.318 4.915c25.856 13.568 27.341 49.254 2.662 64.461l-8.294 5.171-33.434 0.87c-33.075 0.819-33.485 0.87-42.496 5.888-9.984 5.478-15.514 11.264-21.299 22.067l-3.738 7.014v452.25l5.018 9.114c5.53 9.933 11.264 15.514 22.067 21.299l7.014 3.738h708.301l7.014-3.738c10.803-5.786 16.538-11.366 22.067-21.299l5.018-9.114v-452.25l-5.018-9.114c-5.53-9.933-11.315-15.514-22.067-21.197-6.298-3.379-10.445-3.84-40.448-4.659l-33.434-0.87-8.294-5.171c-17.715-10.957-22.886-33.434-11.776-51.354 3.686-5.939 7.629-9.523 14.438-13.107l9.318-4.915 36.71 0.717c33.69 0.614 37.734 1.024 49.766 5.018 20.378 6.758 34.867 15.718 50.227 31.13 15.258 15.258 24.166 29.594 31.232 50.176l4.454 13.107v472.73l-4.454 13.107c-7.066 20.582-15.974 34.918-31.232 50.227-15.258 15.258-29.594 24.166-50.227 31.181l-13.056 4.506-360.141 0.307c-296.55 0.205-361.882-0.102-370.33-1.997zM495.104 352.87c-7.68-4.147-22.067-20.736-118.221-136.141-63.744-76.493-110.848-134.554-112.794-138.906-7.526-16.845 0.205-37.683 17.306-46.592l9.114-4.762h442.982l9.114 4.762c17.766 9.267 25.293 31.181 16.538 48.282-2.253 4.301-53.094 66.662-113.050 138.65-97.741 117.299-109.875 131.226-117.606 135.117-11.725 5.786-22.016 5.683-33.382-0.41zM578.458 181.555c35.738-42.854 64.973-78.387 64.973-78.95s-59.238-1.075-131.584-1.075c-72.346 0-131.277 0.666-130.97 1.434 1.229 3.123 130.355 157.184 131.43 156.826 0.666-0.205 30.413-35.43 66.15-78.234z" />
<glyph unicode="&#xe928;" glyph-name="sidebar-ecommerce" d="M25.395 950.118c-13.21-6.912-19.405-17.408-19.405-32.768s6.195-25.907 19.405-32.819l9.114-4.762h74.035c40.755 0 74.086-0.205 74.086-0.41 0-3.789 110.029-549.018 112.026-555.059 12.032-36.864 41.574-65.894 80.538-79.206l13.056-4.454h464.23l13.107 4.454c21.197 7.27 34.867 15.872 50.893 32.051 15.002 15.155 22.835 27.494 29.082 45.619 5.683 16.486 73.779 377.446 72.858 385.946-1.28 11.469-9.062 22.477-19.814 28.058l-9.114 4.762h-351.386c-193.28 0-351.386 0.205-351.386 0.512 0 0.256-8.448 42.65-18.79 94.259-21.299 106.547-20.992 105.574-37.427 113.869l-9.267 4.71h-186.726l-9.114-4.762zM935.27 664.883c0-0.819-13.414-72.038-29.798-158.259-31.898-167.629-32.256-169.114-44.083-179.046-2.816-2.406-8.243-6.042-12.134-8.090l-7.014-3.738h-443.75l-9.114 5.069c-10.445 5.786-17.92 14.029-21.606 23.91-1.894 5.069-65.69 316.774-65.69 321.024 0 0.358 142.438 0.717 316.57 0.717 188.518 0 316.621-0.666 316.621-1.587zM363.981 141.568c-14.182-3.789-25.958-10.65-36.454-21.094-31.539-31.59-31.539-81.357 0-112.947 31.59-31.539 81.357-31.539 112.947 0 31.539 31.59 31.539 81.357 0 112.947-20.173 20.122-49.766 28.314-76.493 21.094zM833.28 141.568c-14.131-3.789-25.907-10.65-36.403-21.094-31.59-31.59-31.59-81.357 0-112.947 31.59-31.539 81.357-31.539 112.896 0 31.59 31.59 31.59 81.357 0 112.947-20.122 20.122-49.715 28.314-76.493 21.094zM387.482 66.458c1.792-2.15 1.69-3.123-0.666-5.478-2.611-2.662-3.021-2.662-5.632 0-2.355 2.355-2.458 3.328-0.666 5.478 1.229 1.485 2.765 2.662 3.482 2.662s2.253-1.178 3.482-2.662zM857.907 66.406c0.563-1.485-0.256-3.942-1.792-5.478-2.509-2.509-3.021-2.509-5.427-0.154-1.485 1.485-2.099 3.84-1.485 5.478 1.382 3.635 7.322 3.738 8.704 0.154z" />
<glyph unicode="&#xe929;" glyph-name="sidebar-email" d="M145.92 824.32c-25.395-5.683-43.059-15.411-61.594-33.997-15.258-15.258-24.166-29.594-31.232-50.176l-4.454-13.107v-558.080l4.454-13.107c7.066-20.582 15.974-34.918 31.232-50.176 15.258-15.309 29.594-24.218 50.227-31.232l13.056-4.454h728.781l13.056 4.454c20.634 7.014 34.97 15.923 50.227 31.232 15.258 15.258 24.166 29.594 31.232 50.176l4.454 13.107v558.080l-4.454 13.107c-7.066 20.582-15.974 34.918-31.232 50.176-15.258 15.309-29.594 24.218-50.227 31.232l-13.056 4.454-360.141 0.307c-296.55 0.256-361.882-0.102-370.33-1.997zM873.165 747.162c10.086-5.376 16.333-11.059 20.736-18.893l3.84-6.861-385.741-269.978-190.72 133.325c-104.909 73.37-191.693 134.298-192.87 135.373-3.072 2.816 5.99 16.538 14.797 22.374 14.746 9.779-9.421 9.165 371.354 8.806l351.59-0.358 7.014-3.789zM307.507 502.374c100.762-70.554 186.214-129.69 190.003-131.379 8.704-3.994 20.275-3.994 28.979 0 3.789 1.69 89.242 60.826 190.003 131.379 100.71 70.502 183.501 128.256 183.91 128.256s0.563-101.581 0.307-225.741l-0.461-225.69-5.018-9.114c-5.53-9.933-11.264-15.462-22.067-21.248l-7.014-3.789h-708.301l-9.062 5.069c-9.984 5.478-15.514 11.264-21.299 22.067l-3.738 7.014-0.461 225.69c-0.256 124.16-0.102 225.741 0.307 225.741s83.2-57.754 183.91-128.256z" />
<glyph unicode="&#xe92a;" glyph-name="sidebar-extended" d="M282.061 801.485c-121.805-60.877-222.771-112.179-224.358-113.971-5.12-5.683-9.83-18.278-9.83-26.163 0-7.936 4.71-20.531 9.83-26.214 1.587-1.792 102.554-53.043 224.358-113.971 204.134-102.042 222.106-110.694 229.939-110.694 7.885 0 25.754 8.602 230.81 111.36l222.31 111.36 5.12 8.397c4.352 7.117 5.12 10.138 5.12 19.763s-0.768 12.646-5.12 19.763l-5.12 8.397-222.31 111.36c-205.056 102.707-222.925 111.36-230.81 111.36-7.834 0-25.805-8.653-229.939-110.746zM683.52 747.11c93.389-46.694 169.83-85.299 169.83-85.76 0-0.512-76.8-39.27-170.701-86.221l-170.65-85.299-170.65 85.299c-93.901 46.95-170.701 85.709-170.701 86.221 0 1.178 338.278 170.445 340.941 170.547 1.178 0.051 78.541-38.093 171.93-84.787zM68.045 480.768c-13.158-6.861-19.405-17.408-19.405-32.768 0-9.626 0.768-12.646 5.12-19.763l5.12-8.397 222.31-111.36c205.261-102.81 222.925-111.36 230.81-111.36s25.549 8.55 230.81 111.36l222.31 111.36 5.018 8.243c15.002 24.576-0.512 54.733-29.338 57.139l-9.626 0.819-419.174-209.562-209.51 104.653c-233.728 116.685-216.115 109.21-234.445 99.635zM69.12 268.186c-10.189-4.813-13.21-7.936-18.022-18.893-4.966-11.213-3.994-23.45 2.816-34.611l4.966-8.192 222.31-111.36c205.261-102.81 222.925-111.36 230.81-111.36s25.549 8.55 230.81 111.36l222.31 111.36 5.018 8.243c15.002 24.627-0.512 54.784-29.338 57.139l-9.626 0.819-419.174-209.51-209.51 104.602c-231.68 115.712-215.552 108.749-233.37 100.403z" />
<glyph unicode="&#xe92b;" glyph-name="sidebar-extra-pages" horiz-adv-x="922" d="M448.512 911.514c-2.099-0.41-7.987-1.434-13.056-2.355-16.026-2.867-27.443-8.602-100.198-50.125-39.066-22.272-74.035-41.523-77.773-42.803s-9.421-4.557-12.698-7.322c-3.277-2.765-36.71-22.528-74.291-43.981-37.581-21.402-72.499-41.728-77.568-45.107-10.854-7.27-23.808-19.866-32.512-31.693-6.81-9.267-15.974-30.822-19.2-45.312-3.021-13.619-3.021-376.576 0-390.144 7.219-32 27.546-61.594 54.067-78.592 13.056-8.346 298.752-171.469 312.064-178.176 5.683-2.867 16.742-6.963 24.576-9.114 25.958-7.168 28.262-7.526 36.147-5.632 20.429 4.762 36.659 10.035 46.746 15.155 14.080 7.066 297.984 169.114 311.501 177.766 24.064 15.411 41.984 39.322 50.893 67.84 5.786 18.483 6.195 35.226 5.632 217.344-0.614 193.997-0.051 182.733-10.496 208.179-8.397 20.531-26.010 41.114-46.029 53.965-13.107 8.397-298.752 171.52-312.166 178.227-5.683 2.867-15.616 6.554-22.016 8.192-11.52 2.918-36.045 5.018-43.622 3.686zM476.57 833.638c6.093-2.202 289.946-164.147 289.843-165.427-0.051-0.461-25.549-15.514-56.73-33.434l-56.627-32.614-151.808 87.552c-83.507 48.128-152.013 88.064-152.218 88.73-0.666 1.946 92.006 54.17 100.25 56.474 8.192 2.304 18.637 1.792 27.29-1.28zM424.704 646.656c81.101-46.694 148.582-85.709 149.965-86.682 2.099-1.382-7.219-7.322-54.426-34.611-31.334-18.125-58.061-32.973-59.392-32.973-2.509 0-305.51 174.336-305.664 175.821 0 0.461 26.061 15.77 57.907 34.048 51.61 29.542 58.368 32.973 61.082 31.283 1.69-1.075 69.427-40.141 150.528-86.886zM275.251 511.181l147.046-84.941 0.102-352.768-5.018 3.021c-2.714 1.69-67.533 38.707-143.974 82.33-117.606 67.072-140.083 80.435-146.125 86.886-12.902 13.722-12.083 0.614-12.083 190.106v167.987l6.502-3.84c3.533-2.15 72.653-42.086 153.549-88.781zM803.942 260.71c-5.325-16.128-4.71-15.718-155.75-101.888-76.442-43.622-141.261-80.64-143.974-82.33l-5.018-3.021 0.102 352.768 306.33 176.896 0.41-167.526c0.307-149.862 0.102-168.294-2.099-174.899z" />
<glyph unicode="&#xe92c;" glyph-name="sidebar-feed" d="M73.024 920.064c-23.744-6.4-38.784-30.656-33.792-54.592 3.712-17.856 16.896-31.68 34.56-36.288 4.992-1.28 17.6-2.304 28.608-2.304 72.832 0 159.232-14.912 237.248-40.896 98.112-32.768 182.656-79.872 263.68-147.008 22.080-18.304 81.536-77.76 99.648-99.648 110.4-133.696 172.608-286.912 186.176-458.944 0.96-12.096 1.728-30.912 1.728-41.856 0-31.232 5.568-45.632 21.696-56.32 28.032-18.56 65.408-2.944 72.32 30.336 2.304 11.136-0.064 68.608-4.544 108.608-33.472 301.632-217.984 567.36-488.832 703.936-114.368 57.664-230.272 88.32-361.088 95.616-38.72 2.112-47.424 2.048-57.408-0.64zM71.168 546.368c-17.152-6.464-28.416-19.264-32-36.352-4.416-21.312 7.040-42.56 27.776-51.712 6.464-2.88 13.696-3.904 37.504-5.12 64-3.328 116.864-16.768 171.2-43.584 86.912-42.816 155.392-111.296 198.016-197.952 26.688-54.4 39.744-105.28 43.648-170.688 1.408-24.128 2.56-32.448 5.248-38.784 3.84-8.896 15.616-20.8 24.128-24.32 22.336-9.344 48.256-0.128 60.032 21.376l5.12 9.28-0.192 28.16c-0.64 83.84-26.368 174.72-70.848 250.304-37.312 63.36-89.472 120.64-148.352 162.816-85.248 60.992-184.512 94.784-288.32 98.176-20.48 0.64-27.968 0.256-32.96-1.6zM114.368 172.224c-5.184-1.344-14.784-5.12-21.376-8.384-52.736-26.496-70.912-94.272-38.528-143.616 31.168-47.488 93.76-60.16 140.608-28.48 41.664 28.224 55.552 81.792 33.216 128.128-7.616 15.872-28.544 36.8-44.416 44.416-21.504 10.368-48.512 13.44-69.504 7.936zM143.488 78.336c3.008-3.648 0-8.384-5.44-8.384-4.608 0-6.336 4.736-3.136 8.64 2.688 3.2 5.76 3.136 8.576-0.256z" />
<glyph unicode="&#xe92d;" glyph-name="sidebar-file-manager" d="M145.92 866.97c-25.907-5.786-43.059-15.36-62.31-34.816-16.026-16.179-24.218-29.747-30.976-51.354l-3.994-12.8v-641.69l4.454-13.107c7.066-20.582 15.974-34.918 31.232-50.227 15.258-15.258 29.594-24.166 50.227-31.181l13.056-4.506h728.781l13.056 4.506c20.634 7.014 34.97 15.923 50.227 31.181 15.258 15.309 24.166 29.645 31.232 50.227l4.454 13.107v515.379l-4.454 13.107c-7.066 20.582-15.974 34.918-31.232 50.227-15.258 15.258-29.594 24.166-50.227 31.181l-13.056 4.506-387.072 1.69-39.424 58.829c-38.298 57.139-39.731 58.982-48.589 63.59l-9.165 4.71-117.965-0.102c-92.006-0.102-120.269-0.666-128.256-2.458zM402.739 735.642c35.226-52.736 40.141-59.341 47.411-63.59l8.090-4.762 407.91-1.69 7.014-3.738c10.803-5.786 16.538-11.366 22.067-21.299l5.018-9.114v-494.899l-3.738-7.066c-5.786-10.752-11.315-16.538-21.299-22.067l-9.062-5.018h-708.301l-9.062 5.018c-9.984 5.53-15.514 11.315-21.299 22.067l-3.738 7.066-0.461 307.763c-0.307 198.4 0.154 310.067 1.229 314.061 2.56 9.574 11.059 21.76 18.688 26.778 14.029 9.318 12.083 9.165 120.013 9.216l100.25 0.102 39.27-58.829zM494.746 523.469c-6.656-3.482-10.547-7.066-14.285-13.107l-5.171-8.346-0.461-50.893-0.512-50.893h-98.458l-9.114-4.762c-13.21-6.912-19.456-17.459-19.456-32.819s6.246-25.856 19.456-32.768l9.114-4.762h98.611v-98.611l4.762-9.114c6.861-13.21 17.408-19.405 32.768-19.405s25.907 6.195 32.768 19.405l4.762 9.114v98.611h98.611l9.114 4.762c13.21 6.912 19.456 17.408 19.456 32.768 0 15.616-6.298 26.163-19.507 32.87l-9.267 4.71h-98.253l-0.512 50.893-0.461 50.893-5.12 8.397c-3.891 6.298-7.475 9.574-14.387 13.107-12.39 6.298-22.374 6.246-34.458-0.051z" />
<glyph unicode="&#xe92e;" glyph-name="sidebar-forms" d="M250.652 914.716c-10.581-1.764-30.151-8.647-39.993-13.995-29.127-15.929-51.883-41.927-63.317-72.42-9.785-25.941-8.988 10.581-8.988-424.505v-390.884l3.413-7.396c4.836-10.24 10.638-16.384 20.082-21.106 10.695-5.348 24.633-5.689 34.873-0.91 3.641 1.707 75.776 52.452 160.256 112.811 84.423 60.359 154.226 109.739 155.022 109.739s70.599-49.38 155.022-109.739c84.48-60.302 155.989-110.933 158.891-112.469 3.812-1.991 8.42-2.958 16.213-3.243 9.33-0.455 11.89-0.057 17.977 2.788 10.183 4.665 16.27 10.524 21.22 20.651l4.324 8.818 0.398 380.985c0.284 254.578-0.057 386.105-0.967 396.402-2.446 26.965-11.207 50.631-26.34 70.997-18.318 24.576-41.7 40.846-72.932 50.631l-11.662 3.641-258.162 0.228c-148.48 0.114-261.234-0.341-265.33-1.024zM768.569 828.814c10.752-4.324 22.3-15.36 27.819-26.51l4.324-8.818 0.341-344.348c0.284-282.453 0.057-344.178-1.365-343.609-0.967 0.341-61.497 43.292-134.485 95.46-72.988 52.11-135.282 95.801-138.354 97.052-8.533 3.413-23.154 2.958-31.46-0.91-3.698-1.707-65.764-45.34-137.956-96.996s-132.096-94.208-133.063-94.606c-1.479-0.569-1.707 57.060-1.422 343.609l0.341 344.292 3.584 7.566c3.868 8.306 13.483 19.399 20.594 23.78 2.56 1.593 7.964 3.925 12.117 5.234 7.168 2.332 19.058 2.446 254.407 2.162l246.898-0.284 7.68-3.072z" />
<glyph unicode="&#xe92f;" glyph-name="sidebar-icons" d="M366.746 950.118c-6.656-3.482-10.547-7.066-14.285-13.107l-5.171-8.294-0.461-50.79-0.512-50.79-56.678-0.614c-55.603-0.614-56.934-0.717-69.786-5.018-20.48-6.912-34.867-15.821-50.176-31.181-15.36-15.309-24.269-29.696-31.181-50.176-4.301-12.851-4.403-14.182-5.018-69.837l-0.614-56.781h-98.355l-9.114-4.762c-13.21-6.861-19.405-17.408-19.405-32.768s6.195-25.907 19.405-32.768l9.114-4.762h98.611v-138.24h-98.611l-9.114-4.762c-13.21-6.912-19.405-17.459-19.405-32.819s6.195-25.856 19.405-32.768l9.114-4.762h98.406l1.126-156.16 4.403-13.107c7.014-20.531 15.923-34.867 31.232-50.176 15.309-15.36 29.696-24.269 50.176-31.181 12.851-4.301 14.182-4.403 69.837-5.018l56.781-0.614v-98.355l4.762-9.114c6.861-13.21 17.408-19.405 32.768-19.405s25.907 6.195 32.768 19.405l4.762 9.114v98.611h180.941v-98.611l4.762-9.114c6.861-13.21 17.408-19.405 32.768-19.405s25.907 6.195 32.768 19.405l4.762 9.114v98.355l56.781 0.614c55.654 0.614 56.986 0.717 69.837 5.018 20.48 6.912 34.867 15.821 50.176 31.181 15.309 15.309 24.218 29.645 31.232 50.176l4.403 13.107 1.126 156.16h98.406l9.114 4.762c13.21 6.912 19.405 17.408 19.405 32.768s-6.195 25.907-19.405 32.819l-9.114 4.762h-98.611v138.24h98.611l9.114 4.762c13.21 6.861 19.405 17.408 19.405 32.768s-6.195 25.907-19.405 32.768l-9.114 4.762h-98.355l-0.614 56.781c-0.614 55.654-0.717 56.986-5.018 69.837-7.117 21.043-15.77 34.816-32 50.944-15.821 15.667-29.235 23.859-50.534 30.822-11.264 3.738-15.002 3.994-68.608 4.557l-56.678 0.666-0.512 50.79-0.461 50.79-5.12 8.397c-14.95 24.422-51.046 23.040-64.358-2.509l-4.762-9.114v-98.611h-180.787l-0.512 50.893-0.461 50.944-5.12 8.397c-3.891 6.298-7.475 9.574-14.387 13.056-12.39 6.298-22.374 6.246-34.458-0.051zM787.814 747.162c10.957-5.837 17.51-12.134 22.528-21.606l4.608-8.755v-537.6l-4.608-8.755c-5.018-9.472-11.571-15.77-22.528-21.606l-7.014-3.789h-537.6l-9.114 5.069c-9.933 5.478-15.462 11.264-21.248 22.067l-3.789 7.014-0.461 265.114c-0.256 171.162 0.154 267.315 1.28 271.36 2.56 9.626 11.059 21.76 18.637 26.829 14.694 9.728-2.202 9.165 286.054 8.806l266.24-0.358 7.014-3.789zM366.746 608.768c-6.656-3.482-10.547-7.014-14.285-13.107l-5.171-8.294v-278.733l5.171-8.294c3.738-6.093 7.629-9.626 14.285-13.107l9.114-4.762h272.282l9.114 4.762c6.656 3.482 10.547 7.014 14.285 13.107l5.171 8.294v278.733l-5.171 8.294c-3.738 6.093-7.629 9.626-14.285 13.107l-9.114 4.762h-272.282l-9.114-4.762zM602.47 448v-90.47h-180.941v180.941h180.941v-90.47z" />
<glyph unicode="&#xe930;" glyph-name="sidebar-layouts" d="M170.667 916.196c-48.868-3.812-92.843-34.076-113.607-78.222-14.677-31.118-13.54 2.048-13.54-389.973s-1.138-358.855 13.54-389.973c13.54-28.786 36.181-51.428 64.967-64.967 31.118-14.677-2.048-13.54 389.973-13.54s358.855-1.138 389.973 13.54c37.717 17.749 65.934 52.907 75.378 93.98 2.958 13.028 3.129 29.639 3.129 360.96 0 331.776-0.114 347.932-3.129 360.96-9.557 41.358-37.49 76.174-75.378 93.98-31.118 14.62 4.096 13.369-381.44 13.596-188.188 0.171-345.657 0-349.867-0.341zM865.28 827.62c12.459-5.803 19.854-13.084 25.828-25.486l4.892-10.24v-159.573h-768v78.962c0 91.762-0.341 89.714 15.36 105.358 16.668 16.668-21.618 15.076 368.64 15.189l343.893 0.114 9.387-4.324zM327.68 306.347v-242.347h-159.573l-10.24 4.892c-12.402 5.973-19.684 13.369-25.486 25.828l-4.324 9.387-0.057 222.322v222.265h199.68v-242.347zM896 326.428l-0.057-222.322-4.324-9.387c-5.803-12.459-13.084-19.854-25.486-25.828l-10.24-4.892h-444.587v484.693h484.693v-222.265z" />
<glyph unicode="&#xe931;" glyph-name="sidebar-maps" d="M326.81 909.005c-8.448-3.84-291.942-165.632-303.974-173.466-6.451-4.198-9.933-8.090-13.21-14.694l-4.506-8.96v-698.675l4.762-9.165c8.602-16.435 29.338-24.627 45.466-17.869 3.584 1.536 69.786 38.861 146.995 82.995l140.442 80.282 165.734-82.842c181.658-90.829 172.544-86.989 188.672-79.616 8.448 3.84 291.942 165.632 303.974 173.466 6.451 4.198 9.933 8.090 13.21 14.694l4.506 8.96-0.051 349.133c0 347.29-0.051 349.133-3.482 356.762-4.71 10.291-7.782 13.466-17.818 18.176-9.83 4.608-20.429 5.171-29.286 1.434-3.379-1.382-69.376-38.656-146.586-82.79l-140.442-80.282-165.734 82.842c-181.658 90.829-172.544 86.989-188.672 79.616zM512.87 747.11l132.25-66.15v-299.213c0-164.608-0.563-298.957-1.28-298.65-0.717 0.358-60.621 30.106-133.12 66.15l-131.84 65.536v299.213c0 164.557 0.358 299.213 0.87 299.213 0.461 0 60.365-29.747 133.12-66.099zM303.36 510.771l-0.41-297.318-109.875-62.771c-60.416-34.56-110.541-62.771-111.36-62.771-0.87 0-1.331 126.31-1.075 297.318l0.41 297.318 109.261 62.618c60.058 34.458 110.182 62.72 111.36 62.771 1.69 0.154 2.048-59.802 1.69-297.165zM943.36 510.771l-0.41-297.318-109.875-62.771c-60.416-34.56-110.541-62.771-111.36-62.771-0.87 0-1.331 126.31-1.075 297.318l0.41 297.318 109.261 62.618c60.058 34.458 110.182 62.72 111.36 62.771 1.69 0.154 2.048-59.802 1.69-297.165z" />
<glyph unicode="&#xe932;" glyph-name="sidebar-multi-level" horiz-adv-x="922" d="M691.814 910.234c-24.166-3.942-46.694-12.749-68.198-26.726-14.131-9.114-39.578-36.147-48.742-51.712-21.248-36.045-28.467-77.875-20.275-118.016 2.97-14.592 3.021-15.667 0.563-17.459-1.434-1.075-53.658-31.693-116.070-68.096l-113.459-66.15-11.11 9.677c-20.378 17.766-42.752 29.645-69.478 36.915-10.496 2.816-16.486 3.328-39.987 3.379-30.362 0.051-41.318-1.894-64.614-11.622-24.883-10.342-51.354-31.027-68.301-53.35-17.050-22.528-29.389-54.63-32.102-83.712-7.68-81.306 43.878-154.419 124.365-176.435 11.418-3.072 16.435-3.533 40.653-3.482 23.654 0.051 29.491 0.563 40.192 3.482 26.573 7.168 51.354 20.634 71.578 38.707l8.806 7.936 114.074-66.355c62.72-36.506 114.944-67.226 116.019-68.25 1.638-1.536 1.434-4.659-1.126-17.306-4.198-20.634-4.198-44.698 0-65.331 6.81-33.434 19.917-57.856 44.442-82.637 22.682-22.938 43.162-35.43 71.475-43.622 81.664-23.706 169.062 18.944 200.090 97.587 39.168 99.123-23.757 209.050-128.717 224.973-48.998 7.475-99.072-7.168-133.939-39.117-5.581-5.12-10.854-9.318-11.674-9.318-1.229 0-229.786 132.506-231.987 134.451-0.307 0.307 0.614 5.581 2.099 11.725 1.434 6.195 2.97 20.275 3.379 31.232 0.717 18.586-0.358 29.286-5.069 51.456-0.819 3.635 4.659 7.066 112.282 69.888 62.259 36.352 114.739 66.662 116.685 67.43 2.97 1.178 4.608 0.358 10.65-5.274 48.691-45.67 121.19-57.242 181.709-29.082 44.851 20.838 78.746 61.235 90.931 108.237 26.675 103.066-48.026 203.469-154.266 207.36-11.366 0.41-23.194-0.102-30.874-1.382zM732.979 834.918c18.381-3.277 33.331-11.315 47.258-25.242 18.074-18.227 26.163-37.734 26.163-63.181 0-25.549-7.936-44.698-26.112-63.13-35.482-35.942-91.187-36.25-126.822-0.717-39.219 39.117-34.56 103.373 9.779 136.090 14.438 10.598 35.072 17.715 52.531 18.125 2.97 0.102 10.701-0.819 17.203-1.946zM226.56 535.245c39.834-10.394 68.301-46.899 68.301-87.501 0-24.422-9.165-45.722-27.443-63.795-17.92-17.766-37.734-26.061-62.362-26.061-41.011 0-77.312 27.853-87.398 67.021-3.123 12.134-3.123 33.536 0 45.67 7.936 30.925 33.536 56.32 65.126 64.614 11.264 2.918 32.512 2.97 43.776 0.051zM743.629 235.059c28.826-8.96 52.992-34.406 60.416-63.744 3.021-11.776 3.021-32.973 0-44.595-6.4-24.627-24.986-47.616-46.899-58.061-16.077-7.68-23.091-9.267-40.602-9.216-19.917 0.051-35.533 4.864-50.995 15.718-19.405 13.619-31.488 31.744-36.659 54.886-10.906 49.050 22.426 99.123 71.936 107.981 11.264 1.997 31.232 0.614 42.803-2.97z" />
<glyph unicode="&#xe933;" glyph-name="sidebar-pages" horiz-adv-x="819" d="M129.229 909.978c-25.088-5.376-42.854-15.155-61.645-33.946-21.709-21.709-32.922-44.339-36.198-73.114-1.024-9.011-1.382-118.477-1.075-363.776l0.41-350.925 3.021-10.547c7.168-25.242 15.821-39.936 34.458-58.368 19.354-19.251 40.755-30.208 66.714-34.202 6.093-0.922 99.686-1.28 280.832-1.024l271.718 0.41 12.237 3.84c43.366 13.568 73.933 45.67 85.811 90.112l2.97 11.162v539.29l-3.174 6.144c-2.253 4.301-44.749 47.718-138.598 141.67l-135.373 135.526-186.368-0.154c-158.362-0.051-187.802-0.41-195.738-2.099zM457.677 722.074c0.358-107.008 0.563-115.302 2.816-119.45 4.045-7.424 10.65-13.978 17.92-17.818l6.963-3.686 227.379-0.768-0.358-243.302-0.358-243.354-3.789-7.68c-4.608-9.421-13.619-17.971-23.962-22.835l-7.782-3.635h-533.811l-7.782 3.635c-10.342 4.864-19.354 13.414-23.962 22.835l-3.789 7.68v708.608l2.918 6.298c5.786 12.544 18.33 22.989 31.795 26.675 4.762 1.28 42.906 1.69 160.87 1.741l154.573 0.102 0.358-115.046zM595.968 719.718l62.771-62.822h-126.259v62.822c0 34.509 0.154 62.771 0.358 62.771s28.57-28.262 63.13-62.771zM223.232 609.997c-7.424-3.482-16.282-12.339-19.098-19.149-7.475-17.818-0.051-38.554 17.101-47.974l7.475-4.096 49.613-0.41c57.19-0.461 60.262-0.051 70.758 9.626 7.936 7.373 11.571 14.643 12.39 25.037 1.28 15.872-6.4 29.645-20.429 36.659l-7.066 3.533-51.968-0.051c-51.558 0-52.019 0-58.778-3.174zM223.232 439.347c-7.424-3.482-16.282-12.339-19.098-19.149-7.475-17.818-0.051-38.554 17.101-47.974l7.475-4.096h361.779l6.605 3.379c12.954 6.605 20.531 19.251 20.531 34.15-0.051 5.018-0.973 11.059-2.202 13.875-3.226 7.475-11.827 16.23-19.456 19.814l-6.81 3.174h-359.117l-6.81-3.174zM225.536 270.131c-6.298-1.997-17.254-12.186-20.531-19.098-8.704-18.278-1.843-39.168 16.179-49.357l7.526-4.198h361.779l5.632 2.97c9.062 4.864 13.773 9.574 17.818 17.818 4.403 9.011 5.069 22.323 1.485 30.566-3.226 7.526-11.827 16.282-19.456 19.814l-6.81 3.174-179.558-0.102c-122.88-0.102-180.992-0.563-184.064-1.587z" />
<glyph unicode="&#xe934;" glyph-name="sidebar-projects" d="M401.92 867.021c-26.061-5.888-43.11-15.462-62.31-34.867-15.77-15.872-24.013-29.389-30.822-50.483-3.328-10.394-3.942-16.538-4.608-47.258l-0.717-35.328-155.853-1.126-13.056-4.403c-21.146-7.219-34.918-15.821-50.944-32.051-16.026-16.179-24.218-29.747-30.976-51.354l-3.994-12.8v-469.35l3.994-12.8c6.758-21.606 14.95-35.174 30.976-51.354 16.026-16.23 29.747-24.832 50.944-32.051l13.056-4.506h728.781l13.056 4.506c20.634 7.014 34.97 15.923 50.227 31.181 15.258 15.309 24.166 29.645 31.232 50.227l4.454 13.107v472.73l-4.454 13.107c-7.066 20.582-15.974 34.918-31.232 50.176-15.309 15.309-29.645 24.218-50.227 31.232l-13.056 4.403-155.853 1.126-0.717 35.328c-0.666 32.102-1.126 36.454-5.069 48.384-6.758 20.326-15.718 34.816-31.078 50.227-15.309 15.258-29.645 24.166-50.227 31.181l-13.056 4.454-104.141 0.358c-82.637 0.256-106.189-0.154-114.33-1.997zM617.165 789.862c10.803-5.786 16.538-11.366 22.067-21.299 4.966-8.96 5.018-9.574 5.632-39.373l0.563-30.31h-266.547v26.88c0 14.797 0.768 29.594 1.69 32.922 2.611 9.421 11.11 21.504 18.637 26.47 14.182 9.37 12.134 9.216 115.354 8.806 94.874-0.358 95.642-0.41 102.605-4.096zM303.77 362.598v-261.171l-145.92 0.973-9.062 5.018c-9.984 5.53-15.514 11.315-21.299 22.067l-3.738 7.066-0.461 222.413c-0.307 142.899 0.154 224.717 1.229 228.71 2.56 9.626 11.059 21.76 18.688 26.829 13.67 9.062 14.541 9.114 90.163 9.216l70.4 0.051v-261.171zM645.12 362.65v-261.12h-266.24v522.24h266.24v-261.12zM873.165 619.162c10.803-5.786 16.538-11.315 22.067-21.248l5.018-9.114v-452.25l-3.738-7.066c-5.786-10.752-11.315-16.538-21.299-22.067l-9.062-5.018-145.92-0.973v522.496l72.96-0.512c71.424-0.461 73.114-0.563 79.974-4.25z" />
<glyph unicode="&#xe935;" glyph-name="sidebar-tables" d="M76.345 915.456c-9.557-2.219-15.303-5.632-22.073-13.141-11.321-12.516-10.752-2.389-10.752-194.901v-174.933l5.12-9.273c5.632-10.183 15.019-17.977 24.86-20.651 4.21-1.138 66.788-1.536 181.077-1.252l174.649 0.455 6.827 3.698c7.964 4.324 14.564 10.98 19.001 19.342 3.072 5.746 3.186 13.596 3.186 184.434v178.517l-5.177 8.363c-6.201 10.069-19.172 18.546-30.834 20.139-12.288 1.65-338.603 0.967-345.884-0.796zM598.812 916.139c-8.761-1.365-22.471-11.207-27.876-20.025l-5.177-8.363-0.455-175.957c-0.455-160.085-0.228-176.583 2.332-183.353 3.584-9.444 11.264-18.148 20.139-22.926l6.997-3.755 174.876-0.455c190.009-0.512 182.443-0.853 195.129 8.875 3.186 2.389 8.021 8.42 10.752 13.312l4.949 8.988v174.933c0 143.815-0.398 176.128-2.332 181.532-3.186 9.045-13.141 19.684-22.414 23.95-7.623 3.584-8.988 3.584-180.053 3.755-94.834 0.114-174.421-0.114-176.868-0.512zM375.467 708.267v-123.733h-247.467v247.467h247.467v-123.733zM896 708.267v-123.733h-247.467v247.467h247.467v-123.733zM71.225 392.647c-9.785-3.47-17.067-9.899-22.642-19.968l-5.063-9.159v-174.933c0-193.82-0.683-182.443 11.435-195.584 13.255-14.393 0-13.483 197.632-13.483h174.933l9.273 5.12c10.183 5.632 17.977 15.019 20.651 24.86 1.138 4.21 1.536 66.788 1.252 181.077l-0.455 174.649-3.698 6.827c-4.836 8.932-11.605 15.189-21.049 19.513-7.566 3.413-10.24 3.47-181.76 3.413-141.028-0.057-175.275-0.455-180.508-2.332zM589.653 391.054c-10.24-4.892-16.555-11.264-21.22-21.561-3.413-7.566-3.47-10.24-3.413-181.76 0.057-141.028 0.455-175.275 2.332-180.508 3.47-9.785 9.899-17.067 19.968-22.642l9.159-5.063h174.933c197.632 0 184.377-0.91 197.632 13.483 12.117 13.141 11.435 1.764 11.435 195.584v174.933l-5.063 9.159c-5.575 10.069-12.857 16.498-22.642 19.968-5.234 1.877-39.538 2.332-180.508 2.332l-174.080 0.057-8.533-3.982zM375.467 187.733v-123.733h-247.467v247.467h247.467v-123.733zM896 187.733v-123.733h-247.467v247.467h247.467v-123.733z" />
<glyph unicode="&#xe936;" glyph-name="sidebar-tasks" horiz-adv-x="819" d="M267.622 911.309c-12.442-2.15-29.184-10.24-39.27-18.893-14.182-12.186-25.088-34.304-27.034-54.63l-0.922-9.933-32.256-0.666c-26.829-0.563-34.202-1.178-43.622-3.584-44.902-11.366-79.258-45.875-90.675-90.931l-3.123-12.288v-314.726c0-296.653 0.154-315.29 2.406-324.915 10.65-44.954 42.138-78.541 86.579-92.518l12.032-3.738h555.725l12.237 3.84c36.557 11.418 65.536 37.427 79.462 71.219 10.138 24.678 9.318-4.915 9.318 346.112v314.726l-3.072 12.032c-11.571 45.517-45.619 79.77-90.624 91.187-9.523 2.406-16.794 3.021-43.725 3.584l-32.256 0.666-0.922 9.062c-3.379 33.894-22.938 59.392-54.886 71.578l-7.987 3.021-141.978 0.205c-78.131 0.102-143.565-0.102-145.408-0.41zM540.416 835.482c1.178-1.229 1.638-13.363 1.638-46.131 0-32.819-0.461-44.954-1.638-46.182-2.406-2.355-259.226-2.355-261.632 0-2.304 2.355-2.304 89.958 0 92.314 2.406 2.355 259.226 2.355 261.632 0zM201.318 741.222c2.816-28.979 19.046-53.504 43.674-65.843 18.893-9.472 10.906-9.062 168.192-8.602l141.824 0.358 7.987 3.021c32.051 12.237 51.507 37.683 54.886 71.834l0.973 9.318 30.208-0.461c30.003-0.41 30.259-0.461 37.427-4.25 9.165-4.813 16.896-12.544 21.709-21.709l3.84-7.219v-623.974l-3.789-7.68c-4.608-9.421-13.619-17.971-23.962-22.835l-7.782-3.635h-533.811l-7.782 3.635c-10.342 4.864-19.354 13.414-23.962 22.835l-3.789 7.68v623.974l3.84 7.219c6.195 11.827 17.357 21.197 29.645 24.934 1.843 0.563 16.077 1.075 31.539 1.178l28.16 0.102 0.973-9.882z" />
<glyph unicode="&#xe937;" glyph-name="sidebar-tickets" d="M466.79 910.387c-168.346-17.408-313.139-123.034-380.826-277.76-15.616-35.584-27.443-77.773-34.202-121.498-4.301-27.75-4.301-98.509 0-126.259 8.038-52.173 21.35-95.437 42.854-139.11 25.651-52.122 49.306-85.248 89.6-125.44 40.499-40.346 73.728-64.205 123.853-88.781 31.078-15.309 51.814-23.245 81.971-31.539 91.187-24.986 192.717-20.685 281.754 11.93 21.811 7.987 67.226 30.362 86.835 42.752 57.344 36.25 110.49 89.395 146.688 146.688 13.875 22.016 34.97 65.178 43.418 88.883 37.786 106.086 36.198 223.846-4.352 327.27-9.83 24.986-30.362 64.205-45.619 87.091-74.24 111.104-187.443 182.63-321.894 203.366-21.402 3.277-87.654 4.762-110.080 2.406zM494.848 835.84c-0.154-2.765-178.534-309.76-179.968-309.76-1.587 0-99.84 168.909-99.84 171.622 0 2.867 19.661 23.962 35.379 37.99 66.867 59.648 141.363 91.802 232.55 100.301 3.328 0.307 7.322 0.717 8.96 0.87s2.97-0.307 2.918-1.024zM603.29 826.112c92.518-22.477 172.595-77.363 228.403-156.467 4.403-6.195 7.987-11.776 7.987-12.39 0-0.563-81.101-1.024-180.173-1.024-105.626 0-179.968 0.614-179.661 1.536 0.307 0.819 22.784 39.987 49.971 87.040 40.038 69.274 50.022 85.504 52.89 85.504 1.946 0 11.213-1.894 20.582-4.198zM256.87 473.293c48.794-84.582 88.986-154.88 89.293-156.109 0.461-1.946-16.179-2.253-99.686-1.894l-100.25 0.461-4.096 11.93c-12.339 36.147-18.278 74.752-18.33 119.45-0.051 47.872 5.325 82.278 19.405 124.16 6.912 20.634 22.016 55.962 23.859 55.859 0.563 0 40.96-69.274 89.805-153.856zM627.405 514.15l38.246-66.15-76.493-132.25h-154.317l-38.246 66.099-38.195 66.099 31.795 55.040c17.459 30.31 34.765 60.262 38.451 66.611l6.707 11.571 153.805-0.922 38.246-66.099zM881.869 568.32c12.595-36.864 18.278-74.445 18.278-120.32 0-48.179-5.888-84.429-20.582-126.669-6.861-19.712-20.992-52.531-22.579-52.48-1.229 0.051-178.278 306.432-179.149 309.965-0.461 1.946 16.179 2.253 99.686 1.894l100.25-0.461 4.096-11.93zM760.218 284.211c26.829-46.438 48.742-85.402 48.742-86.528 0-3.686-41.114-43.52-58.931-57.037-48.333-36.813-101.786-61.594-157.798-73.114-21.35-4.403-63.181-9.421-63.181-7.578 0 0.717 143.411 249.754 170.24 295.629 5.171 8.755 9.984 15.258 10.752 14.49s23.347-39.424 50.176-85.862zM544.41 239.002c0-0.973-98.56-171.776-99.891-173.056-1.485-1.485-28.672 4.71-48.947 11.11-66.355 21.043-127.693 60.416-172.339 110.643-14.643 16.486-29.696 35.891-35.584 45.875l-3.686 6.195h180.224c99.123 0 180.224-0.358 180.224-0.768z" />
<glyph unicode="&#xe938;" glyph-name="sidebar-widgets" d="M298.65 911.155c-60.006-11.674-102.912-50.739-118.784-108.186-2.253-8.192-3.072-17.306-3.123-34.97 0-25.856 2.662-39.475 11.674-58.88l4.352-9.37-59.238-0.87c-56.474-0.819-59.597-1.024-66.099-4.506-8.55-4.608-11.725-8.038-16.077-17.715-3.379-7.424-3.482-10.701-3.533-122.214l-0.051-114.586 4.762-9.114c3.482-6.656 7.066-10.547 13.107-14.285 8.294-5.12 8.397-5.171 37.888-5.683l29.542-0.563 0.461-200.090 0.461-200.141 5.12-8.346c3.738-6.042 7.629-9.626 14.285-13.107l9.114-4.762h698.982l9.114 4.762c6.656 3.482 10.547 7.066 14.285 13.107l5.12 8.346 0.461 200.141 0.461 200.090 29.542 0.563c29.491 0.512 29.594 0.563 37.888 5.683 6.042 3.738 9.626 7.629 13.107 14.285l4.762 9.114v229.632l-4.762 9.114c-3.482 6.656-7.066 10.547-13.107 14.285l-8.346 5.12-59.443 0.512c-32.666 0.256-59.443 0.87-59.443 1.331s1.946 4.608 4.25 9.216c8.704 17.203 11.878 32.922 11.878 58.931 0 19.61-0.666 26.266-3.789 37.222-15.565 54.323-57.805 93.389-112.947 104.55-19.866 3.994-49.254 2.611-72.55-3.379-53.248-13.773-101.222-54.221-135.475-114.33-4.762-8.346-9.062-16.026-9.574-17.050-0.666-1.382-1.178-1.382-1.843 0-0.512 1.024-4.813 8.704-9.574 17.050-34.253 60.058-82.125 100.506-135.475 114.33-13.21 3.43-22.17 4.557-40.038 5.018-12.698 0.307-24.986 0.205-27.341-0.256zM342.016 834.56c31.334-6.656 58.931-27.392 82.842-62.259 13.056-19.098 35.942-64.922 35.942-71.987 0-0.819-33.229-1.434-73.882-1.434-61.286 0-75.622 0.461-84.070 2.662-34.355 8.909-56.986 43.674-50.637 77.722 7.782 41.933 45.005 64.819 89.805 55.296zM728.269 832.358c12.544-4.813 24.576-14.182 31.795-24.678 9.37-13.722 11.93-22.118 11.93-39.68 0-10.291-0.973-17.92-2.918-23.040-6.81-18.176-22.323-33.997-40.704-41.523-8.704-3.584-11.52-3.738-87.091-4.198-51.354-0.358-78.080 0.051-78.080 1.178 0 0.973 3.533 9.933 7.782 19.968 27.546 64.461 65.843 104.141 110.182 114.227 14.234 3.226 35.482 2.202 47.104-2.253zM474.47 554.65v-69.12h-351.59v138.24h351.59v-69.12zM901.12 554.65v-69.12h-351.59v138.24h351.59v-69.12zM474.47 234.65v-175.77h-266.24v351.59h266.24v-175.821zM815.77 234.65v-175.77h-266.24v351.59h266.24v-175.821z" />
<glyph unicode="&#xe939;" glyph-name="settings-icon-black" d="M979.034 366.61l-42.605 35.068c-29.178 24.022-29.126 68.67 0.006 92.644l42.598 35.068c30.31 24.958 38.067 67.754 18.432 101.764l-84.115 145.692c-19.635 34.008-60.582 48.688-97.344 34.916l-51.674-19.358c-35.392-13.256-74.029 9.102-80.23 46.322l-9.075 54.428c-6.451 38.732-39.639 66.846-78.908 66.846h-168.23c-39.27 0-72.458-28.114-78.912-66.848l-9.072-54.426c-6.214-37.286-44.906-59.556-80.232-46.324l-51.67 19.36c-36.766 13.772-77.71-0.91-97.348-34.916l-84.114-145.69c-19.634-34.006-11.882-76.804 18.436-101.764l42.598-35.068c29.184-24.024 29.126-68.668 0-92.644l-42.6-35.068c-30.316-24.96-38.070-67.757-18.436-101.761l84.116-145.696c19.636-34.003 60.572-48.685 97.348-34.918l51.668 19.36c35.398 13.261 74.030-9.114 80.232-46.323l9.072-54.419c6.456-38.739 39.644-66.854 78.912-66.854h168.23c39.268 0 72.458 28.115 78.909 66.848l9.069 54.426c6.214 37.274 44.902 59.558 80.237 46.323l51.674-19.36c36.774-13.773 77.709 0.909 97.344 34.918l84.122 145.696c19.629 34.003 11.872 76.801-18.438 101.759zM844.070 159.155l-51.674 19.36c-82.592 30.938-172.737-21.261-187.207-108.090l-9.070-54.426h-168.23l-9.072 54.426c-14.498 86.995-104.772 138.97-187.21 108.090l-51.67-19.36-84.114 145.69 42.598 35.069c68.098 56.060 67.956 160.228 0 216.172l-42.598 35.068 84.116 145.692 51.668-19.358c82.6-30.94 172.74 21.26 187.21 108.086l9.070 54.426h168.23l9.070-54.426c14.5-87.004 104.777-138.962 187.209-108.086l51.674 19.358 84.134-145.672c0 0-0.006-0.006-0.026-0.018l-42.598-35.068c-68.096-56.056-67.955-160.227 0-216.172l42.598-35.065-84.109-145.696zM512.004 645.334c-108.81 0-197.334-88.524-197.334-197.334s88.524-197.331 197.334-197.331c108.81 0 197.334 88.521 197.334 197.331s-88.524 197.334-197.334 197.334zM512.004 330.666c-64.698 0-117.334 52.636-117.334 117.334s52.636 117.334 117.334 117.334c64.698 0 117.334-52.636 117.334-117.334s-52.636-117.334-117.334-117.334z" />
<glyph unicode="&#xe93a;" glyph-name="twitter-monocolor-icon" horiz-adv-x="1210" d="M1210.182 838.774c-45-20.559-92.961-34.186-142.95-40.803 51.433 31.98 90.689 82.235 109.14 142.809-47.951-29.775-100.901-50.806-157.324-62.543-45.531 50.491-110.428 81.762-181.224 81.762-137.356 0-247.936-116.106-247.936-258.442 0-20.48 1.664-40.172 5.748-58.919-206.261 10.476-388.771 113.428-511.378 270.257-87.678-164.518 10.286-299.402 76.242-345.324-39.861 0.788-78.965 12.839-112.094 31.823 0-128.252 85.998-232.684 198.772-256.709-24.658-8.522-78.526-13.155-112.017-4.096 32.145-102.321 123.362-177.546 231.825-179.988-84.41-68.765-208.802-124.817-366.988-106.653 109.899-73.806 240.146-115.948 380.602-115.948 456.541 0 706.141 393.846 706.141 735.232 0 11.421-0.382 22.449-0.912 33.398 49.245 36.391 90.615 81.841 124.351 134.144z" />
<glyph unicode="&#xe93b;" glyph-name="instagram-monocolor-icon" d="M1022.928 658.941c-2.396 54.409-11.196 91.815-23.798 124.228-13.005 34.405-33.007 65.208-59.215 90.814-25.607 26.005-56.614 46.212-90.617 59.011-32.604 12.604-69.816 21.403-124.225 23.802-54.813 2.602-72.215 3.204-211.242 3.204s-156.428-0.602-211.041-3.001c-54.409-2.399-91.815-11.205-124.219-23.802-34.413-13.003-65.216-33.006-90.823-59.215-26.005-25.607-46.204-56.613-59.011-90.619-12.604-32.608-21.403-69.811-23.801-124.219-2.602-54.815-3.204-72.217-3.204-211.245s0.602-156.429 3.001-211.042c2.399-54.409 11.205-91.812 23.809-124.225 13.003-34.406 33.202-65.208 59.207-90.815 25.607-26.010 56.613-46.217 90.619-59.010 32.608-12.609 69.81-21.408 124.227-23.805 54.604-2.41 72.015-3.004 211.041-3.004s156.429 0.594 211.041 3.004c54.409 2.396 91.812 11.196 124.218 23.805 68.82 26.604 123.228 81.012 149.839 149.825 12.595 32.604 21.402 69.816 23.798 124.225 2.396 54.613 3.004 72.015 3.004 211.042s-0.205 156.43-2.608 211.042zM930.72 240.858c-2.205-50.005-10.609-77.012-17.606-95.020-17.21-44.605-52.613-80.015-97.225-97.219-18.002-7.004-45.199-15.401-95.014-17.599-54.013-2.403-70.212-2.997-206.84-2.997s-153.029 0.594-206.845 2.997c-50.010 2.198-77.015 10.595-95.018 17.599-22.2 8.206-42.407 21.204-58.808 38.209-17.003 16.609-30.006 36.611-38.211 58.812-7.001 18.002-15.401 45.213-17.597 95.014-2.406 54.013-3 70.22-3 206.848s0.594 153.030 3 206.837c2.196 50.010 10.596 77.015 17.597 95.018 8.205 22.208 21.208 42.407 38.414 58.817 16.597 17.003 36.601 30.006 58.808 38.203 18.004 7.001 45.212 15.402 95.018 17.605 54.011 2.399 70.217 3 206.837 3 136.832 0 153.030-0.601 206.843-3 50.012-2.204 77.018-10.604 95.020-17.605 22.2-8.197 42.407-21.2 58.812-38.203 16.998-16.605 30.003-36.609 38.209-58.817 6.997-18.003 15.401-45.204 17.606-95.018 2.396-54.011 2.997-70.209 2.997-206.837s-0.601-152.631-2.997-206.643zM513.851 710.954c-145.224 0-263.051-117.82-263.051-263.051s117.828-263.051 263.051-263.051c145.231 0 263.051 117.819 263.051 263.051s-117.819 263.051-263.051 263.051zM513.851 277.265c-94.213 0-170.635 76.416-170.635 170.638s76.421 170.635 170.635 170.635c94.222 0 170.638-76.414 170.638-170.635s-76.416-170.638-170.638-170.638zM848.698 721.352c0-33.913-27.498-61.411-61.42-61.411-33.915 0-61.413 27.498-61.413 61.411 0 33.92 27.498 61.411 61.413 61.411 33.922 0 61.42-27.49 61.42-61.411z" />
<glyph unicode="&#xe93c;" glyph-name="google-monocolor-icon" d="M226.94 341.173l-35.644-133.064-130.278-2.756c-38.934 72.214-61.018 154.836-61.018 242.636 0 84.902 20.648 164.966 57.248 235.465h0.028l115.984-21.264 50.808-115.288c-10.634-31.002-16.43-64.282-16.43-98.912 0.003-37.584 6.812-73.594 19.302-106.816zM1014.963 543.641c5.879-30.972 8.951-62.958 8.951-95.648 0-36.656-3.857-72.411-11.196-106.901-24.926-117.367-90.052-219.85-180.273-292.374l-0.027 0.026-146.088 7.458-20.676 129.068c59.864 35.108 106.648 90.050 131.292 155.822h-273.78v202.55h491.796zM832.488 48.751l0.028-0.034c-87.742-70.528-199.202-112.725-320.534-112.725-194.982 0-364.504 108.988-450.982 269.366l165.922 135.82c43.238-115.396 154.557-197.542 285.060-197.542 56.094 0 108.646 15.165 153.74 41.637l166.766-136.521zM838.727 842.128l-165.866-135.792c-46.671 29.171-101.839 46.024-160.942 46.024-133.458 0-246.858-85.914-287.93-205.448l-166.822 136.551c85.212 164.291 256.872 276.536 454.752 276.536 124.23 0 238.135-44.252 326.808-117.872z" />
<glyph unicode="&#xe93d;" glyph-name="facebook-monocolor-icon" horiz-adv-x="512" d="M142.798 381.868c-3.717 0-81.692-0.026-117.655 0.012-18.514 0.013-25.12 7.207-25.12 27.354-0.024 51.75-0.036 103.501 0 155.251 0.012 19.891 6.996 27.482 25.274 27.494 35.963 0.026 113.512 0.013 117.502 0.013 0 3.545-0.012 78.258 0 112.665 0.024 50.867 8.417 99.558 32.317 144.141 24.468 45.632 60.077 76.889 105.711 94.963 29.227 11.584 59.568 16.205 90.582 16.23 38.804 0.026 77.609-0.013 116.424-0.090 16.679-0.026 24.079-8 24.114-26.163 0.071-48.679 0.071-97.357 0-146.022-0.023-18.355-7.115-25.728-24.172-25.933-31.808-0.372-63.64-0.141-95.413-1.524-32.092 0-48.973-16.947-48.973-52.864-0.769-37.99-0.32-76.019-0.32-115.392 3.007 0 94.335 0.013 137.022 0 19.39 0 26.019-7.206 26.019-28.288 0-51.468-0.012-102.95-0.048-154.419-0.012-20.774-6.238-27.404-25.747-27.418-42.687-0.026-133.66-0.012-137.637-0.012v-416.574c0-22.206-6.464-29.286-26.73-29.286-49.411 0-98.834-0.015-148.244 0-17.91 0-24.895 7.526-24.895 26.895-0.012 135.665-0.012 414.204-0.012 418.966z" />
</font>
</defs>
</svg>
