<svg width="171" height="29" viewBox="0 0 171 29" fill="none" xmlns="http://www.w3.org/2000/svg">
<g clip-path="url(#clip0_3157_4509)">
<path d="M16.9805 22.6302H11.9805L4.27047 12.4602V22.6302H-0.0195312V0.930176H4.27047V10.5102L11.7105 0.930176H16.6405L8.64047 11.4702L16.9805 22.6302Z" fill="#0F1435"/>
<path d="M19.9804 16.5201C20.5204 18.4701 21.9804 19.4401 24.3504 19.4401C25.011 19.4818 25.6719 19.3625 26.2763 19.0926C26.8807 18.8226 27.4106 18.4099 27.8204 17.8901L30.9804 19.7501C30.231 20.8342 29.216 21.7078 28.0324 22.2873C26.8488 22.8669 25.5362 23.1329 24.2204 23.0601C23.0882 23.1135 21.957 22.9352 20.8961 22.5363C19.8352 22.1374 18.8669 21.5262 18.0504 20.7401C17.2823 19.9742 16.6794 19.0591 16.2786 18.0513C15.8779 17.0434 15.6879 15.9642 15.7204 14.8801C15.6916 13.8035 15.8805 12.7322 16.2757 11.7304C16.6709 10.7287 17.2643 9.81698 18.0204 9.05005C18.7931 8.26181 19.7232 7.64516 20.7501 7.24026C21.7769 6.83536 22.8776 6.6513 23.9804 6.70005C25.029 6.66869 26.0722 6.86219 27.0398 7.26753C28.0075 7.67287 28.8771 8.28066 29.5904 9.05005C30.3269 9.82763 30.903 10.7428 31.2856 11.7431C31.6682 12.7435 31.85 13.8094 31.8204 14.8801C31.8174 15.43 31.7672 15.9787 31.6704 16.5201H19.9804ZM19.9204 13.4201H27.8204C27.664 12.4843 27.156 11.6437 26.4004 11.0701C25.7 10.5538 24.8504 10.2799 23.9804 10.2901C23.0198 10.2516 22.0758 10.5486 21.3104 11.1301C20.5715 11.6945 20.0633 12.5085 19.8804 13.4201H19.9204Z" fill="#0F1435"/>
<path d="M36.7293 11.5299C36.7293 11.9499 36.9893 12.2899 37.5293 12.5299C38.1789 12.8038 38.8473 13.0311 39.5293 13.2099C40.3301 13.397 41.1157 13.6444 41.8793 13.9499C42.6757 14.2432 43.3703 14.7607 43.8793 15.4399C44.4484 16.1959 44.7413 17.1241 44.7093 18.0699C44.7555 18.7852 44.6213 19.5007 44.3191 20.1507C44.0168 20.8006 43.5561 21.3643 42.9793 21.7899C41.6727 22.676 40.1169 23.121 38.5393 23.0599C35.3593 23.0599 33.1893 21.8332 32.0293 19.3799L35.4993 17.3799C35.6971 18.0049 36.1021 18.5438 36.6476 18.9074C37.1931 19.271 37.8463 19.4377 38.4993 19.3799C39.9293 19.3799 40.6393 18.9299 40.6393 18.0399C40.6393 17.6265 40.3593 17.2932 39.7993 17.0399C39.1592 16.7342 38.4889 16.4963 37.7993 16.3299C37.0038 16.1395 36.2193 15.9058 35.4493 15.6299C34.6718 15.3214 33.9842 14.8229 33.4493 14.1799C32.891 13.4494 32.6015 12.5488 32.6293 11.6299C32.6 10.939 32.7374 10.2513 33.0298 9.62475C33.3222 8.99818 33.761 8.45116 34.3093 8.02986C35.5183 7.11637 37.0049 6.64675 38.5193 6.69986C39.7275 6.68309 40.9195 6.97936 41.9793 7.55986C43.0104 8.11585 43.8606 8.95566 44.4293 9.97986L40.9793 11.8399C40.7796 11.3527 40.434 10.9393 39.99 10.6564C39.5459 10.3735 39.0252 10.235 38.4993 10.2599C38.042 10.2431 37.5898 10.3613 37.1993 10.5999C37.0482 10.702 36.9257 10.841 36.8434 11.0038C36.7612 11.1665 36.7219 11.3476 36.7293 11.5299Z" fill="#0F1435"/>
<path d="M60.6601 22.6302H55.9801L50.3301 15.6302V22.6302H46.3301V0.930176H50.3301V13.9302L55.7001 7.13018H60.4701L54.2401 14.7902L60.6601 22.6302Z" fill="#0F1435"/>
<path d="M63.71 5.27011C63.3871 5.27414 63.0667 5.21352 62.7676 5.09182C62.4686 4.97012 62.1969 4.78981 61.9686 4.5615C61.7403 4.33319 61.5599 4.0615 61.4382 3.76243C61.3165 3.46336 61.2559 3.14297 61.26 2.82011C61.2595 2.49845 61.3229 2.17989 61.4465 1.88292C61.5701 1.58595 61.7514 1.31647 61.98 1.09011C62.2024 0.854312 62.4705 0.666225 62.7679 0.537291C63.0653 0.408357 63.3858 0.341269 63.71 0.34011C64.035 0.335153 64.3574 0.399472 64.6557 0.528789C64.954 0.658106 65.2214 0.849456 65.44 1.09011C65.6776 1.31106 65.867 1.57884 65.9961 1.87659C66.1252 2.17434 66.1912 2.49559 66.19 2.82011C66.1902 3.14595 66.1237 3.46838 65.9947 3.76761C65.8658 4.06683 65.677 4.33652 65.44 4.56011C65.2152 4.79008 64.9458 4.97168 64.6483 5.09377C64.3508 5.21587 64.0315 5.27587 63.71 5.27011ZM61.72 22.6301V7.13011H65.72V22.6301H61.72Z" fill="#0F1435"/>
<path d="M68.4492 22.63V0H72.4492V22.63H68.4492Z" fill="#0F1435"/>
<path d="M85.2904 7.12988H89.5604L83.9204 22.6299C83.3451 24.5242 82.2253 26.2074 80.7004 27.4699C79.2561 28.5194 77.4773 29.0032 75.7004 28.8299V25.1099C76.5995 25.1759 77.4945 24.9363 78.2404 24.4299C78.9651 23.832 79.4945 23.031 79.7604 22.1299L73.4004 7.12988H77.7804L81.7804 17.5499L85.2904 7.12988Z" fill="#0F1435"/>
<path d="M101.711 7.13012H105.711V22.6301H101.711V20.8001C101.113 21.5424 100.349 22.1337 99.4801 22.5262C98.6116 22.9188 97.6629 23.1017 96.7107 23.0601C95.7064 23.0689 94.7118 22.8638 93.7928 22.4587C92.8739 22.0535 92.0516 21.4575 91.3807 20.7101C89.9162 19.1274 89.1269 17.0358 89.1807 14.8801C89.123 12.7327 89.9134 10.649 91.3807 9.08012C92.0455 8.32325 92.8659 7.71879 93.7858 7.30804C94.7056 6.89729 95.7033 6.68993 96.7107 6.70012C97.6629 6.65855 98.6116 6.84143 99.4801 7.23401C100.349 7.62659 101.113 8.21787 101.711 8.96012V7.13012ZM94.3307 18.0401C95.1639 18.8176 96.2611 19.25 97.4007 19.25C98.5403 19.25 99.6375 18.8176 100.471 18.0401C100.883 17.6265 101.206 17.1326 101.419 16.589C101.632 16.0454 101.732 15.4637 101.711 14.8801C101.733 14.3009 101.634 13.7233 101.421 13.1844C101.207 12.6455 100.884 12.157 100.471 11.7501C99.6467 10.9546 98.546 10.51 97.4007 10.51C96.2553 10.51 95.1547 10.9546 94.3307 11.7501C93.9294 12.1636 93.6161 12.6541 93.4099 13.1921C93.2036 13.7301 93.1086 14.3044 93.1307 14.8801C93.1097 15.4603 93.2051 16.0387 93.4112 16.5814C93.6173 17.1242 93.9299 17.6201 94.3307 18.0401Z" fill="#0F1435"/>
<path d="M112.59 22.2598C112.348 22.5081 112.059 22.7045 111.739 22.8369C111.419 22.9693 111.076 23.0349 110.73 23.0298C110.032 23.0298 109.363 22.7527 108.87 22.2595C108.377 21.7662 108.1 21.0973 108.1 20.3998C108.102 19.7021 108.38 19.0337 108.872 18.5394C109.365 18.0452 110.032 17.765 110.73 17.7598C111.428 17.765 112.097 18.0448 112.591 18.5388C113.085 19.0328 113.364 19.7012 113.37 20.3998C113.373 20.7466 113.306 21.0906 113.172 21.4105C113.038 21.7304 112.84 22.0194 112.59 22.2598Z" fill="#0F1435"/>
<path d="M121.911 23.06C120.83 23.0846 119.755 22.8899 118.751 22.4875C117.748 22.0851 116.836 21.4835 116.072 20.719C115.307 19.9544 114.705 19.0428 114.303 18.0393C113.901 17.0357 113.706 15.961 113.731 14.88C113.74 13.4443 114.125 12.0359 114.847 10.7949C115.568 9.55378 116.603 8.52317 117.846 7.80538C119.09 7.0876 120.499 6.70761 121.935 6.70316C123.371 6.69872 124.783 7.06997 126.031 7.78004C127.231 8.46275 128.21 9.47638 128.851 10.7L125.411 12.7C125.1 12.0623 124.6 11.5353 123.981 11.19C123.344 10.816 122.618 10.6224 121.881 10.63C121.324 10.6117 120.769 10.7099 120.253 10.9183C119.736 11.1266 119.269 11.4406 118.881 11.84C118.494 12.2361 118.19 12.7056 117.987 13.2208C117.785 13.736 117.687 14.2866 117.701 14.84C117.691 15.3931 117.79 15.9427 117.992 16.4575C118.195 16.9722 118.496 17.442 118.881 17.84C119.274 18.2307 119.743 18.5368 120.259 18.7397C120.775 18.9426 121.327 19.038 121.881 19.02C122.628 19.0323 123.365 18.8497 124.021 18.49C124.638 18.1405 125.134 17.61 125.441 16.97L128.911 18.97C128.238 20.2111 127.243 21.2475 126.031 21.97C124.781 22.6992 123.357 23.0759 121.911 23.06Z" fill="#232E73"/>
<path d="M143.061 20.7101C141.914 21.8643 140.45 22.6509 138.854 22.9694C137.258 23.288 135.604 23.124 134.102 22.4986C132.6 21.8731 131.318 20.8144 130.421 19.4575C129.523 18.1006 129.049 16.5071 129.061 14.8801C129.07 13.262 129.556 11.6825 130.458 10.3395C131.361 8.99654 132.64 7.94981 134.134 7.3305C135.629 6.71119 137.274 6.54685 138.862 6.85808C140.45 7.1693 141.91 7.94225 143.061 9.08006C143.838 9.8291 144.452 10.7313 144.864 11.7296C145.275 12.7278 145.475 13.8006 145.451 14.8801C145.473 15.9637 145.272 17.0404 144.861 18.0433C144.45 19.0462 143.837 19.9539 143.061 20.7101ZM134.231 17.9501C135.038 18.7227 136.113 19.1539 137.231 19.1539C138.348 19.1539 139.423 18.7227 140.231 17.9501C140.632 17.5483 140.946 17.0685 141.154 16.5405C141.362 16.0124 141.46 15.4473 141.441 14.8801C141.46 14.3128 141.362 13.7477 141.154 13.2196C140.946 12.6916 140.632 12.2118 140.231 11.8101C139.423 11.0374 138.348 10.6062 137.231 10.6062C136.113 10.6062 135.038 11.0374 134.231 11.8101C133.838 12.2164 133.531 12.6976 133.329 13.2251C133.126 13.7525 133.031 14.3153 133.051 14.8801C133.031 15.4448 133.126 16.0076 133.329 16.5351C133.531 17.0625 133.838 17.5437 134.231 17.9501Z" fill="#232E73"/>
<path d="M164.48 6.69995C165.27 6.66277 166.059 6.79829 166.791 7.09707C167.523 7.39585 168.182 7.85071 168.72 8.42995C169.844 9.71025 170.425 11.3782 170.34 13.0799V22.63H166.34V13.3599C166.386 12.5779 166.144 11.8061 165.66 11.19C165.415 10.9269 165.115 10.7214 164.782 10.5883C164.448 10.4551 164.089 10.3976 163.73 10.42C163.33 10.3985 162.93 10.4684 162.561 10.6243C162.192 10.7803 161.864 11.0181 161.6 11.3199C161.05 12.0705 160.784 12.9918 160.85 13.92V22.63H156.85V13.3599C156.896 12.5779 156.654 11.8061 156.17 11.19C155.927 10.9271 155.629 10.7217 155.297 10.5885C154.965 10.4553 154.607 10.3977 154.25 10.42C153.849 10.4042 153.45 10.4766 153.08 10.6321C152.71 10.7876 152.379 11.0224 152.11 11.3199C151.541 12.0623 151.264 12.9871 151.33 13.92V22.63H147.33V7.12995H151.33V8.76995C151.808 8.08127 152.456 7.52844 153.212 7.16558C153.967 6.80272 154.804 6.64228 155.64 6.69995C156.48 6.65006 157.318 6.8316 158.062 7.2248C158.806 7.61799 159.428 8.20778 159.86 8.92995C160.374 8.19339 161.069 7.60142 161.879 7.21091C162.688 6.8204 163.583 6.64444 164.48 6.69995Z" fill="#232E73"/>
</g>
<defs>
<clipPath id="clip0_3157_4509">
<rect width="170.34" height="28.84" fill="white"/>
</clipPath>
</defs>
</svg>
