<svg width="171" height="29" fill="none" xmlns="http://www.w3.org/2000/svg"><g clip-path="url(#clip0_3157_4509)"><path d="M16.98 22.63h-5L4.27 12.46v10.17H-.02V.93h4.29v9.58L11.71.93h4.93l-8 10.54 8.34 11.16z" fill="#0F1435"/><path d="M19.98 16.52c.54 1.95 2 2.92 4.37 2.92a4.091 4.091 0 003.47-1.55l3.16 1.86a7.7 7.7 0 01-6.76 3.31 8.33 8.33 0 01-6.17-2.32 7.941 7.941 0 01-2.33-5.86 8 8 0 012.3-5.83 7.86 7.86 0 015.96-2.35 7.35 7.35 0 015.61 2.35 8.15 8.15 0 012.23 5.83 9.616 9.616 0 01-.15 1.64H19.98zm-.06-3.1h7.9a3.72 3.72 0 00-1.42-2.35 4 4 0 00-2.42-.78 4.14 4.14 0 00-2.67.84 3.83 3.83 0 00-1.43 2.29h.04zM36.73 11.53c0 .42.26.76.8 1 .649.274 1.317.501 2 .68.8.187 1.586.434 2.35.74a4.4 4.4 0 012 1.49 4.14 4.14 0 01.83 2.63 4.281 4.281 0 01-1.73 3.72 7.4 7.4 0 01-4.44 1.27c-3.18 0-5.35-1.227-6.51-3.68l3.47-2a2.88 2.88 0 003 2c1.43 0 2.14-.45 2.14-1.34 0-.413-.28-.747-.84-1-.64-.306-1.311-.544-2-.71a22.48 22.48 0 01-2.35-.7 5 5 0 01-2-1.45 4 4 0 01-.82-2.55 4.31 4.31 0 011.68-3.6 6.6 6.6 0 014.21-1.33 7 7 0 013.46.86 6.13 6.13 0 012.45 2.42l-3.45 1.86a2.55 2.55 0 00-2.48-1.58 2.33 2.33 0 00-1.3.34 1.07 1.07 0 00-.47.93zM60.66 22.63h-4.68l-5.65-7v7h-4V.93h4v13l5.37-6.8h4.77l-6.23 7.66 6.42 7.84zM63.71 5.27a2.42 2.42 0 01-2.45-2.45 2.43 2.43 0 01.72-1.73 2.39 2.39 0 011.73-.75 2.29 2.29 0 011.73.75 2.351 2.351 0 01.75 1.73 2.39 2.39 0 01-.75 1.74 2.36 2.36 0 01-1.73.71zm-1.99 17.36V7.13h4v15.5h-4zM68.45 22.63V0h4v22.63h-4zM85.29 7.13h4.27l-5.64 15.5a10.09 10.09 0 01-3.22 4.84 7.3 7.3 0 01-5 1.36v-3.72a4 4 0 002.54-.68 4.71 4.71 0 001.52-2.3l-6.36-15h4.38l4 10.42 3.51-10.42zM101.711 7.13h4v15.5h-4V20.8a6.077 6.077 0 01-5 2.26 7.08 7.08 0 01-5.33-2.35 8.28 8.28 0 01-2.2-5.83 8.17 8.17 0 012.2-5.8 7 7 0 015.33-2.38 6.08 6.08 0 015 2.26V7.13zm-7.38 10.91a4.5 4.5 0 006.14 0 4.258 4.258 0 001.24-3.16 4.182 4.182 0 00-1.24-3.13 4.421 4.421 0 00-6.14 0 4.26 4.26 0 00-1.2 3.13 4.349 4.349 0 001.2 3.16zM112.59 22.26a2.549 2.549 0 01-1.86.77 2.63 2.63 0 01-1.858-4.49 2.652 2.652 0 011.858-.78 2.66 2.66 0 012.64 2.64 2.559 2.559 0 01-.78 1.86z" fill="#0F1435"/><path d="M121.911 23.06a8.005 8.005 0 01-7.608-5.02 8 8 0 01-.572-3.16 8.227 8.227 0 014.115-7.075 8.231 8.231 0 018.185-.025 7.207 7.207 0 012.82 2.92l-3.44 2a3.474 3.474 0 00-1.43-1.51 4.065 4.065 0 00-2.1-.56 3.998 3.998 0 00-3 1.21 4.156 4.156 0 00-1.18 3 4.22 4.22 0 001.18 3 4.063 4.063 0 003 1.18 4.302 4.302 0 002.14-.53 3.474 3.474 0 001.42-1.52l3.47 2a7.847 7.847 0 01-2.88 3 8.002 8.002 0 01-4.12 1.09zM143.061 20.71a8.19 8.19 0 01-14-5.83 8.226 8.226 0 015.073-7.55 8.223 8.223 0 018.927 1.75 7.819 7.819 0 012.39 5.8 7.918 7.918 0 01-2.39 5.83zm-8.83-2.76a4.338 4.338 0 006 0 4.147 4.147 0 001.21-3.07 4.152 4.152 0 00-1.21-3.07 4.342 4.342 0 00-6 0c-.393.406-.7.888-.902 1.415a4.194 4.194 0 00-.278 1.655c-.02.565.075 1.128.278 1.655.202.527.509 1.009.902 1.415zM164.48 6.7a5.44 5.44 0 014.24 1.73 6.553 6.553 0 011.62 4.65v9.55h-4v-9.27a3.208 3.208 0 00-.68-2.17 2.435 2.435 0 00-1.93-.77 2.64 2.64 0 00-2.13.9 3.928 3.928 0 00-.75 2.6v8.71h-4v-9.27a3.208 3.208 0 00-.68-2.17 2.411 2.411 0 00-1.92-.77 2.74 2.74 0 00-2.14.9 3.83 3.83 0 00-.78 2.6v8.71h-4V7.13h4v1.64a4.84 4.84 0 014.31-2.07 4.6 4.6 0 014.22 2.23 5.232 5.232 0 014.62-2.23z" fill="#232E73"/></g><defs><clipPath id="clip0_3157_4509"><path fill="#fff" d="M0 0h170.34v28.84H0z"/></clipPath></defs></svg>