<svg width="217" height="37" fill="none" xmlns="http://www.w3.org/2000/svg"><path d="M22.184 29h-6.201l-9.75-12.792V29H.85V1.7h5.382v12.051L15.593 1.7h6.2l-10.1 13.26L22.183 29zm3.756-7.683c.676 2.444 2.509 3.666 5.499 3.666 1.924 0 3.38-.65 4.368-1.95l4.056 2.34c-1.924 2.782-4.758 4.173-8.502 4.173-3.224 0-5.811-.975-7.761-2.925-1.95-1.95-2.925-4.407-2.925-7.371 0-2.938.962-5.382 2.886-7.332 1.924-1.976 4.394-2.964 7.41-2.964 2.86 0 5.213.988 7.059 2.964 1.872 1.976 2.808 4.42 2.808 7.332 0 .65-.065 1.339-.195 2.067H25.94zm-.078-3.9h9.945c-.286-1.326-.884-2.314-1.794-2.964-.884-.65-1.898-.975-3.042-.975-1.352 0-2.47.351-3.354 1.053-.884.676-1.469 1.638-1.755 2.886zm21.198-2.379c0 .52.337.949 1.014 1.287.702.312 1.547.598 2.535.858.987.234 1.975.546 2.963.936.988.364 1.82.988 2.496 1.872.703.884 1.053 1.989 1.053 3.315 0 2.002-.754 3.549-2.262 4.641-1.482 1.066-3.34 1.599-5.577 1.599-4.003 0-6.733-1.547-8.19-4.641l4.369-2.457c.572 1.69 1.846 2.535 3.822 2.535 1.794 0 2.69-.559 2.69-1.677 0-.52-.35-.936-1.053-1.248-.675-.338-1.508-.637-2.495-.897a26.3 26.3 0 01-2.964-.975 6.303 6.303 0 01-2.535-1.833c-.677-.858-1.015-1.924-1.015-3.198 0-1.924.703-3.432 2.106-4.524 1.43-1.118 3.198-1.677 5.304-1.677 1.587 0 3.03.364 4.33 1.092 1.3.702 2.326 1.716 3.08 3.042l-4.29 2.34c-.623-1.326-1.663-1.989-3.12-1.989-.65 0-1.195.143-1.637.429-.416.286-.624.676-.624 1.17zM77.166 29h-5.85l-7.098-8.853V29h-5.031V1.7h5.03v16.38l6.709-8.58h6.006l-7.84 9.633L77.167 29zm3.837-21.84c-.832 0-1.56-.299-2.184-.897-.598-.624-.897-1.352-.897-2.184 0-.832.3-1.56.897-2.184.624-.624 1.352-.936 2.184-.936a2.91 2.91 0 012.184.936c.624.624.936 1.352.936 2.184 0 .832-.312 1.56-.936 2.184-.598.598-1.326.897-2.184.897zM78.507 29V9.5h5.031V29h-5.03zm8.466 0V.53h5.03V29h-5.03zm21.18-19.5h5.382L106.437 29c-1.014 2.808-2.366 4.836-4.056 6.084-1.664 1.274-3.744 1.846-6.24 1.716v-4.68c1.352.026 2.418-.26 3.198-.858.806-.598 1.443-1.56 1.911-2.886L93.255 9.5h5.499l5.07 13.104L108.153 9.5zm20.664 0h5.031V29h-5.031v-2.301c-1.508 1.898-3.627 2.847-6.357 2.847-2.6 0-4.836-.988-6.708-2.964-1.846-2.002-2.769-4.446-2.769-7.332s.923-5.317 2.769-7.293c1.872-2.002 4.108-3.003 6.708-3.003 2.73 0 4.849.949 6.357 2.847V9.5zm-9.282 13.728c1.014 1.014 2.301 1.521 3.861 1.521s2.847-.507 3.861-1.521c1.04-1.04 1.56-2.366 1.56-3.978s-.52-2.925-1.56-3.939c-1.014-1.04-2.301-1.56-3.861-1.56s-2.847.52-3.861 1.56c-1.014 1.014-1.521 2.327-1.521 3.939s.507 2.938 1.521 3.978zm22.97 5.304c-.65.65-1.43.975-2.34.975-.91 0-1.69-.325-2.34-.975-.65-.65-.975-1.43-.975-2.34 0-.91.325-1.69.975-2.34.65-.65 1.43-.975 2.34-.975.91 0 1.69.325 2.34.975.65.65.975 1.43.975 2.34 0 .91-.325 1.69-.975 2.34z" fill="#0F1435"/><path d="M155.788 29.546c-2.938 0-5.395-.988-7.371-2.964-1.95-1.976-2.925-4.42-2.925-7.332s.975-5.356 2.925-7.332c1.976-1.976 4.433-2.964 7.371-2.964 1.898 0 3.627.455 5.187 1.365 1.56.91 2.743 2.132 3.549 3.666l-4.329 2.535a4.383 4.383 0 00-1.794-1.911c-.78-.468-1.664-.702-2.652-.702-1.508 0-2.756.507-3.744 1.521-.988.988-1.482 2.262-1.482 3.822 0 1.534.494 2.808 1.482 3.822.988.988 2.236 1.482 3.744 1.482 1.014 0 1.911-.221 2.691-.663a4.383 4.383 0 001.794-1.911l4.368 2.496c-.858 1.534-2.067 2.769-3.627 3.705-1.56.91-3.289 1.365-5.187 1.365zm26.614-2.964c-2.002 1.976-4.446 2.964-7.332 2.964s-5.33-.988-7.332-2.964c-1.976-2.002-2.964-4.446-2.964-7.332s.988-5.317 2.964-7.293c2.002-2.002 4.446-3.003 7.332-3.003s5.33 1.001 7.332 3.003c2.002 1.976 3.003 4.407 3.003 7.293s-1.001 5.33-3.003 7.332zm-11.115-3.471c1.014 1.014 2.275 1.521 3.783 1.521s2.769-.507 3.783-1.521c1.014-1.014 1.521-2.301 1.521-3.861s-.507-2.847-1.521-3.861c-1.014-1.014-2.275-1.521-3.783-1.521s-2.769.507-3.783 1.521c-.988 1.014-1.482 2.301-1.482 3.861s.494 2.847 1.482 3.861zm38.054-14.157c2.236 0 4.017.728 5.343 2.184 1.352 1.456 2.028 3.406 2.028 5.85V29h-5.031V17.339c0-1.17-.286-2.08-.858-2.73-.572-.65-1.378-.975-2.418-.975-1.144 0-2.041.377-2.691 1.131-.624.754-.936 1.846-.936 3.276V29h-5.031V17.339c0-1.17-.286-2.08-.858-2.73-.572-.65-1.378-.975-2.418-.975-1.118 0-2.015.377-2.691 1.131-.65.754-.975 1.846-.975 3.276V29h-5.031V9.5h5.031v2.067c1.17-1.742 2.977-2.613 5.421-2.613 2.392 0 4.16.936 5.304 2.808 1.3-1.872 3.237-2.808 5.811-2.808z" fill="#232E73"/></svg>