<svg width="166" height="28" fill="none" xmlns="http://www.w3.org/2000/svg"><g clip-path="url(#clip0_3157_4522)"><path d="M16.547 21.97h-4.872L4.16 12.098v9.874h-4.18V.903h4.18v9.3l7.25-9.3h4.805L8.42 11.136l8.127 10.835z" fill="#fff"/><path d="M19.471 16.039c.527 1.893 1.95 2.835 4.259 2.835a3.998 3.998 0 003.382-1.505l3.08 1.806a7.497 7.497 0 01-2.874 2.463 7.527 7.527 0 01-3.715.75 8.146 8.146 0 01-6.013-2.252 7.708 7.708 0 01-2.27-5.69 7.74 7.74 0 012.241-5.66 7.662 7.662 0 015.808-2.281 7.187 7.187 0 015.468 2.282 7.907 7.907 0 012.173 5.66 9.292 9.292 0 01-.147 1.592H19.471zm-.058-3.01h7.699a3.61 3.61 0 00-1.384-2.281 3.909 3.909 0 00-2.359-.758 4.045 4.045 0 00-2.602.816 3.716 3.716 0 00-1.393 2.223h.039zM35.795 11.194c0 .408.253.738.78.971.633.266 1.284.487 1.949.66.78.182 1.546.422 2.29.719a4.286 4.286 0 011.949 1.446 4.01 4.01 0 01.809 2.554 4.142 4.142 0 01-1.686 3.611 7.23 7.23 0 01-4.327 1.233c-3.099 0-5.214-1.19-6.344-3.572l3.381-1.942a2.814 2.814 0 002.924 1.942c1.394 0 2.085-.437 2.085-1.301 0-.402-.272-.725-.818-.971a9.962 9.962 0 00-1.95-.69 21.926 21.926 0 01-2.29-.68 4.872 4.872 0 01-1.948-1.407 3.873 3.873 0 01-.8-2.476 4.17 4.17 0 011.638-3.495 6.448 6.448 0 014.102-1.291 6.842 6.842 0 013.372.835A5.963 5.963 0 0143.3 9.69l-3.362 1.805a2.492 2.492 0 00-2.417-1.534 2.277 2.277 0 00-1.267.33 1.042 1.042 0 00-.458.903zM59.115 21.97h-4.56l-5.507-6.795v6.796H45.15V.903h3.898v12.621l5.234-6.602h4.648L52.86 14.36l6.256 7.612zM62.087 5.116a2.366 2.366 0 01-1.697-.688 2.347 2.347 0 01-.69-1.69 2.352 2.352 0 01.701-1.68A2.329 2.329 0 0162.087.33a2.239 2.239 0 011.686.728 2.28 2.28 0 01.73 1.68 2.314 2.314 0 01-.73 1.689 2.301 2.301 0 01-1.686.69zm-1.94 16.855V6.922h3.899v15.049h-3.898zM66.707 21.97V0h3.898v21.97h-3.898zM83.116 6.922h4.162L81.78 21.971a9.794 9.794 0 01-3.138 4.699 7.133 7.133 0 01-4.872 1.32V24.38a3.91 3.91 0 002.475-.66 4.573 4.573 0 001.481-2.234L71.53 6.922h4.269l3.898 10.117 3.42-10.117zM99.118 6.922h3.898v15.049h-3.898v-1.777a5.944 5.944 0 01-4.873 2.194 6.92 6.92 0 01-5.194-2.281 8.022 8.022 0 01-2.144-5.66 7.916 7.916 0 012.144-5.632 6.82 6.82 0 015.194-2.31 5.944 5.944 0 014.873 2.194V6.922zm-7.192 10.592a4.394 4.394 0 005.983 0 4.135 4.135 0 001.209-3.068 4.033 4.033 0 00-1.209-3.038 4.316 4.316 0 00-5.983 0 4.133 4.133 0 00-1.17 3.038 4.21 4.21 0 001.17 3.068zM109.721 21.612a2.478 2.478 0 01-1.812.747 2.57 2.57 0 01-1.813-.748 2.55 2.55 0 01-.75-1.805 2.565 2.565 0 01.753-1.806 2.586 2.586 0 011.81-.757c.68.005 1.332.276 1.813.756.482.48.754 1.129.759 1.807a2.45 2.45 0 01-.76 1.806z" fill="#fff"/><path d="M118.804 22.388a7.822 7.822 0 01-5.69-2.273 7.75 7.75 0 01-2.282-5.668 7.963 7.963 0 011.088-3.967 8 8 0 012.923-2.902 8.04 8.04 0 017.976-.025 7 7 0 012.748 2.835l-3.352 1.942a3.38 3.38 0 00-1.394-1.466 3.967 3.967 0 00-2.047-.544 3.913 3.913 0 00-2.923 1.175 4.025 4.025 0 00-1.15 2.913 4.075 4.075 0 001.15 2.912 3.962 3.962 0 002.923 1.146 4.205 4.205 0 002.086-.515 3.374 3.374 0 001.384-1.475l3.381 1.941a7.625 7.625 0 01-2.806 2.913 7.822 7.822 0 01-4.015 1.058zM139.415 20.107a8.006 8.006 0 01-8.73 1.736 7.973 7.973 0 01-3.588-2.952 7.923 7.923 0 01-1.325-4.444 7.952 7.952 0 011.362-4.409 7.999 7.999 0 013.582-2.921 8.04 8.04 0 018.699 1.699 7.581 7.581 0 012.329 5.63 7.66 7.66 0 01-2.329 5.66zm-8.605-2.68a4.237 4.237 0 005.847 0 4.026 4.026 0 001.179-2.98 4.003 4.003 0 00-1.179-2.981 4.237 4.237 0 00-5.847 0 4.071 4.071 0 00-1.15 2.98 4.07 4.07 0 001.15 2.98zM160.289 6.505a5.317 5.317 0 014.132 1.68A6.344 6.344 0 01166 12.698v9.272h-3.898v-9a3.11 3.11 0 00-.663-2.107 2.366 2.366 0 00-1.881-.748 2.582 2.582 0 00-2.075.874 3.805 3.805 0 00-.731 2.524v8.457h-3.898v-9a3.115 3.115 0 00-.663-2.107 2.349 2.349 0 00-1.871-.748 2.676 2.676 0 00-2.086.874 3.712 3.712 0 00-.76 2.524v8.457h-3.898V6.922h3.898v1.593a4.718 4.718 0 014.2-2.01 4.501 4.501 0 012.361.51 4.475 4.475 0 011.752 1.655 5.12 5.12 0 014.502-2.165z" fill="#C6C9E7"/></g><defs><clipPath id="clip0_3157_4522"><path fill="#fff" d="M0 0h166v28H0z"/></clipPath></defs></svg>