<svg version="1.1" id="Слой_1" xmlns="http://www.w3.org/2000/svg" x="0" y="0" viewBox="0 0 174 40" xml:space="preserve"><style>.st1{fill:#fff}</style><path class="st1" d="M10.8 7.9c2.2 0 4.1.7 5.6 2.2s2.3 3.3 2.3 5.5-.8 4-2.3 5.5-3.4 2.2-5.6 2.2H6.7V31H2.1V7.9h8.7zm0 11.3c1 0 1.8-.3 2.4-1s1-1.5 1-2.5-.3-1.8-1-2.5c-.6-.7-1.4-1-2.4-1H6.7v7h4.1zM24.4 17.3c.4-1.1 1.1-1.8 2-2.4.9-.5 1.9-.8 3.1-.8v4.8c-1.3-.2-2.5.1-3.5.8-1 .7-1.5 1.8-1.5 3.4V31h-4.3V14.5h4.3v2.8h-.1zM33.9 24.5c.6 2.1 2.1 3.1 4.7 3.1 1.6 0 2.9-.5 3.7-1.6l3.4 2c-1.6 2.4-4 3.5-7.2 3.5-2.7 0-4.9-.8-6.6-2.5-1.6-1.7-2.5-3.7-2.5-6.2s.8-4.6 2.4-6.2c1.6-1.7 3.7-2.5 6.3-2.5 2.4 0 4.4.8 6 2.5s2.4 3.7 2.4 6.2c0 .5-.1 1.1-.2 1.7H33.9zm-.1-3.3h8.4c-.2-1.1-.7-2-1.5-2.5s-1.6-.8-2.6-.8c-1.1 0-2.1.3-2.8.9-.8.5-1.3 1.3-1.5 2.4zM51.7 19.2c0 .4.3.8.9 1.1.6.3 1.3.5 2.1.7s1.7.5 2.5.8 1.5.9 2.1 1.6.9 1.7.9 2.8c0 1.7-.6 3-1.9 3.9-1.3.9-2.8 1.4-4.7 1.4-3.4 0-5.7-1.3-6.9-3.9l3.7-2.1c.5 1.4 1.6 2.1 3.2 2.1 1.5 0 2.3-.5 2.3-1.4 0-.4-.3-.8-.9-1.1-.6-.3-1.3-.5-2.1-.7s-1.7-.5-2.5-.8-1.5-.9-2.1-1.6-.9-1.6-.9-2.7c0-1.6.6-2.9 1.8-3.8 1.2-.9 2.7-1.4 4.5-1.4 1.3 0 2.6.3 3.7.9 1.1.6 2 1.5 2.6 2.6l-3.6 2c-.5-1.1-1.4-1.7-2.6-1.7-.6 0-1 .1-1.4.4-.5.1-.7.5-.7.9z"/><path class="st1" d="M65.1 19.2c0 .4.3.8.9 1.1.6.3 1.3.5 2.1.7.8.2 1.7.5 2.5.8s1.5.9 2.1 1.6.9 1.7.9 2.8c0 1.7-.6 3-1.9 3.9s-2.8 1.4-4.7 1.4c-3.4 0-5.7-1.3-6.9-3.9l3.7-2.1c.5 1.4 1.6 2.1 3.2 2.1 1.5 0 2.3-.5 2.3-1.4 0-.4-.3-.8-.9-1.1-.6-.3-1.3-.5-2.1-.7s-1.7-.5-2.5-.8c-.8-.3-1.5-.9-2.1-1.6s-.9-1.6-.9-2.7c0-1.6.6-2.9 1.8-3.8 1.2-.9 2.7-1.4 4.5-1.4 1.3 0 2.6.3 3.7.9 1.1.6 2 1.5 2.6 2.6l-3.6 2c-.5-1.1-1.4-1.7-2.6-1.7-.6 0-1 .1-1.4.4-.5.1-.7.5-.7.9zM85.2 14c2.2 0 4.1.8 5.7 2.5s2.4 3.7 2.4 6.2-.8 4.5-2.4 6.2-3.5 2.5-5.7 2.5c-2.3 0-4.1-.8-5.3-2.4v8.5h-4.3v-23h4.3v1.9c1.2-1.6 3-2.4 5.3-2.4zm-4.1 12.1c.9.9 1.9 1.3 3.3 1.3 1.3 0 2.4-.4 3.3-1.3s1.3-2 1.3-3.3-.4-2.5-1.3-3.3c-.9-.9-2-1.3-3.3-1.3s-2.4.4-3.3 1.3-1.3 2-1.3 3.3.5 2.4 1.3 3.3zM107.8 14.5h4.3V31h-4.3v-1.9c-1.3 1.6-3.1 2.4-5.4 2.4-2.2 0-4.1-.8-5.7-2.5s-2.4-3.7-2.4-6.2.8-4.5 2.4-6.2 3.5-2.5 5.7-2.5c2.3 0 4.1.8 5.4 2.4v-2zM100 26.1c.9.9 1.9 1.3 3.3 1.3 1.3 0 2.4-.4 3.3-1.3s1.3-2 1.3-3.3-.4-2.5-1.3-3.3c-.9-.9-2-1.3-3.3-1.3s-2.4.4-3.3 1.3-1.3 2-1.3 3.3.4 2.4 1.3 3.3zM119.2 17.3c.4-1.1 1.1-1.8 2-2.4s1.9-.8 3.1-.8v4.8c-1.3-.2-2.5.1-3.5.8-1 .7-1.5 1.8-1.5 3.4V31H115V14.5h4.3v2.8h-.1zM135.7 18.6H132v6.9c0 .6.1 1 .4 1.3.3.3.7.4 1.3.4h2V31c-2.9.3-5 .1-6.2-.8s-1.8-2.5-1.8-4.7v-6.9h-2.9v-4.1h2.9v-3.3l4.3-1.3v4.6h3.7v4.1zM151.3 28.9c-1.7 1.7-3.8 2.5-6.2 2.5s-4.5-.8-6.2-2.5-2.5-3.7-2.5-6.2.8-4.5 2.5-6.2 3.7-2.5 6.2-2.5c2.4 0 4.5.8 6.2 2.5s2.5 3.7 2.5 6.2-.8 4.6-2.5 6.2zm-9.4-2.9c.8.9 1.9 1.3 3.2 1.3s2.3-.4 3.2-1.3 1.3-1.9 1.3-3.3-.4-2.4-1.3-3.3c-.9-.9-1.9-1.3-3.2-1.3s-2.3.4-3.2 1.3c-.8.9-1.3 1.9-1.3 3.3s.4 2.5 1.3 3.3zM169.9 28.9c-1.7 1.7-3.8 2.5-6.2 2.5s-4.5-.8-6.2-2.5-2.5-3.7-2.5-6.2.8-4.5 2.5-6.2 3.7-2.5 6.2-2.5c2.4 0 4.5.8 6.2 2.5s2.5 3.7 2.5 6.2-.8 4.6-2.5 6.2zm-9.4-2.9c.8.9 1.9 1.3 3.2 1.3s2.3-.4 3.2-1.3 1.3-1.9 1.3-3.3-.4-2.4-1.3-3.3c-.9-.9-1.9-1.3-3.2-1.3s-2.3.4-3.2 1.3c-.8.9-1.3 1.9-1.3 3.3s.5 2.5 1.3 3.3z"/></svg>