<?xml version="1.0" encoding="utf-8"?>
<!-- Generator: Adobe Illustrator 25.3.0, SVG Export Plug-In . SVG Version: 6.00 Build 0)  -->
<svg version="1.1" id="Слой_1" xmlns="http://www.w3.org/2000/svg" xmlns:xlink="http://www.w3.org/1999/xlink" x="0px" y="0px"
	 viewBox="0 0 174 40" style="enable-background:new 0 0 174 40;" xml:space="preserve">
<style type="text/css">
	.st0{enable-background:new    ;}
	.st1{fill:#FFFFFF;}
</style>
<g class="st0">
	<path class="st1" d="M10.8,7.9c2.2,0,4.1,0.7,5.6,2.2s2.3,3.3,2.3,5.5s-0.8,4-2.3,5.5s-3.4,2.2-5.6,2.2H6.7V31H2.1V7.9H10.8z
		 M10.8,19.2c1,0,1.8-0.3,2.4-1s1-1.5,1-2.5s-0.3-1.8-1-2.5c-0.6-0.7-1.4-1-2.4-1H6.7v7H10.8z"/>
	<path class="st1" d="M24.4,17.3c0.4-1.1,1.1-1.8,2-2.4c0.9-0.5,1.9-0.8,3.1-0.8v4.8C28.2,18.7,27,19,26,19.7
		c-1,0.7-1.5,1.8-1.5,3.4V31h-4.3V14.5h4.3v2.8H24.4z"/>
	<path class="st1" d="M33.9,24.5c0.6,2.1,2.1,3.1,4.7,3.1c1.6,0,2.9-0.5,3.7-1.6l3.4,2c-1.6,2.4-4,3.5-7.2,3.5
		c-2.7,0-4.9-0.8-6.6-2.5c-1.6-1.7-2.5-3.7-2.5-6.2s0.8-4.6,2.4-6.2c1.6-1.7,3.7-2.5,6.3-2.5c2.4,0,4.4,0.8,6,2.5s2.4,3.7,2.4,6.2
		c0,0.5-0.1,1.1-0.2,1.7H33.9z M33.8,21.2h8.4c-0.2-1.1-0.7-2-1.5-2.5s-1.6-0.8-2.6-0.8c-1.1,0-2.1,0.3-2.8,0.9
		C34.5,19.3,34,20.1,33.8,21.2z"/>
	<path class="st1" d="M51.7,19.2c0,0.4,0.3,0.8,0.9,1.1c0.6,0.3,1.3,0.5,2.1,0.7s1.7,0.5,2.5,0.8s1.5,0.9,2.1,1.6s0.9,1.7,0.9,2.8
		c0,1.7-0.6,3-1.9,3.9c-1.3,0.9-2.8,1.4-4.7,1.4c-3.4,0-5.7-1.3-6.9-3.9l3.7-2.1c0.5,1.4,1.6,2.1,3.2,2.1c1.5,0,2.3-0.5,2.3-1.4
		c0-0.4-0.3-0.8-0.9-1.1c-0.6-0.3-1.3-0.5-2.1-0.7s-1.7-0.5-2.5-0.8s-1.5-0.9-2.1-1.6s-0.9-1.6-0.9-2.7c0-1.6,0.6-2.9,1.8-3.8
		c1.2-0.9,2.7-1.4,4.5-1.4c1.3,0,2.6,0.3,3.7,0.9c1.1,0.6,2,1.5,2.6,2.6l-3.6,2c-0.5-1.1-1.4-1.7-2.6-1.7c-0.6,0-1,0.1-1.4,0.4
		C51.9,18.4,51.7,18.8,51.7,19.2z"/>
	<path class="st1" d="M65.1,19.2c0,0.4,0.3,0.8,0.9,1.1c0.6,0.3,1.3,0.5,2.1,0.7c0.8,0.2,1.7,0.5,2.5,0.8s1.5,0.9,2.1,1.6
		s0.9,1.7,0.9,2.8c0,1.7-0.6,3-1.9,3.9s-2.8,1.4-4.7,1.4c-3.4,0-5.7-1.3-6.9-3.9l3.7-2.1c0.5,1.4,1.6,2.1,3.2,2.1
		c1.5,0,2.3-0.5,2.3-1.4c0-0.4-0.3-0.8-0.9-1.1c-0.6-0.3-1.3-0.5-2.1-0.7s-1.7-0.5-2.5-0.8c-0.8-0.3-1.5-0.9-2.1-1.6
		s-0.9-1.6-0.9-2.7c0-1.6,0.6-2.9,1.8-3.8c1.2-0.9,2.7-1.4,4.5-1.4c1.3,0,2.6,0.3,3.7,0.9c1.1,0.6,2,1.5,2.6,2.6l-3.6,2
		c-0.5-1.1-1.4-1.7-2.6-1.7c-0.6,0-1,0.1-1.4,0.4C65.3,18.4,65.1,18.8,65.1,19.2z"/>
	<path class="st1" d="M85.2,14c2.2,0,4.1,0.8,5.7,2.5s2.4,3.7,2.4,6.2s-0.8,4.5-2.4,6.2s-3.5,2.5-5.7,2.5c-2.3,0-4.1-0.8-5.3-2.4
		v8.5h-4.3v-23h4.3v1.9C81.1,14.8,82.9,14,85.2,14z M81.1,26.1c0.9,0.9,1.9,1.3,3.3,1.3c1.3,0,2.4-0.4,3.3-1.3s1.3-2,1.3-3.3
		s-0.4-2.5-1.3-3.3c-0.9-0.9-2-1.3-3.3-1.3s-2.4,0.4-3.3,1.3s-1.3,2-1.3,3.3S80.3,25.2,81.1,26.1z"/>
	<path class="st1" d="M107.8,14.5h4.3V31h-4.3v-1.9c-1.3,1.6-3.1,2.4-5.4,2.4c-2.2,0-4.1-0.8-5.7-2.5s-2.4-3.7-2.4-6.2
		s0.8-4.5,2.4-6.2s3.5-2.5,5.7-2.5c2.3,0,4.1,0.8,5.4,2.4V14.5z M100,26.1c0.9,0.9,1.9,1.3,3.3,1.3c1.3,0,2.4-0.4,3.3-1.3
		s1.3-2,1.3-3.3s-0.4-2.5-1.3-3.3c-0.9-0.9-2-1.3-3.3-1.3s-2.4,0.4-3.3,1.3s-1.3,2-1.3,3.3S99.1,25.2,100,26.1z"/>
	<path class="st1" d="M119.2,17.3c0.4-1.1,1.1-1.8,2-2.4s1.9-0.8,3.1-0.8v4.8c-1.3-0.2-2.5,0.1-3.5,0.8c-1,0.7-1.5,1.8-1.5,3.4V31
		H115V14.5h4.3v2.8H119.2z"/>
	<path class="st1" d="M135.7,18.6H132v6.9c0,0.6,0.1,1,0.4,1.3c0.3,0.3,0.7,0.4,1.3,0.4s1.2,0,2,0V31c-2.9,0.3-5,0.1-6.2-0.8
		s-1.8-2.5-1.8-4.7v-6.9h-2.9v-4.1h2.9v-3.3l4.3-1.3v4.6h3.7V18.6z"/>
	<path class="st1" d="M151.3,28.9c-1.7,1.7-3.8,2.5-6.2,2.5s-4.5-0.8-6.2-2.5s-2.5-3.7-2.5-6.2s0.8-4.5,2.5-6.2s3.7-2.5,6.2-2.5
		c2.4,0,4.5,0.8,6.2,2.5s2.5,3.7,2.5,6.2S153,27.3,151.3,28.9z M141.9,26c0.8,0.9,1.9,1.3,3.2,1.3s2.3-0.4,3.2-1.3s1.3-1.9,1.3-3.3
		s-0.4-2.4-1.3-3.3c-0.9-0.9-1.9-1.3-3.2-1.3s-2.3,0.4-3.2,1.3c-0.8,0.9-1.3,1.9-1.3,3.3S141,25.2,141.9,26z"/>
	<path class="st1" d="M169.9,28.9c-1.7,1.7-3.8,2.5-6.2,2.5s-4.5-0.8-6.2-2.5s-2.5-3.7-2.5-6.2s0.8-4.5,2.5-6.2s3.7-2.5,6.2-2.5
		c2.4,0,4.5,0.8,6.2,2.5s2.5,3.7,2.5,6.2S171.6,27.3,169.9,28.9z M160.5,26c0.8,0.9,1.9,1.3,3.2,1.3s2.3-0.4,3.2-1.3
		s1.3-1.9,1.3-3.3s-0.4-2.4-1.3-3.3c-0.9-0.9-1.9-1.3-3.2-1.3s-2.3,0.4-3.2,1.3c-0.8,0.9-1.3,1.9-1.3,3.3S159.7,25.2,160.5,26z"/>
</g>
</svg>
